<svg xmlns="http://www.w3.org/2000/svg" width="99.169" height="40.239" viewBox="0 0 99.169 40.239"><defs><style>.a{fill:#1e4384;}.b{fill:#fff;}</style></defs><g transform="translate(-0.767 -0.955)"><path class="a" d="M99.936,25.515a3.642,3.642,0,0,1-3.641,3.641H4.407a3.641,3.641,0,0,1-3.64-3.641V4.6A3.64,3.64,0,0,1,4.407.955H96.295A3.641,3.641,0,0,1,99.936,4.6V25.515Z" transform="translate(0 0)"/><path class="b" d="M46.685,22.776a6,6,0,0,0-2.051-1.336,6.974,6.974,0,0,0-2.59-.472H39.966a2.548,2.548,0,0,1-1.822-.648,2.133,2.133,0,0,1-.688-1.619,2.019,2.019,0,0,1,.674-1.525,2.575,2.575,0,0,1,1.835-.633h7.178v-3.67H40.155a7.709,7.709,0,0,0-2.671.445,6.281,6.281,0,0,0-2.077,1.228A5.468,5.468,0,0,0,34.07,16.38a5.541,5.541,0,0,0-.472,2.294,5.654,5.654,0,0,0,.459,2.307,5.566,5.566,0,0,0,1.269,1.808,5.626,5.626,0,0,0,1.916,1.187,6.725,6.725,0,0,0,2.4.419h1.672a5.5,5.5,0,0,1,1.565.216,3.835,3.835,0,0,1,1.242.607,2.951,2.951,0,0,1,.809.931,2.425,2.425,0,0,1,.3,1.187,2.5,2.5,0,0,1-1.106,2.106,4.637,4.637,0,0,1-2.807.809H33.949l3.337,3.67h4.029a8.485,8.485,0,0,0,2.942-.485,6.929,6.929,0,0,0,2.28-1.35,5.845,5.845,0,0,0,1.47-2.05,6.535,6.535,0,0,0,.513-2.618,6.79,6.79,0,0,0-.485-2.591,6.182,6.182,0,0,0-1.349-2.051Zm34.043-4.263a6.8,6.8,0,0,1,2.213-1.444,7.3,7.3,0,0,1,2.794-.526h3.075l-3.075-3.67a11.954,11.954,0,0,0-4.331.755,9.728,9.728,0,0,0-3.346,2.119A9.53,9.53,0,0,0,75.9,19a10.992,10.992,0,0,0-.769,4.182,11.381,11.381,0,0,0,.782,4.237,10.373,10.373,0,0,0,2.173,3.413A9.884,9.884,0,0,0,81.429,33.1a10.987,10.987,0,0,0,4.3.823h3.075V30.25H85.733a7.825,7.825,0,0,1-2.833-.5A6.268,6.268,0,0,1,79.256,26.2a7.079,7.079,0,0,1-.512-2.726,7.225,7.225,0,0,1,.526-2.767,6.539,6.539,0,0,1,1.457-2.2Zm30.81-5.64H101.256l3.634,3.643h4.5v7.906a13.367,13.367,0,0,1-.242,2.766,4.292,4.292,0,0,1-.783,1.795,3.02,3.02,0,0,1-1.376.971,5.989,5.989,0,0,1-2,.3h-.7a6.253,6.253,0,0,1-2.011-.282A2.837,2.837,0,0,1,100.932,29a4.526,4.526,0,0,1-.769-1.795,13.313,13.313,0,0,1-.243-2.779V12.873H96.251V24.422q0,4.613,2.091,7.055a7.4,7.4,0,0,0,5.95,2.442h.7a7.436,7.436,0,0,0,5.95-2.456q2.118-2.455,2.118-7.042V12.873Zm-43.3,3.643-3.634-3.643H55.4V33.92H68.239V30.276h-9.2V25.218h9.2V21.575h-9.2V16.516Z" transform="translate(-22.979 -8.341)"/><path d="M37.759,115.363H34.051l-.042-6.333a.259.259,0,0,0-.283-.283H32.9a.26.26,0,0,0-.282.282l-.042,7.325a.26.26,0,0,0,.283.284h4.9a.26.26,0,0,0,.284-.284v-.71A.259.259,0,0,0,37.759,115.363Zm14.779-6.617H47.795a.259.259,0,0,0-.281.282l-.043,7.325a.261.261,0,0,0,.284.284h4.784a.26.26,0,0,0,.283-.284v-.71a.259.259,0,0,0-.283-.281H48.946l-.009-2.2h3.6a.261.261,0,0,0,.283-.283v-.71a.26.26,0,0,0-.283-.281H48.926l-.01-1.869h3.622a.26.26,0,0,0,.283-.283v-.71A.26.26,0,0,0,52.538,108.747Zm15.281,0H62.146a.26.26,0,0,0-.284.283v.71a.26.26,0,0,0,.284.283h2.139l-.041,6.332a.26.26,0,0,0,.284.284h.909a.26.26,0,0,0,.283-.284l-.041-6.332h2.14a.26.26,0,0,0,.284-.283v-.71A.26.26,0,0,0,67.819,108.747Zm14.837,0H76.983a.26.26,0,0,0-.283.283v.71a.26.26,0,0,0,.283.283h2.14l-.041,6.332a.26.26,0,0,0,.283.284h.911a.26.26,0,0,0,.282-.284l-.043-6.332h2.141a.26.26,0,0,0,.282-.283v-.71A.259.259,0,0,0,82.656,108.747Zm14.392,0H92.305a.26.26,0,0,0-.282.282l-.043,7.325a.26.26,0,0,0,.282.284h4.785a.261.261,0,0,0,.284-.284v-.71a.26.26,0,0,0-.284-.281H93.457l-.009-2.2h3.6a.261.261,0,0,0,.284-.283v-.71a.26.26,0,0,0-.284-.281H93.436l-.01-1.868h3.623a.261.261,0,0,0,.284-.283v-.71A.261.261,0,0,0,97.048,108.747Zm9.31,3.4-.024,4.208a.26.26,0,0,0,.284.284h.921a.26.26,0,0,0,.283-.284l-.022-2.935h1.151l2.022,3.049a.363.363,0,0,0,.323.169h1.1a.241.241,0,0,0,.234-.113.245.245,0,0,0-.038-.254l-2.1-2.95a2.319,2.319,0,0,0,1.91-2.281,2.4,2.4,0,0,0-2.687-2.294h-3.059a.26.26,0,0,0-.283.282l-.005.984m1.41-.022h1.791c.9,0,1.443.428,1.443,1.145,0,.691-.486,1.041-1.443,1.041H107.8" transform="translate(-22.263 -75.444)"/></g></svg>