<svg xmlns="http://www.w3.org/2000/svg" xmlns:xlink="http://www.w3.org/1999/xlink" width="48" height="48" viewBox="0 0 48 48"><defs><style>.a,.d{fill:none;}.b{clip-path:url(#a);}.c{fill:#fff;}.d{stroke:#002057;stroke-width:3px;}.e{fill:#2f58b8;}.f{stroke:none;}</style><clipPath id="a"><rect class="a" width="48" height="48"/></clipPath></defs><g class="b"><rect class="c" width="48" height="48"/><g transform="translate(-273 -379)"><g class="d" transform="translate(280 385)"><path class="f" d="M0,0H10a9,9,0,0,1,9,9V35a0,0,0,0,1,0,0H0a0,0,0,0,1,0,0V0A0,0,0,0,1,0,0Z"/><path class="a" d="M3,1.5h7A7.5,7.5,0,0,1,17.5,9V32A1.5,1.5,0,0,1,16,33.5H3A1.5,1.5,0,0,1,1.5,32V3A1.5,1.5,0,0,1,3,1.5Z"/></g><g class="d" transform="translate(296 385)"><path class="f" d="M9,0H19a0,0,0,0,1,0,0V35a0,0,0,0,1,0,0H0a0,0,0,0,1,0,0V9A9,9,0,0,1,9,0Z"/><path class="a" d="M9,1.5h7A1.5,1.5,0,0,1,17.5,3V32A1.5,1.5,0,0,1,16,33.5H3A1.5,1.5,0,0,1,1.5,32V9A7.5,7.5,0,0,1,9,1.5Z"/></g><rect class="e" width="7" height="3" transform="translate(286 394)"/><rect class="e" width="7" height="3" transform="translate(302 394)"/><rect class="e" width="7" height="3" transform="translate(286 400)"/><rect class="e" width="7" height="3" transform="translate(302 400)"/><rect class="c" width="6" height="6" transform="translate(309 414)"/></g></g></svg>