<svg xmlns="http://www.w3.org/2000/svg" width="104" height="104" viewBox="0 0 104 104"><defs><style>.a{fill:none;}.b{fill:#181826;}.c{fill:#19193a;}.d{fill:rgba(0,0,0,0);stroke:#68d656;stroke-miterlimit:10;stroke-width:4px;}.e{fill:#54c83d;}</style></defs><g transform="translate(9312.109 8449.064)"><rect class="a" width="104" height="104" transform="translate(-9312.109 -8449.064)"/><path class="b" d="M-9237.676-8352.155l-10.106-13.624v-76.882h20.081l0,76.878Zm-8.106-14.285,8.1,10.913,7.983-10.909,0-74.225h-16.081Z"/><rect class="c" width="18.335" height="2" transform="translate(-9246.783 -8431.038)"/><rect class="b" width="2" height="57.985" transform="translate(-9238.847 -8429.906)"/><path class="d" d="M-9237.421-8353.519"/><path class="e" d="M-9273.488-8398.595a20.351,20.351,0,0,1,20.351-20.351h0c.339,0,.67.034,1,.052.054-5.562.1-9.273.1-9.273l-.085-.026-.948-10.042a35,35,0,0,0-15.8,0l-.949,10.043a30.689,30.689,0,0,0-5.816,2.409l-7.774-6.43a35.055,35.055,0,0,0-11.175,11.175l6.43,7.775a30.664,30.664,0,0,0-2.41,5.817l-10.044.948a35.026,35.026,0,0,0,0,15.8l10.044.949a30.638,30.638,0,0,0,2.41,5.817l-6.43,7.774a35.058,35.058,0,0,0,11.175,11.176l7.774-6.432a30.506,30.506,0,0,0,5.816,2.411l.949,10.043a35.026,35.026,0,0,0,15.8,0l.948-10.043.085-.026c-.177.178-.264-3.575-.3-9.263-.271.011-.534.041-.807.041A20.35,20.35,0,0,1-9273.488-8398.595Z"/></g><rect class="b" width="18.383" height="10.723" transform="translate(65.361 7.66)"/></svg>