<svg xmlns="http://www.w3.org/2000/svg" width="104" height="104" viewBox="0 0 104 104"><defs><style>.a{fill:none;}.b{fill:#54c83d;}.c{fill:#fff;}.d{fill:#181826;}</style></defs><rect class="a" width="104" height="104"/><g transform="translate(9316.705 8774.002)"><rect class="b" width="79.976" height="44.404" transform="translate(-9309.441 -8746.177)"/><path class="c" d="M-9267.861-8735.481a5.788,5.788,0,0,1,4.94,5.869h-3.282a3.292,3.292,0,0,0-3.149-3.149,3.123,3.123,0,0,0-3.086,3.159l0,.024c0,2.42,1.988,3.083,4.875,4.045,3.05,1.094,5.205,3.283,5.205,6.3a6.8,6.8,0,0,1-5.5,6.565v3.25h-2.918v-3.25a6.538,6.538,0,0,1-5.77-6.432h3.582a3.668,3.668,0,0,0,3.614,3.681,3.417,3.417,0,0,0,3.415-3.421v-.028c0-2.818-2.72-3.681-5.3-4.51-1.856-.563-4.741-1.923-4.741-5.869a6.181,6.181,0,0,1,5.206-6.234v-3.051h2.918Z"/><rect class="d" width="34.507" height="2" transform="translate(-9286.707 -8693.958)"/><rect class="d" width="50.815" height="2" transform="translate(-9294.86 -8685.841)"/><circle class="d" cx="13.744" cy="13.744" r="13.744" transform="translate(-9247.457 -8759.163)"/><path class="c" d="M-9234.329-8739.893l-6.055-5.507,1.345-1.479,4.5,4.094,6.05-7.348,1.544,1.271Z"/></g></svg>