<svg xmlns="http://www.w3.org/2000/svg" width="104" height="104" viewBox="0 0 104 104"><defs><style>.a{fill:none;}.b{fill:#1a8aec;}.c{fill:#fff;}.d{fill:#19193a;}.e{fill:#181826;}</style></defs><rect class="a" width="104" height="104"/><g transform="translate(9162.194 8774.001)"><path class="b" d="M-9111.344-8748.384a33.319,33.319,0,0,1,33.318,33.318,33.318,33.318,0,0,1-33.318,33.319,33.319,33.319,0,0,1-33.319-33.319,33.32,33.32,0,0,1,33.319-33.318Z"/><circle class="c" cx="4.242" cy="4.242" r="4.242" transform="translate(-9114.885 -8719.26)"/><rect class="c" width="18.099" height="2" transform="translate(-9108.75 -8718.325) rotate(-44.998)"/><rect class="d" width="18.255" height="2" transform="translate(-9151.373 -8715.607)"/><rect class="d" width="25.047" height="2" transform="translate(-9154.769 -8721.547)"/><rect class="d" width="31.415" height="2" transform="translate(-9152.222 -8709.387)"/><rect class="d" width="5.094" height="2" transform="translate(-9126.751 -8721.547)"/><rect class="e" width="18.255" height="2" transform="translate(-9151.373 -8715.607)"/><rect class="e" width="25.047" height="2" transform="translate(-9154.769 -8721.547)"/><rect class="e" width="31.415" height="2" transform="translate(-9152.222 -8709.387)"/><rect class="e" width="5.094" height="2" transform="translate(-9126.751 -8721.547)"/><rect class="e" width="23.92" height="9.568" transform="translate(-9124.327 -8765.129)"/><rect class="d" width="2" height="10" transform="translate(-9113.164 -8758.384)"/><path class="e" d="M-9101.344-8680.746v-2a32.355,32.355,0,0,0,32.318-32.319,32.355,32.355,0,0,0-32.318-32.318v-2a34.356,34.356,0,0,1,34.318,34.318A34.357,34.357,0,0,1-9101.344-8680.746Z"/></g></svg>