<svg xmlns="http://www.w3.org/2000/svg" width="104" height="104" viewBox="0 0 104 104"><defs><style>.a{fill:none;}.b{fill:#181826;}.c{fill:#54c83d;}</style></defs><rect class="a" width="104" height="104"/><circle class="b" cx="11.106" cy="11.106" r="11.106" transform="translate(28.531 28.34)"/><path class="c" d="M-9282.175-8565.562h0a5.539,5.539,0,0,1,7.6,1.789l7.754,12.53a5.51,5.51,0,0,1,2.488-3.538h0a5.542,5.542,0,0,1,7.135,1.145,5.53,5.53,0,0,1,2.6-4.31h0a5.542,5.542,0,0,1,7.135,1.145,5.523,5.523,0,0,1,2.6-4.31h0a5.443,5.443,0,0,1,7.517,1.654c.028.045.057.09.084.136l10.731,19.6c8.728,15.937-8.12,36.421-25.056,28.434l-29.376-13.851a5.541,5.541,0,0,1-2.64-7.353c2.562-1.586,8.076-2.3,10.844-.993l5.563,2.623-16.771-27.1a5.539,5.539,0,0,1,1.79-7.6Z" transform="translate(9319.003 8600.469)"/><path class="b" d="M-9286.677-8542.837a19.914,19.914,0,0,1-11.41-10.259,19.919,19.919,0,0,1-.814-15.323,20.07,20.07,0,0,1,25.582-12.223,20.018,20.018,0,0,1,13.135,15.842l-1.978.306a18.02,18.02,0,0,0-11.823-14.263,18.068,18.068,0,0,0-23.029,11,17.929,17.929,0,0,0,.731,13.794,17.937,17.937,0,0,0,10.272,9.236Z" transform="translate(9319.003 8600.469)"/><path class="b" d="M-9292.243-8535.547a29.086,29.086,0,0,1-14.186-38.562,29.085,29.085,0,0,1,38.56-14.186,28.964,28.964,0,0,1,15.9,18.948l-1.934.512a26.97,26.97,0,0,0-14.807-17.645,27.083,27.083,0,0,0-35.905,13.21,27.082,27.082,0,0,0,13.209,35.905Z" transform="translate(9319.003 8600.469)"/></svg>