<svg xmlns="http://www.w3.org/2000/svg" width="104" height="104" viewBox="0 0 104 104"><defs><style>.a{fill:none;}.b{fill:#1a8aec;}.c{fill:#181826;}</style></defs><rect class="a" width="104" height="104"/><g transform="translate(9150.771 8452.919)"><circle class="b" cx="27.669" cy="27.669" r="27.669" transform="translate(-9144.472 -8428.792)"/><path class="c" d="M-9098.446-8421.5s20.923,18.865.487,41.087C-9097.959-8380.41-9121.114-8397.03-9098.446-8421.5Z"/><rect class="c" width="19.999" height="2" transform="translate(-9089.135 -8401.29)"/><path class="c" d="M-9075.374-8392.638l-1.414-1.414,6.2-6.2-6.162-5.546,1.338-1.486,7.729,6.956Z"/><rect class="c" width="19.999" height="2" transform="translate(-9127.299 -8400.596)"/><path class="c" d="M-9121.021-8392.6l-7.729-6.956,7.69-7.69,1.414,1.414-6.2,6.2,6.162,5.546Z"/><circle class="a" cx="27.669" cy="27.669" r="27.669" transform="translate(-9108.066 -8428.792)"/><path class="c" d="M-9080.4-8373.454a27.7,27.7,0,0,1-27.669-27.669,27.7,27.7,0,0,1,27.669-27.669,27.7,27.7,0,0,1,27.67,27.669A27.7,27.7,0,0,1-9080.4-8373.454Zm0-53.338a25.7,25.7,0,0,0-25.669,25.669,25.7,25.7,0,0,0,25.669,25.669,25.7,25.7,0,0,0,25.67-25.669A25.7,25.7,0,0,0-9080.4-8426.792Z"/></g></svg>