<svg xmlns="http://www.w3.org/2000/svg" xmlns:xlink="http://www.w3.org/1999/xlink" width="1024" height="320" viewBox="0 0 1024 320"><defs><style>.a{fill:none;}.b{clip-path:url(#a);}.c{fill:#181826;}.d{clip-path:url(#b);}.e{opacity:0.15;}.e,.g{isolation:isolate;}.f{fill:#fff;}.g{opacity:0.5;}.h{fill:#68d656;}.i{fill:#171727;}.j{fill:#54c83d;}</style><clipPath id="a"><rect class="a" width="1024" height="320" transform="translate(-4214.086 4677.163)"/></clipPath><clipPath id="b"><rect class="a" width="1154.819" height="319.981" transform="translate(-4274.52 4677.163)"/></clipPath></defs><g transform="translate(4214.086 -4677.163)"><g class="b"><rect class="c" width="1024" height="320" transform="translate(-4214.086 4677.163)"/><g class="d"><g class="e"><path class="f" d="M-3605.278,5050.641h386.07V4616.427h-434.213v434.214Zm337.928-433.288h47.215v47.215h-47.215Zm0,48.143h47.215v47.215h-47.215Zm0,48.143h47.215v47.215h-47.215Zm0,48.143h47.215V4809h-47.215Zm0,48.143h47.215v47.215h-47.215Zm0,48.143h47.215v47.215h-47.215Zm0,48.143h47.215v47.215h-47.215Zm0,48.143h47.215v47.215h-47.215Zm0,48.143h47.215v47.215h-47.215Zm-48.144-385.144h47.216v47.215h-47.216Zm0,48.143h47.216v47.215h-47.216Zm0,48.143h47.216v47.215h-47.216Zm0,48.143h47.216V4809h-47.216Zm0,48.143h47.216v47.215h-47.216Zm0,48.143h47.216v47.215h-47.216Zm0,48.143h47.216v47.215h-47.216Zm0,48.143h47.216v47.215h-47.216Zm0,48.143h47.216v47.215h-47.216Zm-48.143-385.144h47.215v47.215h-47.215Zm0,48.143h47.215v47.215h-47.215Zm0,48.143h47.215v47.215h-47.215Zm0,48.143h47.215V4809h-47.215Zm0,48.143h47.215v47.215h-47.215Zm0,48.143h47.215v47.215h-47.215Zm0,48.143h47.215v47.215h-47.215Zm0,48.143h47.215v47.215h-47.215Zm0,48.143h47.215v47.215h-47.215Zm-48.143-385.144h47.216v47.215h-47.216Zm0,48.142h47.216v47.216h-47.216Zm0,48.144h47.216v47.215h-47.216Zm0,48.142h47.216V4809h-47.216Zm0,48.144h47.216v47.215h-47.216Zm0,48.142h47.216v47.216h-47.216Zm0,48.144h47.216v47.215h-47.216Zm0,48.142h47.216v47.216h-47.216Zm0,48.144h47.216v47.215h-47.216Zm-48.143-385.144h47.215v47.215h-47.215Zm0,48.142h47.215v47.216h-47.215Zm0,48.144h47.215v47.215h-47.215Zm0,48.142h47.215V4809h-47.215Zm0,48.144h47.215v47.215h-47.215Zm0,48.142h47.215v47.216h-47.215Zm0,48.144h47.215v47.215h-47.215Zm0,48.142h47.215v47.216h-47.215Zm0,48.144h47.215v47.215h-47.215Zm-48.143-385.145h47.216v47.216h-47.216Zm0,48.143h47.216v47.215h-47.216Zm0,48.143h47.216v47.216h-47.216Zm0,48.143h47.216V4809h-47.216Zm0,48.143h47.216v47.216h-47.216Zm0,48.143h47.216v47.215h-47.216Zm0,48.143h47.216v47.216h-47.216Zm0,48.143h47.216v47.215h-47.216Zm0,48.143h47.216v47.216h-47.216Zm-48.143-385.144h47.215v47.216h-47.215Zm0,48.143h47.215v47.215h-47.215Zm0,48.143h47.215v47.216h-47.215Zm0,48.143h47.215V4809h-47.215Zm0,48.143h47.215v47.216h-47.215Zm0,48.143h47.215v47.215h-47.215Zm0,48.143h47.215v47.216h-47.215Zm0,48.143h47.215v47.215h-47.215Zm0,48.143h47.215v47.216h-47.215Zm-48.143-385.144h47.217v47.215h-47.215Zm0,48.143h47.217v47.215h-47.215Zm0,48.143h47.217v47.215h-47.215Zm0,48.143h47.217V4809h-47.215Zm0,48.143h47.217v47.215h-47.215Zm0,48.143h47.217v47.215h-47.215Zm0,48.143h47.217v47.215h-47.215Zm0,48.143h47.217v47.215h-47.215Zm0,48.143h47.217v47.215h-47.215Zm-48.143-385.144h47.215v47.215H-3652.5Zm0,48.143h47.215v47.215H-3652.5Zm0,48.143h47.215v47.215H-3652.5Zm0,48.143h47.215V4809H-3652.5Zm0,48.143h47.215v47.215H-3652.5Zm0,48.143h47.215v47.215H-3652.5Zm0,48.143h47.215v47.215H-3652.5Zm0,48.143h47.215v47.215H-3652.5Zm0,48.143h47.215v47.215H-3652.5Z"/></g><rect class="f" width="1.852" height="1.852" transform="translate(-3605.74 4712.248)"/><rect class="f" width="1.852" height="1.852" transform="translate(-3581.669 4736.32)"/><rect class="f" width="1.852" height="1.852" transform="translate(-3605.74 4664.105)"/><rect class="f" width="1.852" height="1.852" transform="translate(-3581.669 4688.177)"/><rect class="f" width="1.852" height="1.852" transform="translate(-3629.812 4640.034)"/><rect class="f" width="1.852" height="1.852" transform="translate(-3653.884 4712.248)"/><rect class="f" width="1.852" height="1.852" transform="translate(-3629.812 4736.32)"/><rect class="f" width="1.852" height="1.852" transform="translate(-3653.884 4664.105)"/><rect class="f" width="1.852" height="1.852" transform="translate(-3629.812 4688.177)"/><rect class="f" width="1.852" height="1.852" transform="translate(-3533.526 4640.034)"/><rect class="f" width="1.852" height="1.852" transform="translate(-3581.669 4640.034)"/><rect class="f" width="1.852" height="1.852" transform="translate(-3533.526 4688.177)"/><rect class="f" width="1.852" height="1.852" transform="translate(-3533.526 4736.32)"/><rect class="f" width="1.852" height="1.852" transform="translate(-3557.598 4712.248)"/><rect class="f" width="1.852" height="1.852" transform="translate(-3557.598 4664.105)"/><path class="f" d="M-3652.5,4612.724h-.926v3.7h-3.7v.926h3.7v3.7h.926v-3.7h3.7v-.926h-3.7Z"/><rect class="f" width="1.852" height="1.852" transform="translate(-3461.312 4712.248)"/><rect class="f" width="1.852" height="1.852" transform="translate(-3461.312 4664.105)"/><rect class="f" width="1.852" height="1.852" transform="translate(-3485.383 4640.034)"/><rect class="f" width="1.852" height="1.852" transform="translate(-3509.454 4712.248)"/><rect class="f" width="1.852" height="1.852" transform="translate(-3509.454 4664.105)"/><rect class="f" width="1.852" height="1.852" transform="translate(-3389.097 4640.034)"/><rect class="f" width="1.852" height="1.852" transform="translate(-3437.24 4640.034)"/><rect class="f" width="1.852" height="1.852" transform="translate(-3413.168 4712.248)"/><rect class="f" width="1.852" height="1.852" transform="translate(-3413.168 4664.105)"/><path class="f" d="M-3508.066,4612.724h-.925v3.7h-3.7v.926h3.7v3.7h.925v-3.7h3.7v-.926h-3.7Z"/><rect class="f" width="1.852" height="1.852" transform="translate(-3316.882 4712.248)"/><rect class="f" width="1.852" height="1.852" transform="translate(-3316.882 4664.105)"/><rect class="f" width="1.852" height="1.852" transform="translate(-3340.954 4640.034)"/><rect class="f" width="1.852" height="1.852" transform="translate(-3365.026 4712.248)"/><rect class="f" width="1.852" height="1.852" transform="translate(-3365.026 4664.105)"/><rect class="f" width="1.852" height="1.852" transform="translate(-3244.668 4640.034)"/><rect class="f" width="1.852" height="1.852" transform="translate(-3220.596 4712.248)"/><rect class="f" width="1.852" height="1.852" transform="translate(-3220.596 4664.105)"/><rect class="f" width="1.852" height="1.852" transform="translate(-3292.811 4640.034)"/><rect class="f" width="1.852" height="1.852" transform="translate(-3268.739 4712.248)"/><rect class="f" width="1.852" height="1.852" transform="translate(-3268.739 4664.105)"/><path class="f" d="M-3219.208,4616.427v-3.7h-.924v3.7h-3.7v.926h3.7v3.7h.926v-3.7h3.7v-.926Z"/><path class="f" d="M-3363.637,4612.724h-.926v3.7h-3.7v.926h3.7v3.7h.926v-3.7h3.7v-.926h-3.7Z"/><rect class="f" width="1.852" height="1.852" transform="translate(-3605.74 4856.677)"/><rect class="f" width="1.852" height="1.852" transform="translate(-3605.74 4760.391)"/><rect class="f" width="1.852" height="1.852" transform="translate(-3605.74 4808.535)"/><rect class="f" width="1.852" height="1.852" transform="translate(-3629.812 4784.463)"/><rect class="f" width="1.852" height="1.852" transform="translate(-3653.884 4856.677)"/><rect class="f" width="1.852" height="1.852" transform="translate(-3653.884 4808.535)"/><rect class="f" width="1.852" height="1.852" transform="translate(-3533.526 4784.463)"/><rect class="f" width="1.852" height="1.852" transform="translate(-3581.669 4784.463)"/><rect class="f" width="1.852" height="1.852" transform="translate(-3557.598 4856.677)"/><rect class="f" width="1.852" height="1.852" transform="translate(-3557.598 4808.535)"/><rect class="f" width="1.852" height="1.852" transform="translate(-3557.598 4760.391)"/><rect class="f" width="1.852" height="1.852" transform="translate(-3461.312 4856.677)"/><rect class="f" width="1.852" height="1.852" transform="translate(-3461.312 4760.391)"/><rect class="f" width="1.852" height="1.852" transform="translate(-3437.24 4880.749)"/><rect class="f" width="1.852" height="1.852" transform="translate(-3461.312 4808.535)"/><rect class="f" width="1.852" height="1.852" transform="translate(-3437.24 4832.606)"/><rect class="f" width="1.852" height="1.852" transform="translate(-3509.454 4856.677)"/><rect class="f" width="1.852" height="1.852" transform="translate(-3485.383 4880.749)"/><rect class="f" width="1.852" height="1.852" transform="translate(-3509.454 4808.535)"/><rect class="f" width="1.852" height="1.852" transform="translate(-3485.383 4832.606)"/><rect class="f" width="1.852" height="1.852" transform="translate(-3389.097 4832.606)"/><rect class="f" width="1.852" height="1.852" transform="translate(-3389.097 4880.749)"/><rect class="f" width="1.852" height="1.852" transform="translate(-3413.168 4856.677)"/><rect class="f" width="1.852" height="1.852" transform="translate(-3413.168 4808.535)"/><rect class="f" width="1.852" height="1.852" transform="translate(-3413.168 4760.391)"/><rect class="f" width="1.852" height="1.852" transform="translate(-3316.882 4856.677)"/><rect class="f" width="1.852" height="1.852" transform="translate(-3316.882 4760.391)"/><rect class="f" width="1.852" height="1.852" transform="translate(-3292.811 4880.749)"/><rect class="f" width="1.852" height="1.852" transform="translate(-3316.882 4808.535)"/><rect class="f" width="1.852" height="1.852" transform="translate(-3292.811 4832.606)"/><rect class="f" width="1.852" height="1.852" transform="translate(-3365.026 4856.677)"/><rect class="f" width="1.852" height="1.852" transform="translate(-3365.026 4808.535)"/><rect class="f" width="1.852" height="1.852" transform="translate(-3220.596 4856.677)"/><rect class="f" width="1.852" height="1.852" transform="translate(-3220.596 4808.535)"/><rect class="f" width="1.852" height="1.852" transform="translate(-3244.668 4832.606)"/><rect class="f" width="1.852" height="1.852" transform="translate(-3244.668 4880.749)"/><rect class="f" width="1.852" height="1.852" transform="translate(-3268.739 4856.677)"/><rect class="f" width="1.852" height="1.852" transform="translate(-3268.739 4808.535)"/><rect class="f" width="1.852" height="1.852" transform="translate(-3268.739 4760.391)"/><rect class="f" width="1.852" height="1.852" transform="translate(-3605.74 5049.25)"/><rect class="f" width="1.852" height="1.852" transform="translate(-3605.74 5001.107)"/><rect class="f" width="1.852" height="1.852" transform="translate(-3605.74 4904.821)"/><rect class="f" width="1.852" height="1.852" transform="translate(-3581.669 5025.178)"/><rect class="f" width="1.852" height="1.852" transform="translate(-3605.74 4952.963)"/><rect class="f" width="1.852" height="1.852" transform="translate(-3653.884 5001.107)"/><rect class="f" width="1.852" height="1.852" transform="translate(-3629.812 5025.178)"/><rect class="f" width="1.852" height="1.852" transform="translate(-3653.884 4952.963)"/><rect class="f" width="1.852" height="1.852" transform="translate(-3533.526 5025.178)"/><rect class="f" width="1.852" height="1.852" transform="translate(-3557.598 5049.25)"/><rect class="f" width="1.852" height="1.852" transform="translate(-3557.598 5001.107)"/><rect class="f" width="1.852" height="1.852" transform="translate(-3557.598 4952.963)"/><rect class="f" width="1.852" height="1.852" transform="translate(-3557.598 4904.821)"/><path class="f" d="M-3652.5,5046.011h-.926v3.7h-3.7v.926h3.7v3.7h.926v-3.7h3.7v-.928h-3.7Z"/><rect class="f" width="1.852" height="1.852" transform="translate(-3461.312 5049.25)"/><rect class="f" width="1.852" height="1.852" transform="translate(-3461.312 5001.107)"/><rect class="f" width="1.852" height="1.852" transform="translate(-3461.312 4904.821)"/><rect class="f" width="1.852" height="1.852" transform="translate(-3437.24 5025.178)"/><rect class="f" width="1.852" height="1.852" transform="translate(-3461.312 4952.963)"/><rect class="f" width="1.852" height="1.852" transform="translate(-3509.454 5001.107)"/><rect class="f" width="1.852" height="1.852" transform="translate(-3485.383 5025.178)"/><rect class="f" width="1.852" height="1.852" transform="translate(-3509.454 4952.963)"/><rect class="f" width="1.852" height="1.852" transform="translate(-3389.097 5025.178)"/><rect class="f" width="1.852" height="1.852" transform="translate(-3413.168 5049.25)"/><rect class="f" width="1.852" height="1.852" transform="translate(-3413.168 5001.107)"/><rect class="f" width="1.852" height="1.852" transform="translate(-3413.168 4952.963)"/><rect class="f" width="1.852" height="1.852" transform="translate(-3413.168 4904.821)"/><path class="f" d="M-3508.066,5046.011h-.925v3.7h-3.7v.926h3.7v3.7h.925v-3.7h3.7v-.928h-3.7Z"/><rect class="f" width="1.852" height="1.852" transform="translate(-3316.882 5049.25)"/><rect class="f" width="1.852" height="1.852" transform="translate(-3316.882 5001.107)"/><rect class="f" width="1.852" height="1.852" transform="translate(-3316.882 4904.821)"/><rect class="f" width="1.852" height="1.852" transform="translate(-3292.811 5025.178)"/><rect class="f" width="1.852" height="1.852" transform="translate(-3316.882 4952.963)"/><rect class="f" width="1.852" height="1.852" transform="translate(-3365.026 5001.107)"/><rect class="f" width="1.852" height="1.852" transform="translate(-3340.954 5025.178)"/><rect class="f" width="1.852" height="1.852" transform="translate(-3365.026 4952.963)"/><rect class="f" width="1.852" height="1.852" transform="translate(-3220.596 5001.107)"/><rect class="f" width="1.852" height="1.852" transform="translate(-3220.596 4952.963)"/><rect class="f" width="1.852" height="1.852" transform="translate(-3244.668 5025.178)"/><rect class="f" width="1.852" height="1.852" transform="translate(-3268.739 5049.25)"/><rect class="f" width="1.852" height="1.852" transform="translate(-3268.739 5001.107)"/><rect class="f" width="1.852" height="1.852" transform="translate(-3268.739 4952.963)"/><rect class="f" width="1.852" height="1.852" transform="translate(-3268.739 4904.821)"/><path class="f" d="M-3219.208,5046.011h-.924v3.7h-3.7v.926h3.7v3.7h.926v-3.7h3.7v-.928h-3.7Z"/><path class="f" d="M-3363.637,5046.011h-.926v3.7h-3.7v.926h3.7v3.7h.926v-3.7h3.7v-.928h-3.7Z"/><g class="g"><circle class="f" cx="5.121" cy="5.121" r="5.121" transform="translate(-3368.966 4756.299)"/></g><circle class="f" cx="3.072" cy="3.072" r="3.072" transform="translate(-3366.918 4758.347)"/><g class="g"><circle class="f" cx="5.121" cy="5.121" r="5.121" transform="translate(-3368.966 4900.651)"/></g><circle class="f" cx="3.072" cy="3.072" r="3.072" transform="translate(-3366.918 4902.699)"/><path class="f" d="M-3363.686,4906.021h-144.562v-.6h143.961v-144h.6Z"/><g class="g"><circle class="h" cx="5.121" cy="5.121" r="5.121" transform="translate(-3513.319 4900.651)"/></g><circle class="h" cx="3.072" cy="3.072" r="3.072" transform="translate(-3511.27 4902.699)"/></g><rect class="i" width="153.374" height="131.722" transform="translate(-3662.826 4677.163)"/><rect class="i" width="153.374" height="94.43" transform="translate(-3315.178 4810.087)"/><g class="e"><rect class="j" width="145.555" height="97.438" transform="translate(-3508.851 4808.884)"/></g><rect class="f" width="0.601" height="91.423" transform="translate(-3508.952 4905.72)"/><circle class="h" cx="3.312" cy="3.312" r="3.312" transform="translate(-3511.614 4902.479)"/><rect class="a" width="768" height="320" transform="translate(-4086.086 4677.163)"/></g></g></svg>