<svg xmlns="http://www.w3.org/2000/svg" xmlns:xlink="http://www.w3.org/1999/xlink" width="768" height="400" viewBox="0 0 768 400"><defs><style>.a{fill:none;}.b{fill:#181826;}.c{clip-path:url(#a);}.d{opacity:0.15;}.d,.f{isolation:isolate;}.e{fill:#fff;}.f{opacity:0.5;}.g{fill:#68d656;}.h{fill:#171727;}.i{fill:#54c83d;}</style><clipPath id="a"><rect class="a" width="360" height="400" transform="translate(-1555.372 1875.163)"/></clipPath></defs><g transform="translate(1759.372 -1875.163)"><rect class="b" width="768" height="400" transform="translate(-1759.372 1875.163)"/><g class="c"><g class="d"><path class="e" d="M-1543.56,2404.637h386.071V1970.423H-1591.7v434.214Zm337.928-433.287h47.215v47.215h-47.215Zm0,48.142h47.215v47.216h-47.215Zm0,48.144h47.215v47.215h-47.215Zm0,48.142h47.215v47.216h-47.215Zm0,48.144h47.215v47.215h-47.215Zm0,48.142h47.215v47.216h-47.215Zm0,48.144h47.215v47.215h-47.215Zm0,48.142h47.215v47.216h-47.215Zm0,48.144h47.215v47.215h-47.215Zm-48.143-385.144h47.215v47.215h-47.215Zm0,48.142h47.215v47.216h-47.215Zm0,48.144h47.215v47.215h-47.215Zm0,48.142h47.215v47.216h-47.215Zm0,48.144h47.215v47.215h-47.215Zm0,48.142h47.215v47.216h-47.215Zm0,48.144h47.215v47.215h-47.215Zm0,48.142h47.215v47.216h-47.215Zm0,48.144h47.215v47.215h-47.215Zm-48.144-385.145h47.216v47.216h-47.216Zm0,48.143h47.216v47.215h-47.216Zm0,48.143h47.216v47.216h-47.216Zm0,48.143h47.216v47.215h-47.216Zm0,48.143h47.216v47.216h-47.216Zm0,48.143h47.216v47.215h-47.216Zm0,48.143h47.216v47.216h-47.216Zm0,48.143h47.216v47.215h-47.216Zm0,48.143h47.216v47.216h-47.216Zm-48.142-385.144h47.215v47.216h-47.215Zm0,48.143h47.215v47.215h-47.215Zm0,48.143h47.215v47.216h-47.215Zm0,48.143h47.215v47.215h-47.215Zm0,48.143h47.215v47.216h-47.215Zm0,48.143h47.215v47.215h-47.215Zm0,48.143h47.215v47.216h-47.215Zm0,48.143h47.215v47.215h-47.215Zm0,48.143h47.215v47.216h-47.215Zm-48.144-385.144h47.216v47.215H-1398.2Zm0,48.143h47.216v47.215H-1398.2Zm0,48.143h47.216v47.215H-1398.2Zm0,48.143h47.216v47.215H-1398.2Zm0,48.143h47.216v47.215H-1398.2Zm0,48.143h47.216v47.215H-1398.2Zm0,48.143h47.216v47.215H-1398.2Zm0,48.143h47.216v47.215H-1398.2Zm0,48.143h47.216v47.215H-1398.2Zm-48.142-385.144h47.215v47.215h-47.215Zm0,48.143h47.215v47.215h-47.215Zm0,48.143h47.215v47.215h-47.215Zm0,48.143h47.215v47.215h-47.215Zm0,48.143h47.215v47.215h-47.215Zm0,48.143h47.215v47.215h-47.215Zm0,48.143h47.215v47.215h-47.215Zm0,48.143h47.215v47.215h-47.215Zm0,48.143h47.215v47.215h-47.215Zm-48.144-385.144h47.216v47.215h-47.216Zm0,48.143h47.216v47.215h-47.216Zm0,48.143h47.216v47.215h-47.216Zm0,48.143h47.216v47.215h-47.216Zm0,48.143h47.216v47.215h-47.216Zm0,48.143h47.216v47.215h-47.216Zm0,48.143h47.216v47.215h-47.216Zm0,48.143h47.216v47.215h-47.216Zm0,48.143h47.216v47.215h-47.216Zm-48.142-385.144h47.217v47.215h-47.215Zm0,48.142h47.217v47.216h-47.215Zm0,48.144h47.217v47.215h-47.215Zm0,48.142h47.217v47.216h-47.215Zm0,48.144h47.217v47.215h-47.215Zm0,48.142h47.217v47.216h-47.215Zm0,48.144h47.217v47.215h-47.215Zm0,48.142h47.217v47.216h-47.215Zm0,48.144h47.217v47.215h-47.215Zm-48.144-385.144h47.216v47.215h-47.216Zm0,48.142h47.216v47.216h-47.216Zm0,48.144h47.216v47.215h-47.216Zm0,48.142h47.216v47.216h-47.216Zm0,48.144h47.216v47.215h-47.216Zm0,48.142h47.216v47.216h-47.216Zm0,48.144h47.216v47.215h-47.216Zm0,48.142h47.216v47.216h-47.216Zm0,48.144h47.216v47.215h-47.216Z"/></g><rect class="e" width="1.852" height="1.852" transform="translate(-1544.022 2066.245)"/><rect class="e" width="1.852" height="1.852" transform="translate(-1519.951 2090.316)"/><rect class="e" width="1.852" height="1.852" transform="translate(-1544.022 2018.102)"/><rect class="e" width="1.852" height="1.852" transform="translate(-1519.951 2042.173)"/><rect class="e" width="1.852" height="1.852" transform="translate(-1568.094 1994.031)"/><rect class="e" width="1.852" height="1.852" transform="translate(-1592.165 2066.245)"/><rect class="e" width="1.852" height="1.852" transform="translate(-1568.094 2090.316)"/><rect class="e" width="1.852" height="1.852" transform="translate(-1592.165 2018.102)"/><rect class="e" width="1.852" height="1.852" transform="translate(-1568.094 2042.173)"/><rect class="e" width="1.852" height="1.852" transform="translate(-1471.807 1994.031)"/><rect class="e" width="1.852" height="1.852" transform="translate(-1519.951 1994.031)"/><rect class="e" width="1.852" height="1.852" transform="translate(-1471.807 2042.173)"/><rect class="e" width="1.852" height="1.852" transform="translate(-1471.807 2090.316)"/><rect class="e" width="1.852" height="1.852" transform="translate(-1495.879 2066.245)"/><rect class="e" width="1.852" height="1.852" transform="translate(-1495.879 2018.102)"/><rect class="e" width="1.852" height="1.852" transform="translate(-1399.593 2066.245)"/><rect class="e" width="1.852" height="1.852" transform="translate(-1399.593 2018.102)"/><rect class="e" width="1.852" height="1.852" transform="translate(-1423.665 1994.031)"/><rect class="e" width="1.852" height="1.852" transform="translate(-1447.736 2066.245)"/><rect class="e" width="1.852" height="1.852" transform="translate(-1447.736 2018.102)"/><rect class="e" width="1.852" height="1.852" transform="translate(-1327.379 1994.031)"/><rect class="e" width="1.852" height="1.852" transform="translate(-1375.521 1994.031)"/><rect class="e" width="1.852" height="1.852" transform="translate(-1351.45 2066.245)"/><rect class="e" width="1.852" height="1.852" transform="translate(-1351.45 2018.102)"/><rect class="e" width="1.852" height="1.852" transform="translate(-1255.164 2066.245)"/><rect class="e" width="1.852" height="1.852" transform="translate(-1255.164 2018.102)"/><rect class="e" width="1.852" height="1.852" transform="translate(-1279.235 1994.031)"/><rect class="e" width="1.852" height="1.852" transform="translate(-1303.307 2066.245)"/><rect class="e" width="1.852" height="1.852" transform="translate(-1303.307 2018.102)"/><rect class="e" width="1.852" height="1.852" transform="translate(-1182.949 1994.031)"/><rect class="e" width="1.852" height="1.852" transform="translate(-1158.878 2066.245)"/><rect class="e" width="1.852" height="1.852" transform="translate(-1158.878 2018.102)"/><rect class="e" width="1.852" height="1.852" transform="translate(-1231.093 1994.031)"/><rect class="e" width="1.852" height="1.852" transform="translate(-1207.021 2066.245)"/><rect class="e" width="1.852" height="1.852" transform="translate(-1207.021 2018.102)"/><rect class="e" width="1.852" height="1.852" transform="translate(-1544.022 2210.674)"/><rect class="e" width="1.852" height="1.852" transform="translate(-1544.022 2114.388)"/><rect class="e" width="1.852" height="1.852" transform="translate(-1544.022 2162.531)"/><rect class="e" width="1.852" height="1.852" transform="translate(-1568.094 2138.459)"/><rect class="e" width="1.852" height="1.852" transform="translate(-1592.165 2210.674)"/><rect class="e" width="1.852" height="1.852" transform="translate(-1592.165 2162.531)"/><rect class="e" width="1.852" height="1.852" transform="translate(-1495.879 2210.674)"/><rect class="e" width="1.852" height="1.852" transform="translate(-1495.879 2162.531)"/><rect class="e" width="1.852" height="1.852" transform="translate(-1495.879 2114.388)"/><rect class="e" width="1.852" height="1.852" transform="translate(-1399.593 2210.674)"/><rect class="e" width="1.852" height="1.852" transform="translate(-1399.593 2114.388)"/><rect class="e" width="1.852" height="1.852" transform="translate(-1375.521 2234.745)"/><rect class="e" width="1.852" height="1.852" transform="translate(-1399.593 2162.531)"/><rect class="e" width="1.852" height="1.852" transform="translate(-1375.521 2186.603)"/><rect class="e" width="1.852" height="1.852" transform="translate(-1447.736 2210.674)"/><rect class="e" width="1.852" height="1.852" transform="translate(-1423.665 2234.745)"/><rect class="e" width="1.852" height="1.852" transform="translate(-1447.736 2162.531)"/><rect class="e" width="1.852" height="1.852" transform="translate(-1423.665 2186.603)"/><rect class="e" width="1.852" height="1.852" transform="translate(-1327.379 2186.603)"/><rect class="e" width="1.852" height="1.852" transform="translate(-1327.379 2234.745)"/><rect class="e" width="1.852" height="1.852" transform="translate(-1351.45 2210.674)"/><rect class="e" width="1.852" height="1.852" transform="translate(-1351.45 2162.531)"/><rect class="e" width="1.852" height="1.852" transform="translate(-1351.45 2114.388)"/><rect class="e" width="1.852" height="1.852" transform="translate(-1255.164 2210.674)"/><rect class="e" width="1.852" height="1.852" transform="translate(-1255.164 2114.388)"/><rect class="e" width="1.852" height="1.852" transform="translate(-1255.164 2162.531)"/><rect class="e" width="1.852" height="1.852" transform="translate(-1231.093 2186.603)"/><rect class="e" width="1.852" height="1.852" transform="translate(-1303.307 2210.674)"/><rect class="e" width="1.852" height="1.852" transform="translate(-1303.307 2162.531)"/><rect class="e" width="1.852" height="1.852" transform="translate(-1158.878 2210.674)"/><rect class="e" width="1.852" height="1.852" transform="translate(-1158.878 2162.531)"/><rect class="e" width="1.852" height="1.852" transform="translate(-1182.949 2186.603)"/><rect class="e" width="1.852" height="1.852" transform="translate(-1182.949 2234.745)"/><rect class="e" width="1.852" height="1.852" transform="translate(-1207.021 2210.674)"/><rect class="e" width="1.852" height="1.852" transform="translate(-1207.021 2162.531)"/><rect class="e" width="1.852" height="1.852" transform="translate(-1207.021 2114.388)"/><rect class="e" width="1.852" height="1.852" transform="translate(-1544.022 2258.817)"/><rect class="e" width="1.852" height="1.852" transform="translate(-1495.879 2258.817)"/><rect class="e" width="1.852" height="1.852" transform="translate(-1399.593 2258.817)"/><rect class="e" width="1.852" height="1.852" transform="translate(-1351.45 2258.817)"/><rect class="e" width="1.852" height="1.852" transform="translate(-1255.164 2258.817)"/><rect class="e" width="1.852" height="1.852" transform="translate(-1207.021 2258.817)"/><g class="f"><circle class="e" cx="5.121" cy="5.121" r="5.121" transform="translate(-1307.248 2254.648)"/></g><circle class="e" cx="3.072" cy="3.072" r="3.072" transform="translate(-1305.2 2256.696)"/><path class="e" d="M-1301.968,2260.018h-144.563v-.6h143.961v-144h.6Z"/><g class="f"><circle class="g" cx="5.121" cy="5.121" r="5.121" transform="translate(-1451.601 2254.648)"/></g><circle class="g" cx="3.072" cy="3.072" r="3.072" transform="translate(-1449.552 2256.696)"/><rect class="h" width="424.335" height="155.094" transform="translate(-1601.108 1959.683)"/><rect class="h" width="153.374" height="99.942" transform="translate(-1253.46 2110.732)"/><g class="d"><rect class="i" width="145.555" height="97.438" transform="translate(-1447.133 2162.881)"/></g><rect class="e" width="0.601" height="91.423" transform="translate(-1447.233 2259.717)"/><circle class="g" cx="3.312" cy="3.312" r="3.312" transform="translate(-1449.896 2256.475)"/><g class="f"><circle class="e" cx="5.121" cy="5.121" r="5.121" transform="translate(-1307.248 2110.295)"/></g><circle class="e" cx="3.072" cy="3.072" r="3.072" transform="translate(-1305.2 2112.344)"/><rect class="h" width="153.374" height="99.942" transform="translate(-1649.254 2212.064)"/></g></g></svg>