<svg xmlns="http://www.w3.org/2000/svg" xmlns:xlink="http://www.w3.org/1999/xlink" width="1920" height="532" viewBox="0 0 1920 532"><defs><style>.a,.g,.l{fill:none;}.b{fill:#181826;}.c{clip-path:url(#a);}.d,.e,.f{fill:#fff;}.d,.k{opacity:0.15;}.d,.f,.h,.k{isolation:isolate;}.f,.h{opacity:0.5;}.g,.l{stroke:#fff;}.g{stroke-miterlimit:10;}.h,.i{fill:#68d656;}.j{fill:#171727;}.k{fill:#54c83d;}</style><clipPath id="a"><rect class="a" width="1920" height="532" transform="translate(-9853.442 5342.853)"/></clipPath></defs><g transform="translate(9853.442 -5342.853)"><rect class="b" width="1920" height="532" transform="translate(-9853.442 5342.853)"/><g class="c"><path class="d" d="M-8740.763,5963.8h641.88V5241.874H-8820.8V5963.8Zm561.838-720.383h78.5v78.5h-78.5Zm0,80.042h78.5v78.5h-78.5Zm0,80.043h78.5V5482h-78.5Zm0,80.042h78.5v78.5h-78.5Zm0,80.043h78.5v78.5h-78.5Zm0,80.042h78.5v78.5h-78.5Zm0,80.043h78.5v78.5h-78.5Zm0,80.042h78.5v78.5h-78.5Zm0,80.043h78.5v78.5h-78.5Zm-80.043-640.34h78.5v78.5h-78.5Zm0,80.042h78.5v78.5h-78.5Zm0,80.043h78.5V5482h-78.5Zm0,80.042h78.5v78.5h-78.5Zm0,80.042h78.5v78.5h-78.5Zm0,80.042h78.5v78.5h-78.5Zm0,80.043h78.5v78.5h-78.5Zm0,80.042h78.5v78.5h-78.5Zm0,80.043h78.5v78.5h-78.5Zm-80.043-640.34h78.5v78.5h-78.5Zm0,80.042h78.5v78.5h-78.5Zm0,80.043h78.5V5482h-78.5Zm0,80.042h78.5v78.5h-78.5Zm0,80.043h78.5v78.5h-78.5Zm0,80.042h78.5v78.5h-78.5Zm0,80.043h78.5v78.5h-78.5Zm0,80.042h78.5v78.5h-78.5Zm0,80.043h78.5v78.5h-78.5Zm-80.042-640.34h78.5v78.5h-78.5Zm0,80.042h78.5v78.5h-78.5Zm0,80.043h78.5V5482h-78.5Zm0,80.042h78.5v78.5h-78.5Zm0,80.043h78.5v78.5h-78.5Zm0,80.042h78.5v78.5h-78.5Zm0,80.043h78.5v78.5h-78.5Zm0,80.042h78.5v78.5h-78.5Zm0,80.043h78.5v78.5h-78.5Zm-80.043-640.34h78.5v78.5h-78.5Zm0,80.042h78.5v78.5h-78.5Zm0,80.043h78.5V5482h-78.5Zm0,80.042h78.5v78.5h-78.5Zm0,80.043h78.5v78.5h-78.5Zm0,80.042h78.5v78.5h-78.5Zm0,80.043h78.5v78.5h-78.5Zm0,80.042h78.5v78.5h-78.5Zm0,80.043h78.5v78.5h-78.5Zm-80.042-640.34h78.5v78.5h-78.5Zm0,80.042h78.5v78.5h-78.5Zm0,80.043h78.5V5482h-78.5Zm0,80.042h78.5v78.5h-78.5Zm0,80.042h78.5v78.5h-78.5Zm0,80.042h78.5v78.5h-78.5Zm0,80.043h78.5v78.5h-78.5Zm0,80.042h78.5v78.5h-78.5Zm0,80.043h78.5v78.5h-78.5Zm-80.043-640.34h78.5v78.5h-78.5Zm0,80.042h78.5v78.5h-78.5Zm0,80.043h78.5V5482h-78.5Zm0,80.042h78.5v78.5h-78.5Zm0,80.043h78.5v78.5h-78.5Zm0,80.042h78.5v78.5h-78.5Zm0,80.043h78.5v78.5h-78.5Zm0,80.042h78.5v78.5h-78.5Zm0,80.043h78.5v78.5h-78.5Zm-80.042-640.34h78.5v78.5h-78.5Zm0,80.042h78.5v78.5h-78.5Zm0,80.043h78.5V5482h-78.5Zm0,80.042h78.5v78.5h-78.5Zm0,80.043h78.5v78.5h-78.5Zm0,80.042h78.5v78.5h-78.5Zm0,80.043h78.5v78.5h-78.5Zm0,80.042h78.5v78.5h-78.5Zm0,80.043h78.5v78.5h-78.5Zm-80.043-640.34h78.5v78.5h-78.5Zm0,80.042h78.5v78.5h-78.5Zm0,80.043h78.5V5482h-78.5Zm0,80.042h78.5v78.5h-78.5Zm0,80.043h78.5v78.5h-78.5Zm0,80.042h78.5v78.5h-78.5Zm0,80.043h78.5v78.5h-78.5Zm0,80.042h78.5v78.5h-78.5Zm0,80.043h78.5v78.5h-78.5Z"/><rect class="e" width="3.079" height="3.079" transform="translate(-8741.532 5401.186)"/><rect class="e" width="3.079" height="3.079" transform="translate(-8701.511 5441.208)"/><rect class="e" width="3.079" height="3.079" transform="translate(-8741.532 5321.144)"/><rect class="e" width="3.079" height="3.079" transform="translate(-8701.511 5361.165)"/><rect class="e" width="3.079" height="3.079" transform="translate(-8781.553 5281.123)"/><rect class="e" width="3.079" height="3.079" transform="translate(-8821.575 5401.186)"/><rect class="e" width="3.079" height="3.079" transform="translate(-8781.553 5441.208)"/><rect class="e" width="3.079" height="3.079" transform="translate(-8821.575 5321.144)"/><rect class="e" width="3.079" height="3.079" transform="translate(-8781.553 5361.165)"/><rect class="e" width="3.079" height="3.079" transform="translate(-8621.468 5281.123)"/><rect class="e" width="3.079" height="3.079" transform="translate(-8701.511 5281.123)"/><rect class="e" width="3.079" height="3.079" transform="translate(-8621.468 5361.165)"/><rect class="e" width="3.079" height="3.079" transform="translate(-8621.468 5441.208)"/><rect class="e" width="3.079" height="3.079" transform="translate(-8661.49 5401.186)"/><rect class="e" width="3.079" height="3.079" transform="translate(-8661.49 5321.144)"/><path class="e" d="M-8819.266,5235.717h-1.539v6.157h-6.157v1.539h6.157v6.157h1.539v-6.157h6.156v-1.539h-6.156Z"/><rect class="e" width="3.079" height="3.079" transform="translate(-8501.405 5401.186)"/><rect class="e" width="3.079" height="3.079" transform="translate(-8501.405 5321.144)"/><rect class="e" width="3.079" height="3.079" transform="translate(-8541.426 5281.123)"/><rect class="e" width="3.079" height="3.079" transform="translate(-8581.447 5401.186)"/><rect class="e" width="3.079" height="3.079" transform="translate(-8581.447 5321.144)"/><rect class="e" width="3.079" height="3.079" transform="translate(-8381.341 5281.123)"/><rect class="e" width="3.079" height="3.079" transform="translate(-8461.383 5281.123)"/><rect class="e" width="3.079" height="3.079" transform="translate(-8421.362 5401.186)"/><rect class="e" width="3.079" height="3.079" transform="translate(-8421.362 5321.144)"/><path class="e" d="M-8579.138,5235.717h-1.539v6.157h-6.157v1.539h6.157v6.157h1.539v-6.157h6.156v-1.539h-6.156Z"/><rect class="e" width="3.079" height="3.079" transform="translate(-8261.277 5401.186)"/><rect class="e" width="3.079" height="3.079" transform="translate(-8261.277 5321.144)"/><rect class="e" width="3.079" height="3.079" transform="translate(-8301.298 5281.123)"/><rect class="e" width="3.079" height="3.079" transform="translate(-8341.32 5401.186)"/><rect class="e" width="3.079" height="3.079" transform="translate(-8341.32 5321.144)"/><rect class="e" width="3.079" height="3.079" transform="translate(-8141.213 5281.123)"/><rect class="e" width="3.079" height="3.079" transform="translate(-8101.192 5401.186)"/><rect class="e" width="3.079" height="3.079" transform="translate(-8101.192 5321.144)"/><rect class="e" width="3.079" height="3.079" transform="translate(-8221.256 5281.123)"/><rect class="e" width="3.079" height="3.079" transform="translate(-8181.234 5401.186)"/><rect class="e" width="3.079" height="3.079" transform="translate(-8181.234 5321.144)"/><path class="e" d="M-8098.883,5241.874v-6.157h-1.537v6.157h-6.157v1.539h6.157v6.157h1.539v-6.157h6.157v-1.539Z"/><path class="e" d="M-8339.011,5235.717h-1.539v6.157h-6.157v1.539h6.157v6.157h1.539v-6.157h6.157v-1.539h-6.157Z"/><rect class="e" width="3.079" height="3.079" transform="translate(-8741.532 5641.314)"/><rect class="e" width="3.079" height="3.079" transform="translate(-8741.532 5481.229)"/><rect class="e" width="3.079" height="3.079" transform="translate(-8741.532 5561.271)"/><rect class="e" width="3.079" height="3.079" transform="translate(-8781.553 5521.25)"/><rect class="e" width="3.079" height="3.079" transform="translate(-8821.575 5641.314)"/><rect class="e" width="3.079" height="3.079" transform="translate(-8821.575 5561.271)"/><rect class="e" width="3.079" height="3.079" transform="translate(-8621.468 5521.25)"/><rect class="e" width="3.079" height="3.079" transform="translate(-8701.511 5521.25)"/><rect class="e" width="3.079" height="3.079" transform="translate(-8661.49 5641.314)"/><rect class="e" width="3.079" height="3.079" transform="translate(-8661.49 5561.271)"/><rect class="e" width="3.079" height="3.079" transform="translate(-8661.49 5481.229)"/><rect class="e" width="3.079" height="3.079" transform="translate(-8501.405 5641.314)"/><rect class="e" width="3.079" height="3.079" transform="translate(-8501.405 5481.229)"/><rect class="e" width="3.079" height="3.079" transform="translate(-8461.383 5681.335)"/><rect class="e" width="3.079" height="3.079" transform="translate(-8501.405 5561.271)"/><rect class="e" width="3.079" height="3.079" transform="translate(-8461.383 5601.292)"/><rect class="e" width="3.079" height="3.079" transform="translate(-8581.447 5641.314)"/><rect class="e" width="3.079" height="3.079" transform="translate(-8541.426 5681.335)"/><rect class="e" width="3.079" height="3.079" transform="translate(-8581.447 5561.271)"/><rect class="e" width="3.079" height="3.079" transform="translate(-8541.426 5601.292)"/><rect class="e" width="3.079" height="3.079" transform="translate(-8381.341 5601.292)"/><rect class="e" width="3.079" height="3.079" transform="translate(-8381.341 5681.335)"/><rect class="e" width="3.079" height="3.079" transform="translate(-8421.362 5641.314)"/><rect class="e" width="3.079" height="3.079" transform="translate(-8421.362 5561.271)"/><rect class="e" width="3.079" height="3.079" transform="translate(-8421.362 5481.229)"/><rect class="e" width="3.079" height="3.079" transform="translate(-8261.277 5641.314)"/><rect class="e" width="3.079" height="3.079" transform="translate(-8261.277 5481.229)"/><rect class="e" width="3.079" height="3.079" transform="translate(-8221.256 5681.335)"/><rect class="e" width="3.079" height="3.079" transform="translate(-8261.277 5561.271)"/><rect class="e" width="3.079" height="3.079" transform="translate(-8221.256 5601.292)"/><rect class="e" width="3.079" height="3.079" transform="translate(-8341.32 5641.314)"/><rect class="e" width="3.079" height="3.079" transform="translate(-8341.32 5561.271)"/><rect class="e" width="3.079" height="3.079" transform="translate(-8101.192 5641.314)"/><rect class="e" width="3.079" height="3.079" transform="translate(-8101.192 5561.271)"/><rect class="e" width="3.079" height="3.079" transform="translate(-8141.213 5601.292)"/><rect class="e" width="3.079" height="3.079" transform="translate(-8141.213 5681.335)"/><rect class="e" width="3.079" height="3.079" transform="translate(-8181.234 5641.314)"/><rect class="e" width="3.079" height="3.079" transform="translate(-8181.234 5561.271)"/><rect class="e" width="3.079" height="3.079" transform="translate(-8181.234 5481.229)"/><rect class="e" width="3.079" height="3.079" transform="translate(-8741.532 5961.484)"/><rect class="e" width="3.079" height="3.079" transform="translate(-8741.532 5881.442)"/><rect class="e" width="3.079" height="3.079" transform="translate(-8741.532 5721.357)"/><rect class="e" width="3.079" height="3.079" transform="translate(-8701.511 5921.463)"/><rect class="e" width="3.079" height="3.079" transform="translate(-8741.532 5801.399)"/><rect class="e" width="3.079" height="3.079" transform="translate(-8821.575 5881.442)"/><rect class="e" width="3.079" height="3.079" transform="translate(-8781.553 5921.463)"/><rect class="e" width="3.079" height="3.079" transform="translate(-8821.575 5801.399)"/><rect class="e" width="3.079" height="3.079" transform="translate(-8621.468 5921.463)"/><rect class="e" width="3.079" height="3.079" transform="translate(-8661.49 5961.484)"/><rect class="e" width="3.079" height="3.079" transform="translate(-8661.49 5881.442)"/><rect class="e" width="3.079" height="3.079" transform="translate(-8661.49 5801.399)"/><rect class="e" width="3.079" height="3.079" transform="translate(-8661.49 5721.357)"/><path class="e" d="M-8819.266,5956.1h-1.539v6.157h-6.157v1.539h6.157v6.157h1.539V5963.8h6.156v-1.543h-6.156Z"/><rect class="e" width="3.079" height="3.079" transform="translate(-8501.405 5961.484)"/><rect class="e" width="3.079" height="3.079" transform="translate(-8501.405 5881.442)"/><rect class="e" width="3.079" height="3.079" transform="translate(-8501.405 5721.357)"/><rect class="e" width="3.079" height="3.079" transform="translate(-8461.383 5921.463)"/><rect class="e" width="3.079" height="3.079" transform="translate(-8501.405 5801.399)"/><rect class="e" width="3.079" height="3.079" transform="translate(-8581.447 5881.442)"/><rect class="e" width="3.079" height="3.079" transform="translate(-8541.426 5921.463)"/><rect class="e" width="3.079" height="3.079" transform="translate(-8581.447 5801.399)"/><rect class="e" width="3.079" height="3.079" transform="translate(-8381.341 5921.463)"/><rect class="e" width="3.079" height="3.079" transform="translate(-8421.362 5961.484)"/><rect class="e" width="3.079" height="3.079" transform="translate(-8421.362 5881.442)"/><rect class="e" width="3.079" height="3.079" transform="translate(-8421.362 5801.399)"/><rect class="e" width="3.079" height="3.079" transform="translate(-8421.362 5721.357)"/><path class="e" d="M-8579.138,5956.1h-1.539v6.157h-6.157v1.539h6.157v6.157h1.539V5963.8h6.156v-1.543h-6.156Z"/><rect class="e" width="3.079" height="3.079" transform="translate(-8261.277 5961.484)"/><rect class="e" width="3.079" height="3.079" transform="translate(-8261.277 5881.442)"/><rect class="e" width="3.079" height="3.079" transform="translate(-8261.277 5721.357)"/><rect class="e" width="3.079" height="3.079" transform="translate(-8221.256 5921.463)"/><rect class="e" width="3.079" height="3.079" transform="translate(-8261.277 5801.399)"/><rect class="e" width="3.079" height="3.079" transform="translate(-8341.32 5881.442)"/><rect class="e" width="3.079" height="3.079" transform="translate(-8301.298 5921.463)"/><rect class="e" width="3.079" height="3.079" transform="translate(-8341.32 5801.399)"/><rect class="e" width="3.079" height="3.079" transform="translate(-8101.192 5881.442)"/><rect class="e" width="3.079" height="3.079" transform="translate(-8101.192 5801.399)"/><rect class="e" width="3.079" height="3.079" transform="translate(-8141.213 5921.463)"/><rect class="e" width="3.079" height="3.079" transform="translate(-8181.234 5961.484)"/><rect class="e" width="3.079" height="3.079" transform="translate(-8181.234 5881.442)"/><rect class="e" width="3.079" height="3.079" transform="translate(-8181.234 5801.399)"/><rect class="e" width="3.079" height="3.079" transform="translate(-8181.234 5721.357)"/><path class="e" d="M-8098.883,5956.1h-1.537v6.157h-6.157v1.539h6.157v6.157h1.539V5963.8h6.157v-1.543h-6.157Z"/><path class="e" d="M-8339.011,5956.1h-1.539v6.157h-6.157v1.539h6.157v6.157h1.539V5963.8h6.157v-1.543h-6.157Z"/><circle class="f" cx="8.514" cy="8.514" r="8.514" transform="translate(-8347.872 5474.425)"/><circle class="e" cx="5.108" cy="5.108" r="5.108" transform="translate(-8344.467 5477.83)"/><circle class="f" cx="8.514" cy="8.514" r="8.514" transform="translate(-8347.872 5714.425)"/><circle class="e" cx="5.108" cy="5.108" r="5.108" transform="translate(-8344.467 5717.83)"/><path class="g" d="M-8339.593,5482.939v239.914h-239.851"/><circle class="h" cx="8.514" cy="8.514" r="8.514" transform="translate(-8587.872 5714.425)"/><circle class="i" cx="5.108" cy="5.108" r="5.108" transform="translate(-8584.466 5717.83)"/></g><rect class="j" width="255" height="219" transform="translate(-8836.442 5342.853)"/><rect class="j" width="255" height="157" transform="translate(-8258.444 5563.853)"/><rect class="k" width="242" height="162" transform="translate(-8580.444 5561.853)"/><path class="l" d="M-8580.111,5874.853v-152"/><circle class="i" cx="5.506" cy="5.506" r="5.506" transform="translate(-8585.038 5717.463)"/></g></svg>