<svg xmlns="http://www.w3.org/2000/svg" xmlns:xlink="http://www.w3.org/1999/xlink" width="84" height="78" viewBox="0 0 84 78"><defs><style>.a,.i{fill:#fff;}.b,.d,.g{fill:none;}.c{fill:#b2b2b2;}.d{stroke:#fff;stroke-width:4px;}.e{fill:url(#a);}.f{clip-path:url(#b);}.h,.i,.j{stroke:none;}.j{fill:#518ffc;}</style><linearGradient id="a" x1="0.5" x2="0.5" y2="1" gradientUnits="objectBoundingBox"><stop offset="0" stop-color="#b3d5f2"/><stop offset="0" stop-color="#5492fe"/><stop offset="1" stop-color="#2e72e8"/></linearGradient><clipPath id="b"><rect class="a" width="19" height="11" transform="translate(519 430)"/></clipPath></defs><g transform="translate(-430 -391)"><g transform="translate(42 -49)"><rect class="b" width="78" height="78" transform="translate(388 440)"/><rect class="c" width="46" height="68" transform="translate(388 499) rotate(-90)"/><path class="d" d="M519.969,327.142l20.13,9.8,20.313-9.886" transform="translate(-118.411 136.947)"/><g transform="translate(-32)"><rect class="a" width="22" height="15" transform="translate(474 477)"/><g class="e" transform="translate(472 490)"><path class="h" d="M 30 22.28930282592773 L 28 22.28930282592773 L -1.77635683940025e-15 22.28930282592773 L -2 22.28930282592773 L -2 20.28930282592773 L -2 3.320312544019544e-06 L -2 -1.999996662139893 L -1.77635683940025e-15 -1.999996662139893 L 28 -1.999996662139893 L 30 -1.999996662139893 L 30 3.320312544019544e-06 L 30 20.28930282592773 L 30 22.28930282592773 Z"/><path class="i" d="M 0 3.814697265625e-06 L 0 20.28930282592773 L 28 20.28930282592773 L 28 3.814697265625e-06 L 0 3.814697265625e-06 M -4 -3.999996185302734 L 0 -3.999996185302734 L 28 -3.999996185302734 L 32 -3.999996185302734 L 32 3.814697265625e-06 L 32 20.28930282592773 L 32 24.28930282592773 L 28 24.28930282592773 L 0 24.28930282592773 L -4 24.28930282592773 L -4 20.28930282592773 L -4 3.814697265625e-06 L -4 -3.999996185302734 Z"/></g><g class="f" transform="translate(-43 49)"><g class="g" transform="translate(521 431)"><path class="h" d="M0,0H15V15H0Z"/><path class="j" d="M 4 4 L 4 11 L 11 11 L 11 4 L 4 4 M 0 0 L 15 0 L 15 15 L 0 15 L 0 0 Z"/></g></g><path class="a" d="M530.823,412.675a3,3,0,1,0-4.5,2.584v3.416h3V415.26A2.986,2.986,0,0,0,530.823,412.675Z" transform="translate(-41.795 86.307)"/></g></g></g></svg>