<svg xmlns="http://www.w3.org/2000/svg" xmlns:xlink="http://www.w3.org/1999/xlink" width="80.513" height="78" viewBox="0 0 80.513 78"><defs><style>.a,.h{fill:#fff;}.b{fill:none;}.c{fill:#b2b2b2;}.d{fill:#f6f6f6;}.e{clip-path:url(#a);}.f{fill:url(#b);}.g,.h{stroke:none;}</style><clipPath id="a"><rect class="a" width="18" height="9" transform="translate(0 0.224)"/></clipPath><linearGradient id="b" x1="0.5" x2="0.5" y2="1" gradientUnits="objectBoundingBox"><stop offset="0" stop-color="#b3d5f2"/><stop offset="0" stop-color="#5492fe"/><stop offset="1" stop-color="#2e72e8"/></linearGradient></defs><g transform="translate(-1406 -970)"><rect class="b" width="78" height="78" transform="translate(1406 970)"/><rect class="c" width="46" height="68" transform="translate(1406 1028) rotate(-90)"/><g transform="translate(-36 -63)"><path class="d" d="M1.32-14.28v3.84l.76,6.16H3.5l.78-6.16v-3.84ZM4.38,0V-3.08H1.24V0Z" transform="translate(1500 1094)"/></g><circle class="a" cx="4" cy="4" r="4" transform="translate(1422 1004)"/><g class="e" transform="translate(1417 1012.776)"><path class="a" d="M8.228,0A8.228,8.228,0,1,1,0,8.228,8.228,8.228,0,0,1,8.228,0Z" transform="translate(0.308 0.392)"/></g><g class="f" transform="translate(1450 1011)"><path class="g" d="M 30.50927734375 31 L 3.490728139877319 31 C 2.039128065109253 31 0.7416681051254272 30.24805068969727 0.02002809196710587 28.9885311126709 C -0.7016119360923767 27.7290096282959 -0.6941719055175781 26.22941970825195 0.03992809355258942 24.97711944580078 L 13.54919815063477 1.931880116462708 C 14.27493762969971 0.6938701868057251 15.56494808197021 -0.04523983597755432 16.99999809265137 -0.04523983597755432 C 18.4350471496582 -0.04523983597755432 19.72505760192871 0.6938701868057251 20.4507884979248 1.931880116462708 L 33.96007919311523 24.97711944580078 C 34.69417953491211 26.22941970825195 34.70161819458008 27.7290096282959 33.97997665405273 28.9885311126709 C 33.25833892822266 30.24805068969727 31.96087837219238 31 30.50927734375 31 Z"/><path class="h" d="M 16.99999809265137 1.95475959777832 C 16.33046531677246 1.95475959777832 15.66093254089355 2.284280776977539 15.27459716796875 2.943319320678711 L 1.765327453613281 25.98855972290039 C 0.9837379455566406 27.32184982299805 1.945228576660156 29 3.490718841552734 29 L 30.50927734375 29 C 32.05476760864258 29 33.01625823974609 27.32184982299805 32.23466873168945 25.98855972290039 L 18.72539901733398 2.943319320678711 C 18.33906173706055 2.284280776977539 17.66953086853027 1.95475959777832 16.99999809265137 1.95475959777832 M 16.99999809265137 -2.045238494873047 C 18.01261901855469 -2.045238494873047 19.01457786560059 -1.788379669189453 19.89754867553711 -1.30242919921875 C 20.83974838256836 -0.7838706970214844 21.62768936157227 -0.01523017883300781 22.17617797851563 0.9204196929931641 L 35.68545913696289 23.96567916870117 C 36.2398567199707 24.91142082214355 36.52561950683594 25.98569107055664 36.51181793212891 27.07234954833984 C 36.49890899658203 28.08945083618164 36.22348785400391 29.09585952758789 35.71532821655273 29.98278999328613 C 35.20717620849609 30.86971092224121 34.47822952270508 31.61627960205078 33.60730743408203 32.14178848266602 C 32.67682647705078 32.70323944091797 31.60554885864258 33 30.50927734375 33 L 3.490718841552734 33 C 2.394447326660156 33 1.323169708251953 32.70323944091797 0.3926887512207031 32.14178848266602 C -0.4782333374023438 31.61627960205078 -1.207180023193359 30.86971092224121 -1.71533203125 29.98278999328613 C -2.223491668701172 29.09585952758789 -2.498912811279297 28.08945083618164 -2.511821746826172 27.07234954833984 C -2.525623321533203 25.98569107055664 -2.239860534667969 24.91142082214355 -1.685451507568359 23.96566963195801 L 11.82380867004395 0.920440673828125 C 12.37228775024414 -0.01520919799804688 13.16022872924805 -0.7838706970214844 14.10245895385742 -1.30242919921875 C 14.98541831970215 -1.788379669189453 15.98737716674805 -2.045238494873047 16.99999809265137 -2.045238494873047 Z"/></g><path class="d" d="M1.32-14.28v3.84l.76,6.16H3.5l.78-6.16v-3.84ZM4.38,0V-3.08H1.24V0Z" transform="translate(1463.761 1036)"/><rect class="a" width="54" height="2" transform="translate(1413 994)"/><circle class="a" cx="2" cy="2" r="2" transform="translate(1413 986)"/><circle class="a" cx="2" cy="2" r="2" transform="translate(1420 986)"/><circle class="a" cx="2" cy="2" r="2" transform="translate(1427 986)"/></g></svg>