<svg xmlns="http://www.w3.org/2000/svg" xmlns:xlink="http://www.w3.org/1999/xlink" width="81.707" height="78.262" viewBox="0 0 81.707 78.262"><defs><style>.a,.e{fill:none;}.b{fill:#b2b2b2;}.c,.g{fill:#fff;}.d{fill:url(#a);}.e{stroke:#fff;stroke-width:4px;}.f,.g{stroke:none;}</style><linearGradient id="a" x1="0.5" x2="0.5" y2="1" gradientUnits="objectBoundingBox"><stop offset="0" stop-color="#b3d5f2"/><stop offset="0" stop-color="#5492fe"/><stop offset="1" stop-color="#2e72e8"/></linearGradient></defs><g transform="translate(-1406 -678)"><rect class="a" width="78" height="78" transform="translate(1406 678)"/><rect class="b" width="46" height="68" transform="translate(1406 736) rotate(-90)"/><circle class="c" cx="2" cy="2" r="2" transform="translate(1413 694)"/><circle class="c" cx="2" cy="2" r="2" transform="translate(1420 694)"/><circle class="c" cx="2" cy="2" r="2" transform="translate(1427 694)"/><rect class="c" width="8" height="4" transform="translate(1413 713)"/><rect class="c" width="12" height="4" transform="translate(1424 713)"/><rect class="c" width="4" height="4" transform="translate(1439 713)"/><rect class="c" width="8" height="4" transform="translate(1445 713)"/><g class="d" transform="translate(1449.707 718.262)"><path class="f" d="M 17 36 C 14.43589973449707 36 11.94742965698242 35.49737167358398 9.603730201721191 34.50606155395508 C 7.340980052947998 33.54899978637695 5.309249877929688 32.1793098449707 3.564970016479492 30.43502998352051 C 1.820690035820007 28.69075012207031 0.4510000050067902 26.65901947021484 -0.506060004234314 24.39627075195313 C -1.497370004653931 22.05257034301758 -2 19.56410026550293 -2 17 C -2 14.43589973449707 -1.497370004653931 11.94742965698242 -0.506060004234314 9.603730201721191 C 0.4510000050067902 7.340980052947998 1.820690035820007 5.309249877929688 3.564970016479492 3.564970016479492 C 5.309249877929688 1.820690035820007 7.340980052947998 0.4510000050067902 9.603730201721191 -0.506060004234314 C 11.94742965698242 -1.497370004653931 14.43589973449707 -2 17 -2 C 19.56410026550293 -2 22.05257034301758 -1.497370004653931 24.39627075195313 -0.506060004234314 C 26.65901947021484 0.4510000050067902 28.69075012207031 1.820690035820007 30.43502998352051 3.564970016479492 C 32.1793098449707 5.309249877929688 33.54899978637695 7.340980052947998 34.50606155395508 9.603730201721191 C 35.49737167358398 11.94742965698242 36 14.43589973449707 36 17 C 36 19.56410026550293 35.49737167358398 22.05257034301758 34.50606155395508 24.39627075195313 C 33.54899978637695 26.65901947021484 32.1793098449707 28.69075012207031 30.43502998352051 30.43502998352051 C 28.69075012207031 32.1793098449707 26.65901947021484 33.54899978637695 24.39627075195313 34.50606155395508 C 22.05257034301758 35.49737167358398 19.56410026550293 36 17 36 Z"/><path class="g" d="M 17 0 C 7.611160278320313 0 0 7.611160278320313 0 17 C 0 26.38883972167969 7.611160278320313 34 17 34 C 26.38883972167969 34 34 26.38883972167969 34 17 C 34 7.611160278320313 26.38883972167969 0 17 0 M 17 -4 C 19.83321952819824 -4 22.58380889892578 -3.444210052490234 25.17538070678711 -2.348068237304688 C 27.6765193939209 -1.290180206298828 29.92193031311035 0.22344970703125 31.84923934936523 2.150760650634766 C 33.77655029296875 4.078069686889648 35.29018020629883 6.323480606079102 36.34806823730469 8.824619293212891 C 37.44421005249023 11.41618919372559 38 14.16678047180176 38 17 C 38 19.83321952819824 37.44421005249023 22.58380889892578 36.34806823730469 25.17538070678711 C 35.29018020629883 27.6765193939209 33.77655029296875 29.92193031311035 31.84923934936523 31.84923934936523 C 29.92193031311035 33.77655029296875 27.6765193939209 35.29018020629883 25.17538070678711 36.34806823730469 C 22.58380889892578 37.44421005249023 19.83321952819824 38 17 38 C 14.16678047180176 38 11.41618919372559 37.44421005249023 8.824619293212891 36.34806823730469 C 6.323480606079102 35.29018020629883 4.078069686889648 33.77655029296875 2.150760650634766 31.84923934936523 C 0.22344970703125 29.92193031311035 -1.290180206298828 27.6765193939209 -2.348068237304688 25.17538070678711 C -3.444210052490234 22.58380889892578 -4 19.83321952819824 -4 17 C -4 14.16678047180176 -3.444210052490234 11.41618919372559 -2.348068237304688 8.824619293212891 C -1.290180206298828 6.323480606079102 0.22344970703125 4.078069686889648 2.150760650634766 2.150760650634766 C 4.078069686889648 0.22344970703125 6.323480606079102 -1.290180206298828 8.824619293212891 -2.348068237304688 C 11.41618919372559 -3.444210052490234 14.16678047180176 -4 17 -4 Z"/></g><line class="e" x1="29" y2="29" transform="translate(1452.5 721.5)"/><rect class="c" width="54" height="2" transform="translate(1413 702)"/></g></svg>