<svg xmlns="http://www.w3.org/2000/svg" xmlns:xlink="http://www.w3.org/1999/xlink" width="82" height="81" viewBox="0 0 82 81"><defs><style>.a,.d,.f{fill:none;}.b{fill:#b2b2b2;}.c{fill:#fff;}.d,.e,.f{stroke:#fff;}.d{stroke-linecap:round;}.d,.f{stroke-linejoin:round;}.d,.e{stroke-width:4px;}.e{fill:url(#a);}.f{stroke-linecap:square;stroke-width:3px;}.g{stroke:none;}</style><linearGradient id="a" x1="0.5" x2="0.5" y2="1" gradientUnits="objectBoundingBox"><stop offset="0" stop-color="#b3d5f2"/><stop offset="0" stop-color="#5492fe"/><stop offset="1" stop-color="#2e72e8"/></linearGradient></defs><g transform="translate(-924 -678)"><g transform="translate(538 -92)"><rect class="a" width="78" height="78" transform="translate(386 770)"/><rect class="b" width="64" height="65" transform="translate(392 774)"/><rect class="c" width="26" height="4" transform="translate(403 788)"/><path class="d" d="M430.749,734.426l3.264,3.614,6.736-8" transform="translate(6.751 54.348)"/><rect class="c" width="26" height="4" transform="translate(403 802)"/><rect class="c" width="26" height="4" transform="translate(403 816)"/><path class="d" d="M430.749,734.426l3.264,3.614,6.736-8" transform="translate(6.751 69.348)"/></g><g transform="translate(-4 -4)"><g class="e" transform="translate(976 729)"><rect class="g" width="30" height="30"/><rect class="a" x="-2" y="-2" width="34" height="34"/></g><path class="f" d="M430.749,735.271l3.777,4.31,7.8-9.54" transform="translate(553.751 9.459)"/></g></g></svg>