<svg xmlns="http://www.w3.org/2000/svg" xmlns:xlink="http://www.w3.org/1999/xlink" width="87" height="78" viewBox="0 0 87 78"><defs><style>.a,.e{fill:none;}.b{fill:#b2b2b2;}.c,.e{stroke:#fff;}.c{stroke-width:4px;}.c,.d{fill:url(#a);}.e{stroke-width:3px;}.f{stroke:none;}</style><linearGradient id="a" x1="0.5" x2="0.5" y2="1" gradientUnits="objectBoundingBox"><stop offset="0" stop-color="#b3d5f2"/><stop offset="0" stop-color="#5492fe"/><stop offset="1" stop-color="#2e72e8"/></linearGradient></defs><g transform="translate(-1105 -441)"><rect class="a" width="78" height="78" transform="translate(1105 441)"/><rect class="b" width="46" height="68" transform="translate(1110 499) rotate(-90)"/><rect class="b" width="8" height="7" transform="translate(1140 497)"/><rect class="b" width="68" height="4" rx="2" transform="translate(1110 503)"/><g transform="translate(3 2)"><g class="c" transform="translate(1159 502)"><rect class="f" width="5" height="8"/><rect class="a" x="-2" y="-2" width="9" height="12"/></g><g class="c" transform="translate(1170 484)"><rect class="f" width="5" height="26"/><rect class="a" x="-2" y="-2" width="9" height="30"/></g><g class="c" transform="translate(1180 497)"><rect class="f" width="5" height="13"/><rect class="a" x="-2" y="-2" width="9" height="17"/></g></g><rect class="d" width="22" height="32" transform="translate(1128 487) rotate(-90)"/><path class="e" d="M519.969,327.107l9.955,5.946,10.045-6" transform="translate(614.031 142.947)"/></g></svg>