<svg xmlns="http://www.w3.org/2000/svg" xmlns:xlink="http://www.w3.org/1999/xlink" width="78" height="78.071" viewBox="0 0 78 78.071"><defs><style>.a,.h{fill:#fff;}.b{fill:none;}.c{fill:#b2b2b2;}.d{clip-path:url(#a);}.e,.f{fill:#3477eb;}.g,.h{stroke:none;}</style><clipPath id="a"><rect class="a" width="18" height="9" transform="translate(0 0.224)"/></clipPath></defs><g transform="translate(-434 -678)"><rect class="b" width="78" height="78" transform="translate(434 678)"/><rect class="c" width="61" height="71" transform="translate(440 679)"/><rect class="a" width="34" height="4" transform="translate(453 717)"/><rect class="a" width="25" height="4" transform="translate(453 729)"/><circle class="a" cx="4" cy="4" r="4" transform="translate(458 691)"/><g class="d" transform="translate(453 699.776)"><path class="a" d="M8.228,0A8.228,8.228,0,1,1,0,8.228,8.228,8.228,0,0,1,8.228,0Z" transform="translate(0.308 0.392)"/></g><g transform="translate(-438.845 377.876)"><g class="e"><path class="g" d="M 928.844970703125 375.1239929199219 C 926.39306640625 375.1239929199219 924.0655517578125 374.6717834472656 921.9271240234375 373.7798767089844 C 919.7918701171875 372.8893127441406 917.821533203125 371.5504150390625 916.0709838867188 369.8004150390625 C 914.3507690429688 368.0796508789063 913.0354614257813 366.1313781738281 912.1611328125 364.0092468261719 C 911.2877807617188 361.8894653320313 910.844970703125 359.5729370117188 910.844970703125 357.1239929199219 C 910.844970703125 354.6963806152344 911.2857666015625 352.3885803222656 912.1552124023438 350.2647094726563 C 913.0238037109375 348.1427001953125 914.3302612304688 346.1801452636719 916.0382690429688 344.4315185546875 L 916.0505981445313 344.4189147949219 L 916.0631103515625 344.4065246582031 C 919.6098022460938 340.9013061523438 923.9102172851563 339.1239929199219 928.844970703125 339.1239929199219 C 931.2807006835938 339.1239929199219 933.5914306640625 339.5718383789063 935.7129516601563 340.4551086425781 C 937.8326416015625 341.337646484375 939.7865600585938 342.66455078125 941.5204467773438 344.3990173339844 C 943.269775390625 346.1472473144531 944.6087646484375 348.1120300292969 945.49951171875 350.2381591796875 C 946.3922729492188 352.369140625 946.844970703125 354.6858520507813 946.844970703125 357.1239929199219 C 946.844970703125 359.5830383300781 946.3902587890625 361.9083862304688 945.4935302734375 364.0353698730469 C 944.59912109375 366.15673828125 943.2555541992188 368.1030883789063 941.5001220703125 369.8204040527344 C 939.7794799804688 371.55859375 937.8352661132813 372.8904113769531 935.7216186523438 373.7786865234375 C 933.5974731445313 374.6713562011719 931.2838134765625 375.1239929199219 928.844970703125 375.1239929199219 Z M 921.7234497070313 350.0590515136719 C 919.7595825195313 352.0767517089844 918.844970703125 354.3220825195313 918.844970703125 357.1239929199219 C 918.844970703125 359.9459533691406 919.7609252929688 362.1766357421875 921.7275390625 364.1441040039063 C 923.761962890625 366.1768188476563 926.0238647460938 367.1239929199219 928.844970703125 367.1239929199219 C 931.6231079101563 367.1239929199219 933.8483276367188 366.1820983886719 935.8478393554688 364.1598205566406 L 935.8600463867188 364.1474609375 L 935.8724975585938 364.1353149414063 C 937.9004516601563 362.1543884277344 938.844970703125 359.926513671875 938.844970703125 357.1239929199219 C 938.844970703125 354.3352661132813 937.897705078125 352.089111328125 935.86376953125 350.0552062988281 C 933.864013671875 348.0553894042969 931.6337280273438 347.1239929199219 928.844970703125 347.1239929199219 C 926.0193481445313 347.1239929199219 923.7557983398438 348.0568237304688 921.7234497070313 350.0590515136719 Z"/><path class="h" d="M 928.844970703125 373.1239929199219 C 933.2109985351563 373.1239929199219 937.0020141601563 371.5270080566406 940.0900268554688 368.4020080566406 C 943.2449951171875 365.3210144042969 944.844970703125 361.5260009765625 944.844970703125 357.1239929199219 C 944.844970703125 352.760986328125 943.2509765625 348.9559936523438 940.1060180664063 345.81298828125 C 936.9949951171875 342.7009887695313 933.2059936523438 341.1239929199219 928.844970703125 341.1239929199219 C 924.4559936523438 341.1239929199219 920.6370239257813 342.697998046875 917.468994140625 345.8290100097656 C 914.4000244140625 348.9710083007813 912.844970703125 352.77099609375 912.844970703125 357.1239929199219 C 912.844970703125 361.5169982910156 914.406005859375 365.3059997558594 917.4849853515625 368.385986328125 C 920.6300048828125 371.5299987792969 924.4520263671875 373.1239929199219 928.844970703125 373.1239929199219 M 928.844970703125 345.1239929199219 C 932.1519775390625 345.1239929199219 934.9110107421875 346.2739868164063 937.2780151367188 348.6409912109375 C 939.677978515625 351.0409851074219 940.844970703125 353.8150024414063 940.844970703125 357.1239929199219 C 940.844970703125 360.4549865722656 939.6840209960938 363.2080078125 937.27001953125 365.5660095214844 C 934.9030151367188 367.9599914550781 932.14697265625 369.1239929199219 928.844970703125 369.1239929199219 C 925.5050048828125 369.1239929199219 922.7139892578125 367.9570007324219 920.31298828125 365.5580139160156 C 917.97900390625 363.2229919433594 916.844970703125 360.4639892578125 916.844970703125 357.1239929199219 C 916.844970703125 353.8059997558594 917.9849853515625 351.0260009765625 920.3049926757813 348.6489868164063 C 922.7059936523438 346.2770080566406 925.5 345.1239929199219 928.844970703125 345.1239929199219 M 928.844970703125 377.1239929199219 C 926.12744140625 377.1239929199219 923.5408935546875 376.6199340820313 921.1572875976563 375.6257629394531 C 918.7799682617188 374.63427734375 916.593017578125 373.1502380371094 914.656982421875 371.21484375 C 912.7489013671875 369.3060913085938 911.2872924804688 367.138427734375 910.3119506835938 364.7711181640625 C 909.3385620117188 362.4084777832031 908.844970703125 359.8356018066406 908.844970703125 357.1239929199219 C 908.844970703125 354.4352722167969 909.3359375 351.8725280761719 910.3042602539063 349.5070190429688 C 911.2709350585938 347.1455688476563 912.71875 344.9677429199219 914.6074829101563 343.0340270996094 L 914.6321411132813 343.0087890625 L 914.6572265625 342.9840087890625 C 916.6032104492188 341.0607604980469 918.794921875 339.587646484375 921.1715087890625 338.6055603027344 C 923.550537109375 337.6224670410156 926.1322631835938 337.1239929199219 928.844970703125 337.1239929199219 C 931.5459594726563 337.1239929199219 934.1153564453125 337.62353515625 936.481689453125 338.6087646484375 C 938.843994140625 339.59228515625 941.01513671875 341.0646667480469 942.9348754882813 342.9850158691406 C 944.8684692382813 344.9173583984375 946.3524169921875 347.0981140136719 947.3441772460938 349.46533203125 C 948.3400268554688 351.8423461914063 948.844970703125 354.4190979003906 948.844970703125 357.1239929199219 C 948.844970703125 359.8513793945313 948.33740234375 362.4381103515625 947.33642578125 364.8123474121094 C 946.3401489257813 367.1753845214844 944.850830078125 369.3375854492188 942.909912109375 371.2391357421875 C 941.00634765625 373.1593017578125 938.8488159179688 374.6339111328125 936.4964599609375 375.6224670410156 C 934.1256713867188 376.6188049316406 931.5513305664063 377.1239929199219 928.844970703125 377.1239929199219 Z M 923.1422729492188 351.4688415527344 C 921.5750732421875 353.0856323242188 920.844970703125 354.883544921875 920.844970703125 357.1239929199219 C 920.844970703125 359.411865234375 921.5534057617188 361.140869140625 923.1420288085938 362.730224609375 C 924.7984008789063 364.3851623535156 926.5578002929688 365.1239929199219 928.844970703125 365.1239929199219 C 931.0836791992188 365.1239929199219 932.8048095703125 364.3929443359375 934.4255981445313 362.753662109375 L 934.4500732421875 362.7289123535156 L 934.4749755859375 362.70458984375 C 936.114013671875 361.1035461425781 936.844970703125 359.3824462890625 936.844970703125 357.1239929199219 C 936.844970703125 354.8699951171875 936.106201171875 353.1260681152344 934.4495849609375 351.4694213867188 C 932.8275146484375 349.8473510742188 931.0989990234375 349.1239929199219 928.844970703125 349.1239929199219 C 926.5546264648438 349.1239929199219 924.7942504882813 349.8474426269531 923.1422729492188 351.4688415527344 Z"/></g></g><g class="e" transform="translate(475.707 720.262)"><path class="g" d="M 14.368896484375 30.73779678344727 C 12.15998649597168 30.73779678344727 10.0160961151123 30.30472564697266 7.996766567230225 29.45062637329102 C 6.047336578369141 28.6260871887207 4.29698657989502 27.44609642028809 2.794336557388306 25.94345664978027 C 1.291696429252625 24.4408073425293 0.1117064878344536 22.69045639038086 -0.7128335237503052 20.74102592468262 C -1.566933512687683 18.7216968536377 -2.000003576278687 16.57780647277832 -2.000003576278687 14.368896484375 C -2.000003576278687 12.15998649597168 -1.566933512687683 10.0160961151123 -0.7128335237503052 7.996766567230225 C 0.1117064878344536 6.047336578369141 1.291696429252625 4.29698657989502 2.794336557388306 2.794336557388306 C 4.29698657989502 1.291696429252625 6.047336578369141 0.1117064878344536 7.996766567230225 -0.7128335237503052 C 10.0160961151123 -1.566933512687683 12.15998649597168 -2.000003576278687 14.368896484375 -2.000003576278687 C 16.57780647277832 -2.000003576278687 18.7216968536377 -1.566933512687683 20.74102592468262 -0.7128335237503052 C 22.69045639038086 0.1117064878344536 24.4408073425293 1.291696429252625 25.94345664978027 2.794336557388306 C 27.44609642028809 4.29698657989502 28.6260871887207 6.047336578369141 29.45062637329102 7.996766567230225 C 30.30472564697266 10.0160961151123 30.73779678344727 12.15998649597168 30.73779678344727 14.368896484375 C 30.73779678344727 16.57780647277832 30.30472564697266 18.7216968536377 29.45062637329102 20.74102592468262 C 28.6260871887207 22.69045639038086 27.44609642028809 24.4408073425293 25.94345664978027 25.94345664978027 C 24.4408073425293 27.44609642028809 22.69045639038086 28.6260871887207 20.74102592468262 29.45062637329102 C 18.7216968536377 30.30472564697266 16.57780647277832 30.73779678344727 14.368896484375 30.73779678344727 Z"/><path class="h" d="M 14.368896484375 -3.814697265625e-06 C 6.433176040649414 -3.814697265625e-06 -3.814697265625e-06 6.433176040649414 -3.814697265625e-06 14.368896484375 C -3.814697265625e-06 22.30461692810059 6.433176040649414 28.73779678344727 14.368896484375 28.73779678344727 C 22.30461692810059 28.73779678344727 28.73779678344727 22.30461692810059 28.73779678344727 14.368896484375 C 28.73779678344727 6.433176040649414 22.30461692810059 -3.814697265625e-06 14.368896484375 -3.814697265625e-06 M 14.368896484375 -4.000003814697266 C 16.84691619873047 -4.000003814697266 19.25293731689453 -3.513782501220703 21.52012634277344 -2.554843902587891 C 23.70795631408691 -1.629463195800781 25.6719970703125 -0.3055534362792969 27.357666015625 1.380126953125 C 29.0433464050293 3.0657958984375 30.36725616455078 5.029836654663086 31.29263687133789 7.217666625976563 C 32.2515754699707 9.484855651855469 32.73779678344727 11.89087677001953 32.73779678344727 14.368896484375 C 32.73779678344727 16.84691619873047 32.2515754699707 19.25293731689453 31.29263687133789 21.52012634277344 C 30.36725616455078 23.70795631408691 29.0433464050293 25.6719970703125 27.357666015625 27.357666015625 C 25.6719970703125 29.0433464050293 23.70795631408691 30.36725616455078 21.52012634277344 31.29263687133789 C 19.25293731689453 32.2515754699707 16.84691619873047 32.73779678344727 14.368896484375 32.73779678344727 C 11.89087677001953 32.73779678344727 9.484855651855469 32.2515754699707 7.217666625976563 31.29263687133789 C 5.029836654663086 30.36725616455078 3.0657958984375 29.0433464050293 1.380126953125 27.357666015625 C -0.3055534362792969 25.6719970703125 -1.629463195800781 23.70795631408691 -2.554843902587891 21.52012634277344 C -3.513782501220703 19.25293731689453 -4.000003814697266 16.84691619873047 -4.000003814697266 14.368896484375 C -4.000003814697266 11.89087677001953 -3.513782501220703 9.484855651855469 -2.554843902587891 7.217666625976563 C -1.629463195800781 5.029836654663086 -0.3055534362792969 3.0657958984375 1.380126953125 1.380126953125 C 3.0657958984375 -0.3055534362792969 5.029836654663086 -1.629463195800781 7.217666625976563 -2.554843902587891 C 9.484855651855469 -3.513782501220703 11.89087677001953 -4.000003814697266 14.368896484375 -4.000003814697266 Z"/></g><circle class="a" cx="2" cy="2" r="2" transform="translate(480 733)"/><path class="f" d="M0,0H8V16H0Z" transform="translate(493.929 744.757) rotate(-45)"/><circle class="a" cx="2" cy="2" r="2" transform="translate(488 733)"/><circle class="a" cx="2" cy="2" r="2" transform="translate(495 733)"/></g></svg>