<svg xmlns="http://www.w3.org/2000/svg" xmlns:xlink="http://www.w3.org/1999/xlink" width="48" height="48" viewBox="0 0 48 48"><defs><style>.a{fill:#fff;}.b,.e{fill:none;}.c,.g{fill:#c2c2c2;}.d{clip-path:url(#a);}.f,.g{stroke:none;}</style><clipPath id="a"><rect class="a" width="14" height="7" transform="translate(824 3789)"/></clipPath></defs><rect class="b" width="48" height="48"/><rect class="c" width="30" height="3" transform="translate(10 4)"/><rect class="c" width="23" height="3" transform="translate(13 21) rotate(90)"/><rect class="c" width="14" height="3" transform="translate(13 4) rotate(90)"/><rect class="c" width="40" height="3" transform="translate(40 4) rotate(90)"/><rect class="c" width="30" height="3" transform="translate(10 41)"/><rect class="c" width="9" height="3" transform="translate(7 15)"/><rect class="c" width="9" height="3" transform="translate(7 30)"/><circle class="c" cx="3" cy="3" r="3" transform="translate(22 16)"/><g class="d" transform="translate(-806 -3766)"><g class="e" transform="translate(824 3789)"><path class="f" d="M7,0A7,7,0,1,1,0,7,7,7,0,0,1,7,0Z"/><path class="g" d="M 7 3 C 4.794389724731445 3 3 4.794389724731445 3 7 C 3 9.205610275268555 4.794389724731445 11 7 11 C 9.205610275268555 11 11 9.205610275268555 11 7 C 11 4.794389724731445 9.205610275268555 3 7 3 M 7 0 C 10.86598968505859 0 14 3.134010314941406 14 7 C 14 10.86598968505859 10.86598968505859 14 7 14 C 3.134010314941406 14 0 10.86598968505859 0 7 C 0 3.134010314941406 3.134010314941406 0 7 0 Z"/></g></g></svg>