<svg xmlns="http://www.w3.org/2000/svg" xmlns:xlink="http://www.w3.org/1999/xlink" width="40.832" height="40" viewBox="0 0 40.832 40"><defs><style>.a{stroke:#fff;}.a,.d{fill:url(#a);}.b{fill:none;}.c{fill:#b2b2b2;}.e{clip-path:url(#c);}.f,.h{fill:#fff;}.g,.h{stroke:none;}</style><linearGradient id="a" x1="0.5" x2="0.5" y2="1" gradientUnits="objectBoundingBox"><stop offset="0" stop-color="#5492fe"/><stop offset="1" stop-color="#2e72e8"/></linearGradient><clipPath id="c"><path class="a" d="M0,1H5.753V3.557H0Z" transform="translate(0 -1)"/></clipPath></defs><g transform="translate(-1493 -1743)"><rect class="b" width="40" height="40" transform="translate(1493 1743)"/><rect class="c" width="28" height="28" rx="3" transform="translate(1495 1749)"/><g transform="translate(215 -204)"><rect class="b" width="40" height="40" transform="translate(1278 1947)"/><g transform="translate(-5.377 -5.228)"><g class="d" transform="translate(1304.377 1969)"><path class="g" d="M 15.82830047607422 19.18589973449707 L 0.1314002871513367 19.18589973449707 C -0.8952897191047668 19.18589973449707 -1.805879712104797 18.57015037536621 -2.188449621200562 17.61721038818359 C -2.570999622344971 16.66431045532227 -2.338839769363403 15.58977031707764 -1.597009658813477 14.87969017028809 L -0.1535997092723846 13.4983081817627 L -0.1535997092723846 9.769499778747559 C -0.1535997092723846 7.761839866638184 0.5345402956008911 5.817080020904541 1.78406023979187 4.293469905853271 C 2.75171160697937 3.113559007644653 4.00700044631958 2.241086483001709 5.402100086212158 1.762382626533508 L 5.402100086212158 1.065600037574768 C 5.402100086212158 -0.348580002784729 6.553020477294922 -1.499099969863892 7.967700481414795 -1.499099969863892 C 9.381880760192871 -1.499099969863892 10.53240013122559 -0.348580002784729 10.53240013122559 1.065600037574768 L 10.53240013122559 1.791179656982422 C 11.91026496887207 2.281423091888428 13.14794826507568 3.15743088722229 14.09979057312012 4.33213996887207 C 15.32916069030762 5.849370002746582 16.00620079040527 7.780399799346924 16.00620079040527 9.769499778747559 L 16.00620079040527 13.39413452148438 L 17.55781936645508 14.87989044189453 C 18.29953002929688 15.59082984924316 18.53108978271484 16.66540908813477 18.14826965332031 17.61801910400391 C 17.7655200958252 18.57047080993652 16.85487937927246 19.18589973449707 15.82830047607422 19.18589973449707 Z"/><path class="h" d="M 15.82830047607422 17.68589973449707 C 16.73010063171387 17.68589973449707 17.17110061645508 16.58699989318848 16.52040100097656 15.96329975128174 L 14.50619983673096 14.03460025787354 L 14.50619983673096 9.769499778747559 C 14.50619983673096 6.340569972991943 12.13919067382813 3.493599891662598 9.032400131225586 2.939709901809692 L 9.032400131225586 1.065600037574768 C 9.032400131225586 0.4778999984264374 8.555399894714355 0.000900001497939229 7.967700481414795 0.000900001497939229 C 7.379100322723389 0.000900001497939229 6.902100086212158 0.4778999984264374 6.902100086212158 1.065600037574768 L 6.902100086212158 2.925640106201172 C 3.754510402679443 3.443609952926636 1.346400260925293 6.310450077056885 1.346400260925293 9.769499778747559 L 1.346400260925293 14.13899993896484 L -0.5597997307777405 15.96329975128174 C -1.211399674415588 16.58699989318848 -0.7694997191429138 17.68589973449707 0.1314002871513367 17.68589973449707 L 15.82830047607422 17.68589973449707 M 15.82830047607422 20.68589973449707 L 0.1314002871513367 20.68589973449707 C -1.511379718780518 20.68589973449707 -2.968369722366333 19.70071983337402 -3.580459594726563 18.17604064941406 C -4.192539691925049 16.65139961242676 -3.821119785308838 14.93216991424561 -2.634219646453857 13.7960901260376 L -1.653599739074707 12.85760402679443 L -1.653599739074707 9.769499778747559 C -1.653599739074707 7.415919780731201 -0.8446497321128845 5.133359909057617 0.6242203116416931 3.34227991104126 C 1.533572196960449 2.23346209526062 2.659381866455078 1.353443264961243 3.913976669311523 0.753334641456604 C 4.074000835418701 -1.34260368347168 5.831003665924072 -2.999099969863892 7.967700481414795 -2.999099969863892 C 10.11801052093506 -2.999099969863892 11.88369560241699 -1.320638537406921 12.02348613739014 0.7949062585830688 C 13.26154708862305 1.402672290802002 14.37097454071045 2.28416895866394 15.26523017883301 3.38782000541687 C 16.71034049987793 5.171309947967529 17.50620079040527 7.437699794769287 17.50620079040527 9.769499778747559 L 17.50620079040527 12.75368785858154 L 18.59523010253906 13.79648971557617 C 19.78209114074707 14.93410015106201 20.15254974365234 16.65328025817871 19.54009056091309 18.17733955383301 C 18.92770004272461 19.70122909545898 17.47073936462402 20.68589973449707 15.82830047607422 20.68589973449707 Z"/></g><g class="e" transform="translate(1309.362 1988.745)"><g class="a" transform="translate(0.719 -2.557)"><circle class="g" cx="2.237" cy="2.237" r="2.237"/><circle class="b" cx="2.237" cy="2.237" r="2.737"/></g></g></g></g><path class="f" d="M0,0H4V4H0Z" transform="translate(1500 1755)"/><rect class="f" width="4" height="4" transform="translate(1500 1763)"/></g></svg>