<svg xmlns="http://www.w3.org/2000/svg" xmlns:xlink="http://www.w3.org/1999/xlink" width="41.994" height="40" viewBox="0 0 41.994 40"><defs><style>.a{fill:none;}.b{fill:#b2b2b2;}.c{fill:url(#a);}.d,.e{stroke:none;}.e{fill:#fff;}</style><linearGradient id="a" x1="0.5" x2="0.5" y2="1" gradientUnits="objectBoundingBox"><stop offset="0" stop-color="#b3d5f2"/><stop offset="0" stop-color="#5492fe"/><stop offset="1" stop-color="#2e72e8"/></linearGradient></defs><g transform="translate(-740 -1699)"><g transform="translate(-50 189)"><rect class="a" width="40" height="40" transform="translate(790 1510)"/><g transform="translate(8483 8312)"><rect class="a" width="40" height="40" transform="translate(-7693 -6802)"/><path class="b" d="M17.687,24H2.208A2.206,2.206,0,0,1,0,21.8V0L16,9.855,32,0V11.892a10.609,10.609,0,0,0-5.214-1.358,9.668,9.668,0,0,0-9.839,9.7A9.8,9.8,0,0,0,17.686,24Z" transform="translate(-7692 -6796.939)"/><path class="b" d="M-2915.375,3150.833-2930.25,3142h30Z" transform="translate(-4760.75 -9941.334)"/><g class="c" transform="translate(-7672.41 -6769.999)"><path class="d" d="M 16.52791404724121 5.910613059997559 C 15.89682483673096 5.910613059997559 15.30322456359863 5.664542675018311 14.85645484924316 5.217752933502197 L 11.27179431915283 1.633092880249023 C 11.26940155029297 1.630699276924133 11.26701164245605 1.628298282623291 11.26462936401367 1.625896096229553 C 10.09108734130859 2.173313617706299 8.809453010559082 2.457152843475342 7.478574752807617 2.457152843475342 C 2.527774810791016 2.457152843475342 -1.499995350837708 -1.570617079734802 -1.499995350837708 -6.521427154541016 C -1.499995350837708 -11.47222709655762 2.527774810791016 -15.49999713897705 7.478574752807617 -15.49999713897705 C 12.42938423156738 -15.49999713897705 16.45715522766113 -11.47222709655762 16.45715522766113 -6.521427154541016 C 16.45715522766113 -5.190561771392822 16.17330360412598 -3.908905982971191 15.62588882446289 -2.735362529754639 C 15.6282901763916 -2.732980489730835 15.63072109222412 -2.730560779571533 15.6331148147583 -2.728167057037354 L 19.21777534484863 0.8564928770065308 L 19.22059440612793 0.859312891960144 L 19.2233943939209 0.8621428608894348 C 20.13627433776855 1.784772872924805 20.13216400146484 3.282232761383057 19.21422386169434 4.200232982635498 L 18.1987190246582 5.215718746185303 C 17.75347900390625 5.663864612579346 17.16032218933105 5.910613059997559 16.52791404724121 5.910613059997559 Z M 7.478574752807617 -9.623626708984375 C 5.768014907836914 -9.623626708984375 4.3763747215271 -8.231986999511719 4.3763747215271 -6.521427154541016 C 4.3763747215271 -4.810867309570313 5.768014907836914 -3.419227123260498 7.478574752807617 -3.419227123260498 C 9.18913459777832 -3.419227123260498 10.58077430725098 -4.810867309570313 10.58077430725098 -6.521427154541016 C 10.58077430725098 -8.231986999511719 9.18913459777832 -9.623626708984375 7.478574752807617 -9.623626708984375 Z"/><path class="e" d="M 16.52791213989258 4.410607814788818 C 16.74858283996582 4.410607814788818 16.96880531311035 4.326112747192383 17.13599395751953 4.15712308883667 L 18.15353393554688 3.139602899551392 C 18.49149513244629 2.801622867584229 18.49149513244629 2.255102872848511 18.15711402893066 1.917152881622314 L 14.57242488861084 -1.667537093162537 C 14.41063499450684 -1.829337120056152 14.19132423400879 -1.919227123260498 13.96119499206543 -1.919227123260498 L 13.37514495849609 -1.919227123260498 C 14.36747455596924 -3.188417196273804 14.95715427398682 -4.784817218780518 14.95715427398682 -6.521427154541016 C 14.95715427398682 -10.65263748168945 11.60978507995605 -13.99999713897705 7.478574752807617 -13.99999713897705 C 3.347364664077759 -13.99999713897705 4.705200353782857e-06 -10.65263748168945 4.705200353782857e-06 -6.521427154541016 C 4.705200353782857e-06 -2.390217065811157 3.347364664077759 0.9571528434753418 7.478574752807617 0.9571528434753418 C 9.215174674987793 0.9571528434753418 10.81158447265625 0.3674828708171844 12.08077430725098 -0.6248571276664734 L 12.08077430725098 -0.03879712894558907 C 12.08077430725098 0.1913228780031204 12.17066478729248 0.4106328785419464 12.33245468139648 0.5724328756332397 L 15.91714477539063 4.15712308883667 C 16.08612442016602 4.326112747192383 16.30724143981934 4.410607814788818 16.52791213989258 4.410607814788818 M 7.478574752807617 -11.12362670898438 C 10.02057456970215 -11.12362670898438 12.08077430725098 -9.067007064819336 12.08077430725098 -6.521427154541016 C 12.08077430725098 -3.979417085647583 10.02416515350342 -1.919227123260498 7.478574752807617 -1.919227123260498 C 4.936574935913086 -1.919227123260498 2.8763747215271 -3.975837230682373 2.8763747215271 -6.521427154541016 C 2.8763747215271 -9.063426971435547 4.932994842529297 -11.12362670898438 7.478574752807617 -11.12362670898438 M 16.52791404724121 7.410613059997559 C 15.49614429473877 7.410613059997559 14.52584457397461 7.0085129737854 13.7957649230957 6.278382778167725 L 10.90544605255127 3.38806414604187 C 9.816885948181152 3.763995885848999 8.66453742980957 3.957152843475342 7.478574752807617 3.957152843475342 C 4.679204940795898 3.957152843475342 2.047684669494629 2.867312908172607 0.06876470148563385 0.8883828520774841 C -1.910155296325684 -1.090537071228027 -2.999995231628418 -3.722057104110718 -2.999995231628418 -6.521427154541016 C -2.999995231628418 -9.320796966552734 -1.910155296325684 -11.952317237854 0.06876470148563385 -13.93123722076416 C 2.047684669494629 -15.91015720367432 4.679204940795898 -16.99999618530273 7.478574752807617 -16.99999618530273 C 10.27794456481934 -16.99999618530273 12.90946483612061 -15.91015720367432 14.88838481903076 -13.93123722076416 C 16.8673152923584 -11.952317237854 17.95715522766113 -9.320796966552734 17.95715522766113 -6.521427154541016 C 17.95715522766113 -5.335474967956543 17.76399040222168 -4.18310022354126 17.38805961608887 -3.094541311264038 L 20.27843475341797 -0.2041671276092529 L 20.28406524658203 -0.1985371261835098 L 20.28966522216797 -0.1928771287202835 C 21.78119468688965 1.314572930335999 21.77457427978516 3.761112928390503 20.2749137878418 5.260862827301025 L 19.26100540161133 6.274751663208008 C 18.53227615356445 7.007328033447266 17.56211471557617 7.410613059997559 16.52791404724121 7.410613059997559 Z M 7.478574752807617 -8.123626708984375 C 6.595114707946777 -8.123626708984375 5.8763747215271 -7.404887199401855 5.8763747215271 -6.521427154541016 C 5.8763747215271 -5.637967109680176 6.595114707946777 -4.919227123260498 7.478574752807617 -4.919227123260498 C 8.362034797668457 -4.919227123260498 9.080774307250977 -5.637967109680176 9.080774307250977 -6.521427154541016 C 9.080774307250977 -7.404887199401855 8.362034797668457 -8.123626708984375 7.478574752807617 -8.123626708984375 Z"/></g></g></g></g></svg>