<svg xmlns="http://www.w3.org/2000/svg" xmlns:xlink="http://www.w3.org/1999/xlink" width="40" height="40" viewBox="0 0 40 40"><defs><style>.a{fill:#c2c2c2;}.b{fill:none;}.c,.e{fill:#b2b2b2;}.c{stroke:#b2b2b2;stroke-width:3px;}.d{clip-path:url(#a);}.f{fill:url(#b);}.g,.h{stroke:none;}.h{fill:#fff;}</style><clipPath id="a"><rect class="a" width="32" height="16" transform="translate(-1)"/></clipPath><linearGradient id="b" x1="0.5" x2="0.5" y2="1" gradientUnits="objectBoundingBox"><stop offset="0" stop-color="#b3d5f2"/><stop offset="0" stop-color="#5492fe"/><stop offset="1" stop-color="#2e72e8"/></linearGradient></defs><g transform="translate(-790 -2098)"><rect class="b" width="40" height="40" transform="translate(790 2098)"/><g class="c" transform="translate(803 2102)"><circle class="g" cx="7" cy="7" r="7"/><circle class="b" cx="7" cy="7" r="5.5"/></g><g class="d" transform="translate(795 2118)"><path class="e" d="M15,0A15,15,0,1,1,0,15,15,15,0,0,1,15,0Z" transform="translate(-0.438 0.715)"/></g><g class="f" transform="translate(816 2130) rotate(180)"><path class="g" d="M 15.76403045654297 11.5 L 13 11.5 L -8.881784197001252e-16 11.5 L -2.764029979705811 11.5 L -1.257670044898987 9.182519912719727 L 5.242330074310303 -0.8174800276756287 L 6.5 -2.752350091934204 L 7.757669925689697 -0.8174800276756287 L 14.25767040252686 9.182519912719727 L 15.76403045654297 11.5 Z"/><path class="h" d="M 6.5 0 L 0 10 L 13 10 L 6.5 0 M 6.5 -5.50469970703125 L 9.01533031463623 -1.634969711303711 L 15.51533031463623 8.365030288696289 L 18.52806091308594 13 L 13 13 L 0 13 L -5.528060913085938 13 L -2.51533031463623 8.365030288696289 L 3.98466968536377 -1.634969711303711 L 6.5 -5.50469970703125 Z"/></g></g></svg>