<svg xmlns="http://www.w3.org/2000/svg" xmlns:xlink="http://www.w3.org/1999/xlink" width="41.877" height="40" viewBox="0 0 41.877 40"><defs><style>.a{fill:none;}.b{fill:#b2b2b2;}.c,.e,.g{fill:#fff;}.c{fill-rule:evenodd;}.d{fill:url(#a);}.f,.g{stroke:none;}</style><linearGradient id="a" x1="0.5" x2="0.5" y2="1" gradientUnits="objectBoundingBox"><stop offset="0" stop-color="#5492fe"/><stop offset="1" stop-color="#2e72e8"/></linearGradient></defs><g transform="translate(-1339 -2183)"><rect class="a" width="40" height="40" transform="translate(1339 2183)"/><rect class="b" width="33" height="29" rx="3" transform="translate(1339 2185)"/><path class="c" d="M149.913,100a2.826,2.826,0,0,0-3,2.577c0,1.563,3.049,5.155-.492,5.155a2.362,2.362,0,0,0-2.508,2.155V112h12v-2.113a2.362,2.362,0,0,0-2.508-2.155c-3.541,0-.492-3.592-.492-5.155a2.8,2.8,0,0,0-3-2.577Z" transform="translate(1206.087 2089.298)"/><g class="d" transform="translate(-792 2940.527)"><path class="f" d="M 2164.076171875 -720.302734375 C 2162.797119140625 -720.302734375 2161.538818359375 -720.6425170898438 2160.438232421875 -721.27392578125 C 2159.337890625 -720.642578125 2158.07958984375 -720.302734375 2156.800537109375 -720.302734375 C 2154.60009765625 -720.302734375 2152.5556640625 -721.2705078125 2151.162353515625 -722.9649047851563 C 2149.468017578125 -724.3582763671875 2148.500244140625 -726.4027099609375 2148.500244140625 -728.6030883789063 C 2148.500244140625 -732.6286010742188 2151.775146484375 -735.9036254882813 2155.800537109375 -735.9036254882813 C 2157.0791015625 -735.9036254882813 2158.337158203125 -735.563720703125 2159.438232421875 -734.9321899414063 C 2160.538818359375 -735.563720703125 2161.797119140625 -735.9036254882813 2163.076171875 -735.9036254882813 C 2165.276611328125 -735.9036254882813 2167.321044921875 -734.9354248046875 2168.714599609375 -733.2404174804688 C 2170.40869140625 -731.84716796875 2171.376708984375 -729.802978515625 2171.376708984375 -727.6032104492188 C 2171.376708984375 -723.5776977539063 2168.101806640625 -720.302734375 2164.076171875 -720.302734375 Z M 2154.4248046875 -726.227294921875 C 2154.83984375 -725.9871826171875 2155.310546875 -725.8613891601563 2155.800537109375 -725.8613891601563 C 2156.516357421875 -725.8613891601563 2157.182373046875 -726.14599609375 2157.6787109375 -726.612548828125 C 2157.572998046875 -726.6984252929688 2157.474365234375 -726.7943115234375 2157.384033203125 -726.8994750976563 C 2157.264892578125 -727.0386352539063 2157.1640625 -727.1900634765625 2157.08251953125 -727.3501586914063 C 2156.8193359375 -727.4839477539063 2156.58154296875 -727.669189453125 2156.384521484375 -727.89892578125 C 2155.951416015625 -728.404052734375 2155.760986328125 -729.07080078125 2155.862548828125 -729.7282104492188 C 2155.8876953125 -729.8905029296875 2155.918212890625 -730.05126953125 2155.953857421875 -730.2102661132813 C 2154.855224609375 -729.8528442382813 2154.058837890625 -728.8192138671875 2154.058837890625 -727.6032104492188 C 2154.058837890625 -727.1131591796875 2154.1845703125 -726.642333984375 2154.4248046875 -726.227294921875 Z M 2162.7939453125 -728.856201171875 C 2163.05712890625 -728.7223510742188 2163.295166015625 -728.536865234375 2163.4921875 -728.3068237304688 C 2163.92578125 -727.8012084960938 2164.115966796875 -727.134033203125 2164.01416015625 -726.4764404296875 C 2163.98876953125 -726.3140258789063 2163.95849609375 -726.153076171875 2163.922607421875 -725.9938354492188 C 2164.3310546875 -726.1257934570313 2164.705078125 -726.3538208007813 2165.016845703125 -726.6663818359375 C 2165.534912109375 -727.1853637695313 2165.8193359375 -727.875 2165.81787109375 -728.6082153320313 C 2165.81689453125 -729.0916748046875 2165.689697265625 -729.5586547851563 2165.44775390625 -729.9730224609375 C 2165.03125 -730.2164916992188 2164.561767578125 -730.3441162109375 2164.076171875 -730.3441162109375 L 2164.054443359375 -730.3440551757813 C 2163.458740234375 -730.3395385742188 2162.8935546875 -730.1473999023438 2162.420166015625 -729.7883911132813 L 2162.4072265625 -729.778564453125 L 2162.39404296875 -729.76904296875 C 2162.324462890625 -729.7185668945313 2162.255126953125 -729.6619262695313 2162.1884765625 -729.6010131835938 C 2162.2978515625 -729.5132446289063 2162.399658203125 -729.414794921875 2162.492431640625 -729.3065795898438 C 2162.611572265625 -729.16748046875 2162.71240234375 -729.0161743164063 2162.7939453125 -728.856201171875 Z"/><path class="g" d="M 2164.076171875 -721.802734375 C 2167.2802734375 -721.802734375 2169.876708984375 -724.3992309570313 2169.876708984375 -727.6032104492188 C 2169.876708984375 -729.4595336914063 2169.004638671875 -731.1119995117188 2167.647705078125 -732.1735229492188 C 2166.5859375 -733.531005859375 2164.932861328125 -734.4036254882813 2163.076171875 -734.4036254882813 C 2161.6982421875 -734.4036254882813 2160.432861328125 -733.9230346679688 2159.4384765625 -733.12109375 C 2158.443115234375 -733.9230346679688 2157.177734375 -734.4036254882813 2155.800537109375 -734.4036254882813 C 2152.5966796875 -734.4036254882813 2150.000244140625 -731.8062133789063 2150.000244140625 -728.6030883789063 C 2150.000244140625 -726.746337890625 2150.872314453125 -725.0934448242188 2152.229248046875 -724.0318603515625 C 2153.290771484375 -722.6748657226563 2154.94384765625 -721.802734375 2156.800537109375 -721.802734375 C 2158.177490234375 -721.802734375 2159.44287109375 -722.2824096679688 2160.438232421875 -723.085205078125 C 2161.433837890625 -722.2824096679688 2162.69921875 -721.802734375 2164.076171875 -721.802734375 M 2161.761474609375 -727.6032104492188 C 2161.6728515625 -727.6032104492188 2161.587158203125 -727.5883178710938 2161.50732421875 -727.5608520507813 C 2161.51611328125 -727.6089477539063 2161.5244140625 -727.6572875976563 2161.53173828125 -727.705810546875 C 2161.604736328125 -728.1774291992188 2161.238525390625 -728.6030883789063 2160.760498046875 -728.6030883789063 C 2160.56884765625 -728.6030883789063 2160.390625 -728.5328979492188 2160.25390625 -728.4150390625 C 2160.116943359375 -728.297119140625 2160.020751953125 -728.1315307617188 2159.990966796875 -727.9415893554688 C 2159.67333984375 -725.9130249023438 2157.91845703125 -724.3613891601563 2155.800537109375 -724.3613891601563 C 2154.882080078125 -724.3613891601563 2154.033447265625 -724.6504516601563 2153.340576171875 -725.14306640625 C 2152.847900390625 -725.8359985351563 2152.558837890625 -726.6845703125 2152.558837890625 -727.6032104492188 C 2152.558837890625 -729.9459228515625 2154.457763671875 -731.843994140625 2156.800537109375 -731.843994140625 C 2157.26416015625 -731.843994140625 2157.710693359375 -731.7695922851563 2158.12841796875 -731.6320190429688 C 2157.736328125 -730.992431640625 2157.46484375 -730.2708129882813 2157.344970703125 -729.49951171875 C 2157.272216796875 -729.0278930664063 2157.638427734375 -728.6030883789063 2158.115478515625 -728.6030883789063 C 2158.204345703125 -728.6030883789063 2158.289794921875 -728.6179809570313 2158.36962890625 -728.6455078125 C 2158.36083984375 -728.5971069335938 2158.3525390625 -728.5484619140625 2158.344970703125 -728.4996337890625 C 2158.27197265625 -728.0280151367188 2158.638427734375 -727.6032104492188 2159.115234375 -727.6032104492188 C 2159.308837890625 -727.6032104492188 2159.486083984375 -727.6734008789063 2159.623779296875 -727.792236328125 C 2159.7607421875 -727.9110107421875 2159.85595703125 -728.0765991210938 2159.88671875 -728.2673950195313 C 2159.97314453125 -728.8154907226563 2160.163818359375 -729.32763671875 2160.438232421875 -729.7847900390625 C 2160.564453125 -730.0143432617188 2160.727294921875 -730.2374877929688 2160.910888671875 -730.4418334960938 C 2161.095458984375 -730.6452026367188 2161.301513671875 -730.8297119140625 2161.513916015625 -730.983642578125 C 2162.2177734375 -731.517333984375 2163.09326171875 -731.8367919921875 2164.04296875 -731.843994140625 C 2164.053955078125 -731.8440551757813 2164.06494140625 -731.8441162109375 2164.076171875 -731.8441162109375 C 2164.98876953125 -731.8441162109375 2165.8369140625 -731.5521240234375 2166.531494140625 -731.0564575195313 C 2167.024658203125 -730.365234375 2167.316162109375 -729.5211181640625 2167.31787109375 -728.6112060546875 C 2167.322509765625 -726.264892578125 2165.421630859375 -724.3613891601563 2163.076171875 -724.3613891601563 C 2162.612548828125 -724.3613891601563 2162.166015625 -724.4358520507813 2161.748291015625 -724.5734252929688 C 2162.140380859375 -725.2130126953125 2162.412109375 -725.9346313476563 2162.53173828125 -726.7059326171875 C 2162.604736328125 -727.177490234375 2162.23828125 -727.6032104492188 2161.761474609375 -727.6032104492188 M 2164.076171875 -718.802734375 C 2162.81689453125 -718.802734375 2161.574462890625 -719.0759887695313 2160.438232421875 -719.5909423828125 C 2159.302490234375 -719.0760498046875 2158.059814453125 -718.802734375 2156.800537109375 -718.802734375 C 2154.196533203125 -718.802734375 2151.77392578125 -719.9268798828125 2150.097412109375 -721.9000854492188 C 2148.124267578125 -723.5767822265625 2147.000244140625 -725.999267578125 2147.000244140625 -728.6030883789063 C 2147.000244140625 -733.4557495117188 2150.947998046875 -737.4036254882813 2155.800537109375 -737.4036254882813 C 2157.059326171875 -737.4036254882813 2158.3017578125 -737.1302490234375 2159.43798828125 -736.615234375 C 2160.57421875 -737.1303100585938 2161.816650390625 -737.4036254882813 2163.076171875 -737.4036254882813 C 2165.679931640625 -737.4036254882813 2168.102783203125 -736.2791137695313 2169.779541015625 -734.3052368164063 C 2171.75244140625 -732.6287231445313 2172.876708984375 -730.2064208984375 2172.876708984375 -727.6032104492188 C 2172.876708984375 -722.7506103515625 2168.9287109375 -718.802734375 2164.076171875 -718.802734375 Z"/></g><rect class="e" width="12" height="2" transform="translate(1350 2203)"/></g></svg>