<svg xmlns="http://www.w3.org/2000/svg" xmlns:xlink="http://www.w3.org/1999/xlink" width="42.078" height="41.515" viewBox="0 0 42.078 41.515"><defs><style>.a{fill:#b2b2b2;}.b{fill:none;}.c{fill:url(#a);}.d,.e{stroke:none;}.e{fill:#fff;}</style><linearGradient id="a" x1="0.5" x2="0.5" y2="1" gradientUnits="objectBoundingBox"><stop offset="0" stop-color="#b3d5f2"/><stop offset="0" stop-color="#5492fe"/><stop offset="1" stop-color="#2e72e8"/></linearGradient></defs><g transform="translate(-790 -2420)"><g transform="translate(0 159)"><rect class="b" width="40" height="40" transform="translate(790 2261)"/><circle class="a" cx="7" cy="7" r="7" transform="translate(803 2265)"/><path class="a" d="M-4842.978,8901.035h-15.457v-.022c0-.09,0-.175,0-.264a14.9,14.9,0,0,1,4.395-10.605,14.906,14.906,0,0,1,10.607-4.393,14.951,14.951,0,0,1,5.116.895,14.946,14.946,0,0,1,4.358,2.476l-8.582,9.3-.433,2.615Z" transform="translate(5653 -6604.035)"/><g class="c" transform="translate(813 2296.766)"><path class="d" d="M 0.5882607102394104 4.249639511108398 C 0.5881981253623962 4.249639511108398 0.5881423950195313 4.249639511108398 0.5880797505378723 4.249639511108398 C -0.02549024671316147 4.249579429626465 -0.6057402491569519 3.980399608612061 -1.003900289535522 3.511139631271362 C -1.401400208473206 3.042649507522583 -1.571980237960815 2.426039695739746 -1.471910238265991 1.819389581680298 L -0.867740273475647 -1.842690348625183 L -0.794630229473114 -2.285850286483765 L -0.489990234375 -2.615900278091431 L 10.80445957183838 -14.852370262146 L 10.82483959197998 -14.87445068359375 L 10.84607982635498 -14.89568996429443 C 11.44298934936523 -15.49255084991455 12.23627948760986 -15.82126045227051 13.07981014251709 -15.82126045227051 C 13.92339992523193 -15.82126045227051 14.71671962738037 -15.49252033233643 15.3136100769043 -14.89560031890869 L 16.63718032836914 -13.57258033752441 C 17.24160003662109 -12.96819019317627 17.57562065124512 -12.17072010040283 17.57790946960449 -11.32688045501709 C 17.58017539978027 -10.49556255340576 17.26151084899902 -9.712176322937012 16.6796817779541 -9.116559982299805 L 5.454749584197998 3.150009632110596 L 5.104389667510986 3.532889604568481 L 4.592329978942871 3.617369651794434 L 0.9303097724914551 4.221549510955811 C 0.817211925983429 4.240199565887451 0.7021893262863159 4.249639511108398 0.5882607102394104 4.249639511108398 Z"/><path class="e" d="M 13.07980823516846 -14.32126045227051 C 12.65534782409668 -14.32127571105957 12.23093032836914 -14.15919494628906 11.90670013427734 -13.83499050140381 L 0.6122493743896484 -1.598520278930664 L 0.008089065551757813 2.063529968261719 C -0.05219268798828125 2.42897891998291 0.233088493347168 2.749635696411133 0.5882301330566406 2.749635696411133 C 0.6203775405883789 2.749635696411133 0.6530399322509766 2.747014999389648 0.6861295700073242 2.741559982299805 L 4.348149299621582 2.13737964630127 L 15.5921802520752 -10.15006065368652 C 16.23931884765625 -10.79723072052002 16.2454891204834 -11.84298038482666 15.57673931121826 -12.51170063018799 L 14.2529296875 -13.8349609375 C 13.92877006530762 -14.15913581848145 13.50426864624023 -14.32124519348145 13.07980823516846 -14.32126045227051 M 13.07973003387451 -17.32126045227051 L 13.07979965209961 -17.32126045227051 C 14.32411956787109 -17.32122993469238 15.49413967132568 -16.83645057678223 16.37431907653809 -15.95621109008789 L 17.6976203918457 -14.63346004486084 C 18.58446884155273 -13.74665069580078 19.07452964782715 -12.57394027709961 19.07790946960449 -11.33096027374268 C 19.08122444152832 -10.11222839355469 18.6179256439209 -8.963807106018066 17.77139854431152 -8.087645530700684 L 6.561359405517578 4.162649154663086 L 5.860630035400391 4.928400039672852 L 4.83650016784668 5.097358703613281 L 1.174479484558105 5.701539993286133 C 0.9810895919799805 5.73345947265625 0.7838296890258789 5.749639511108398 0.5882301330566406 5.749639511108398 C -0.4666595458984375 5.749639511108398 -1.463800430297852 5.287519454956055 -2.147529602050781 4.481769561767578 C -2.830619812011719 3.676779747009277 -3.123809814453125 2.617399215698242 -2.951910018920898 1.575289726257324 L -2.347740173339844 -2.086850166320801 L -2.201509475708008 -2.973180770874023 L -1.592229843139648 -3.63329029083252 L 9.70221996307373 -15.86976051330566 L 9.742969512939453 -15.91390037536621 L 9.785449981689453 -15.95638084411621 C 10.66565990447998 -16.8365306854248 11.83559036254883 -17.32126045227051 13.07973003387451 -17.32126045227051 Z"/></g></g></g></svg>