<svg xmlns="http://www.w3.org/2000/svg" width="40.001" height="40" viewBox="0 0 40.001 40"><defs><style>.a{fill:none;}.b{fill:#b2b2b2;}.c{fill:#2f58b8;}</style></defs><rect class="a" width="40" height="40"/><g transform="translate(-707 -2328)"><path class="b" d="M29.793,21H2.208A2.2,2.2,0,0,1,0,18.8V0L16,9.855,32,0V18.8A2.2,2.2,0,0,1,29.793,21Z" transform="translate(711 2331.394)"/><path class="b" d="M-2915.375,3150.833-2930.25,3142h30Z" transform="translate(3642.25 -813)"/><path class="c" d="M4258-1560.5v-5h2v-3.5h-12v3.5h2v5h-8v-5h2v-3.5h-12v3.5h2v5h-8v-5h2v-7.5h36v7.5h2v5Z" transform="translate(-3519 3928.5)"/></g></svg>