<svg xmlns="http://www.w3.org/2000/svg" width="40" height="40" viewBox="0 0 40 40"><defs><style>.a{fill:none;}.b{fill:#b2b2b2;}.c,.f{fill:#fff;}.d{fill:#2f58b8;}.e,.f{stroke:none;}</style></defs><rect class="a" width="40" height="40"/><g transform="translate(-725 -1945)"><rect class="b" width="24" height="37" transform="translate(739 1947)"/><rect class="c" width="10" height="3" transform="translate(746 1951)"/><g class="d" transform="translate(726 1956)"><path class="e" d="M 20.5 20.5 L 11.00059986114502 20.5 C 5.761950016021729 20.5 1.5 16.23864936828613 1.5 11.0007495880127 C 1.5 5.762020111083984 5.761950016021729 1.5 11.00059986114502 1.5 C 16.23859024047852 1.5 20.5 5.762020111083984 20.5 11.0007495880127 L 20.5 20.5 Z"/><path class="f" d="M 19 19 L 19 11.0007495880127 C 19 6.589119911193848 15.41147994995117 3 11.00059986114502 3 C 6.589049816131592 3 3 6.589119911193848 3 11.0007495880127 C 3 15.41154956817627 6.589049816131592 19 11.00059986114502 19 L 19 19 M 22 22 L 11.00059986114502 22 C 4.923500061035156 22 -1.77635683940025e-15 17.07559967041016 -1.77635683940025e-15 11.0007495880127 C -1.77635683940025e-15 4.92588996887207 4.923500061035156 -1.77635683940025e-15 11.00059986114502 -1.77635683940025e-15 C 17.07530975341797 -1.77635683940025e-15 22 4.92588996887207 22 11.0007495880127 L 22 22 Z"/></g><g transform="translate(732.583 1965.75)"><circle class="c" cx="1" cy="1" r="1" transform="translate(-0.583 0.25)"/><circle class="c" cx="1" cy="1" r="1" transform="translate(3.417 0.25)"/><circle class="c" cx="1" cy="1" r="1" transform="translate(7.417 0.25)"/></g></g></svg>