<svg xmlns="http://www.w3.org/2000/svg" xmlns:xlink="http://www.w3.org/1999/xlink" width="43" height="42.416" viewBox="0 0 43 42.416"><defs><style>.a{fill:#b2b2b2;}.b{fill:none;}.c{fill:url(#a);}.d,.e{stroke:none;}.e{fill:#fff;}</style><linearGradient id="a" x1="0.5" x2="0.5" y2="1" gradientUnits="objectBoundingBox"><stop offset="0" stop-color="#b3d5f2"/><stop offset="0" stop-color="#5492fe"/><stop offset="1" stop-color="#2e72e8"/></linearGradient></defs><g transform="translate(-790 -2261)"><rect class="b" width="40" height="40" transform="translate(790 2261)"/><circle class="a" cx="7" cy="7" r="7" transform="translate(803 2265)"/><path class="a" d="M-4840.662,8898h-17.773c0-.094,0-.191,0-.286a14.9,14.9,0,0,1,4.394-10.605,14.9,14.9,0,0,1,10.605-4.394,14.856,14.856,0,0,1,6.606,1.529A10.006,10.006,0,0,0-4842,8893a9.993,9.993,0,0,0,1.336,5Z" transform="translate(5653 -6601)"/><g class="c" transform="translate(813.322 2309.91)"><path class="d" d="M 8.886564254760742 -7.994119167327881 C 8.174225807189941 -7.994119167327881 7.462779521942139 -8.07221508026123 6.771910667419434 -8.226248741149902 C 5.910771369934082 -8.415596008300781 5.286124229431152 -9.19263744354248 5.286124229431152 -10.07513904571533 L 5.286124229431152 -10.70764636993408 C 5.082245349884033 -10.81340217590332 4.883226871490479 -10.92830848693848 4.689657211303711 -11.05202388763428 L 4.145076274871826 -10.73753643035889 C 3.858263254165649 -10.57087898254395 3.530974626541138 -10.48280906677246 3.198374032974243 -10.48280906677246 C 2.671574115753174 -10.48280906677246 2.164094209671021 -10.70435905456543 1.806064128875732 -11.09066867828369 C 0.8356641530990601 -12.14357852935791 0.1010041311383247 -13.41449928283691 -0.3213358819484711 -14.76909923553467 L -0.3244658708572388 -14.77914905548096 L -0.3274658620357513 -14.78923892974854 C -0.5790389776229858 -15.6378698348999 -0.221210315823555 -16.53595352172852 0.5427792072296143 -16.97506713867188 L 1.090782642364502 -17.29151725769043 C 1.080665111541748 -17.520263671875 1.080665111541748 -17.74929428100586 1.090782642364502 -17.9780387878418 L 0.5450714826583862 -18.29316329956055 C -0.2198878079652786 -18.73155212402344 -0.5838067531585693 -19.65831756591797 -0.3216948509216309 -20.49931907653809 L -0.321695864200592 -20.49931907653809 C 0.100541390478611 -21.85735130310059 0.8349166512489319 -23.12817764282227 1.802245378494263 -24.17476463317871 C 2.159463167190552 -24.56441879272461 2.666174173355103 -24.78764915466309 3.194514036178589 -24.78764915466309 C 3.52372407913208 -24.78764915466309 3.84934401512146 -24.70102882385254 4.136174201965332 -24.53714942932129 L 4.139813899993896 -24.53506851196289 L 4.143444061279297 -24.53296852111816 L 4.690493583679199 -24.21633148193359 C 4.882995128631592 -24.33897590637207 5.080554962158203 -24.45304679870605 5.282854080200195 -24.55835723876953 L 5.282854080200195 -25.19441986083984 C 5.282854080200195 -26.07539939880371 5.905520439147949 -26.85137557983398 6.764410972595215 -27.04240417480469 C 7.456401348114014 -27.19704437255859 8.169528007507324 -27.27544975280762 8.884054183959961 -27.27544975280762 C 9.596818923950195 -27.27544975280762 10.30866241455078 -27.19727325439453 10.99989986419678 -27.04307174682617 C 11.86042022705078 -26.85324478149414 12.48447418212891 -26.07647705078125 12.48447418212891 -25.19441986083984 L 12.48447418212891 -24.56519889831543 C 12.68841361999512 -24.45942115783691 12.88734340667725 -24.34457015991211 13.08095932006836 -24.22082710266113 L 13.6281270980835 -24.53678512573242 C 13.91434288024902 -24.70249176025391 14.24064350128174 -24.7900390625 14.57226371765137 -24.7900390625 C 15.09913444519043 -24.7900390625 15.60664367675781 -24.56843948364258 15.96467399597168 -24.18203926086426 C 16.93488502502441 -23.12936973571777 17.6695442199707 -21.85846900939941 18.09195327758789 -20.50379943847656 L 18.09513473510742 -20.49358940124512 L 18.09817504882813 -20.48332977294922 C 18.34975433349609 -19.63405799865723 17.99106788635254 -18.7352409362793 17.2258358001709 -18.29662895202637 L 16.67982292175293 -17.98132514953613 C 16.68994140625 -17.7525806427002 16.68994140625 -17.52355575561523 16.67982292175293 -17.2948112487793 L 17.22756004333496 -16.97850799560547 C 17.97666358947754 -16.54806900024414 18.33963203430176 -15.66150951385498 18.11036491394043 -14.82088851928711 L 18.10342407226563 -14.79542922973633 L 18.09559440612793 -14.77023887634277 C 17.67333030700684 -13.41212368011475 16.9388256072998 -12.14115238189697 15.97140884399414 -11.09453010559082 C 15.6142110824585 -10.70505809783936 15.10758495330811 -10.48191928863525 14.57939434051514 -10.48191928863525 C 14.57936191558838 -10.48191928863525 14.57935619354248 -10.48191928863525 14.57932376861572 -10.48191928863525 C 14.25012397766113 -10.48191928863525 13.92452430725098 -10.56853866577148 13.63772392272949 -10.73240852355957 L 13.63473415374756 -10.7341194152832 L 13.63174438476563 -10.73584938049316 L 13.08108615875244 -11.05384540557861 C 12.88830089569092 -10.93098163604736 12.69036293029785 -10.81667423248291 12.48774433135986 -10.71120071411133 L 12.48774433135986 -10.07513904571533 C 12.48774433135986 -9.193230628967285 11.86394882202148 -8.41663932800293 11.00371646881104 -8.226629257202148 C 10.31249904632568 -8.072342872619629 9.600217819213867 -7.994119167327881 8.886564254760742 -7.994119167327881 Z M 8.883664131164551 -18.76407814025879 C 8.262784004211426 -18.76407814025879 7.757654190063477 -18.25894927978516 7.757654190063477 -17.63806915283203 C 7.757654190063477 -17.01717948913574 8.262784004211426 -16.51204872131348 8.883664131164551 -16.51204872131348 C 9.504544258117676 -16.51204872131348 10.00967407226563 -17.01717948913574 10.00967407226563 -17.63806915283203 C 10.00967407226563 -18.25894927978516 9.504544258117676 -18.76407814025879 8.883664131164551 -18.76407814025879 Z"/><path class="e" d="M 8.88655948638916 -9.49411678314209 C 9.496658325195313 -9.49411678314209 10.09919738769531 -9.561469078063965 10.67920398712158 -9.691108703613281 C 10.85974407196045 -9.73047924041748 10.98774433135986 -9.891328811645508 10.98774433135986 -10.07513904571533 L 10.98774433135986 -11.69014930725098 C 11.71646404266357 -11.94947910308838 12.39268398284912 -12.34007930755615 12.98353385925293 -12.84232902526855 L 14.38187408447266 -12.03480911254883 C 14.44403266906738 -11.99929332733154 14.51207733154297 -11.98191547393799 14.5793628692627 -11.98191452026367 C 14.68620586395264 -11.98191165924072 14.79114723205566 -12.02572250366211 14.86767387390137 -12.1102991104126 C 15.67846393585205 -12.98673915863037 16.29887390136719 -14.04370880126953 16.66322326660156 -15.21557903289795 C 16.71246337890625 -15.39611911773682 16.64023399353027 -15.58648872375488 16.47941398620605 -15.67839908599854 L 15.08104419708252 -16.48591804504395 C 15.22218418121338 -17.24742889404297 15.22218418121338 -18.02869987487793 15.08104419708252 -18.79021835327148 L 16.47941398620605 -19.59772872924805 C 16.64023399353027 -19.68963813781738 16.71246337890625 -19.88001823425293 16.65995407104492 -20.05727958679199 C 16.29557418823242 -21.22584915161133 15.67519378662109 -22.2828197479248 14.86440372467041 -23.16252899169922 C 14.78731441497803 -23.24572563171387 14.6801061630249 -23.29004287719727 14.572265625 -23.29004287719727 C 14.50563621520996 -23.29004287719727 14.43877220153809 -23.27313041687012 14.3786039352417 -23.23801803588867 L 12.98023414611816 -22.43053817749023 C 12.39268398284912 -22.93604850769043 11.71646404266357 -23.32665824890137 10.98447418212891 -23.58267974853516 L 10.98447418212891 -25.19441986083984 C 10.98447418212891 -25.37822914123535 10.85644435882568 -25.5390796661377 10.67590427398682 -25.5784797668457 C 10.08114719390869 -25.71135711669922 9.47900390625 -25.77544784545898 8.88405704498291 -25.77544784545898 C 8.273957252502441 -25.77544784545898 7.67141580581665 -25.70810317993164 7.091423988342285 -25.5784797668457 C 6.910883903503418 -25.5390796661377 6.782854080200195 -25.37822914123535 6.782854080200195 -25.19441986083984 L 6.782854080200195 -23.57941818237305 C 6.054134368896484 -23.3200798034668 5.377943992614746 -22.92947959899902 4.787094116210938 -22.42726898193359 L 3.392024040222168 -23.23474884033203 C 3.329865694046021 -23.270263671875 3.261798858642578 -23.28765296936035 3.194513559341431 -23.28765296936035 C 3.087670803070068 -23.28765296936035 2.982750654220581 -23.24385452270508 2.906224012374878 -23.15925979614258 C 2.095434188842773 -22.2828197479248 1.475024104118347 -21.22584915161133 1.110674142837524 -20.05397987365723 C 1.054864168167114 -19.87674903869629 1.130364179611206 -19.68636894226074 1.291214108467102 -19.59442901611328 L 2.689554214477539 -18.78694915771484 C 2.54841423034668 -18.02539825439453 2.54841423034668 -17.24415969848633 2.689554214477539 -16.48261833190918 L 1.291214108467102 -15.67512893676758 C 1.130364179611206 -15.58322906494141 1.058134078979492 -15.39280891418457 1.110674142837524 -15.21557903289795 C 1.475024104118347 -14.04697895050049 2.095434188842773 -12.99003887176514 2.906224012374878 -12.1102991104126 C 2.983314037322998 -12.02712059020996 3.090538501739502 -11.98280620574951 3.198378562927246 -11.98280620574951 C 3.265007734298706 -11.98280620574951 3.331856250762939 -11.9997091293335 3.392024040222168 -12.03480911254883 L 4.790364265441895 -12.84232902526855 C 5.377943992614746 -12.3368091583252 6.054134368896484 -11.94616889953613 6.786124229431152 -11.69014930725098 L 6.786124229431152 -10.07513904571533 C 6.786124229431152 -9.891328811645508 6.914154052734375 -9.73047924041748 7.094694137573242 -9.691108703613281 C 7.689465522766113 -9.558216094970703 8.291611671447754 -9.49411678314209 8.88655948638916 -9.49411678314209 M 8.883664131164551 -20.26407814025879 C 10.33123397827148 -20.26407814025879 11.50967407226563 -19.08563804626465 11.50967407226563 -17.63806915283203 C 11.50967407226563 -16.19048881530762 10.33123397827148 -15.01204872131348 8.883664131164551 -15.01204872131348 C 7.436084270477295 -15.01204872131348 6.257654190063477 -16.19048881530762 6.257654190063477 -17.63806915283203 C 6.257654190063477 -19.08563804626465 7.436084270477295 -20.26407814025879 8.883664131164551 -20.26407814025879 M 8.886564254760742 -6.494119167327881 C 8.065126419067383 -6.494119167327881 7.244338035583496 -6.584212303161621 6.446938991546631 -6.761870861053467 C 5.693974494934082 -6.928136825561523 5.014031410217285 -7.350926399230957 4.531564235687256 -7.953049182891846 C 4.265888690948486 -8.284608840942383 4.066165447235107 -8.663180351257324 3.940660953521729 -9.065210342407227 C 3.697975873947144 -9.010699272155762 3.448980808258057 -8.982809066772461 3.198374032974243 -8.982809066772461 C 2.255324125289917 -8.982809066772461 1.346844077110291 -9.379459381103516 0.7058841586112976 -10.07105922698975 L 0.7030441164970398 -10.07411861419678 L 0.700214147567749 -10.07718944549561 C -0.416895866394043 -11.28929901123047 -1.265325903892517 -12.75734901428223 -1.753345847129822 -14.32262897491455 L -1.759615898132324 -14.34271907806396 L -1.76559591293335 -14.3629093170166 C -2.115254878997803 -15.54238605499268 -1.805842161178589 -16.77588653564453 -1.008374094963074 -17.63652038574219 C -1.291036605834961 -17.94318771362305 -1.517361283302307 -18.30131340026855 -1.671515822410583 -18.69261932373047 C -1.954728960990906 -19.4115161895752 -1.983298063278198 -20.21335220336914 -1.752113103866577 -20.95089721679688 C -1.26421594619751 -22.51675224304199 -0.4174590408802032 -23.98198509216309 0.6972302794456482 -25.18913650512695 C 1.337911367416382 -25.88755416870117 2.246729612350464 -26.28764915466309 3.194514036178589 -26.28764915466309 C 3.445049285888672 -26.28764915466309 3.694385290145874 -26.25968170166016 3.937613248825073 -26.20504951477051 C 4.063123226165771 -26.60681915283203 4.262737274169922 -26.98507690429688 4.528244018554688 -27.31644821166992 C 5.010188102722168 -27.91795539855957 5.689210414886475 -28.34051895141602 6.441235065460205 -28.50718116760254 C 7.239211082458496 -28.68519401550293 8.061053276062012 -28.77544975280762 8.884054183959961 -28.77544975280762 C 9.705693244934082 -28.77544975280762 10.52656841278076 -28.68534278869629 11.32412052154541 -28.50761795043945 C 12.07691669464111 -28.34125328063965 12.75672626495361 -27.91847229003906 13.23908424377441 -27.31644821166992 C 13.50406265258789 -26.98573684692383 13.7034215927124 -26.60828971862793 13.82897663116455 -26.20741081237793 C 14.07197856903076 -26.26207160949707 14.32131099700928 -26.2900390625 14.57226371765137 -26.2900390625 C 15.51545429229736 -26.2900390625 16.42401504516602 -25.89328956604004 17.06498336791992 -25.20150947570801 L 17.06768417358398 -25.19859886169434 L 17.07037353515625 -25.1956787109375 C 18.18741416931152 -23.98367881774902 19.03585433959961 -22.51565933227539 19.52395439147949 -20.95031929016113 L 19.53032493591309 -20.92988967895508 L 19.53640365600586 -20.90936851501465 C 19.88568687438965 -19.73027992248535 19.57639503479004 -18.49723243713379 18.77931785583496 -17.63674163818359 C 19.55723190307617 -16.79180526733398 19.87329483032227 -15.58405113220215 19.55750465393066 -14.42619895935059 L 19.54362487792969 -14.37528896331787 L 19.5279541015625 -14.3248987197876 C 19.04048728942871 -12.75704765319824 18.19319915771484 -11.28983688354492 17.07741355895996 -10.08122825622559 C 16.43669128417969 -9.382350921630859 15.52749633789063 -8.981919288635254 14.5794038772583 -8.981919288635254 C 14.3277759552002 -8.981919288635254 14.07743835449219 -9.010110855102539 13.83320999145508 -9.065208435058594 C 13.70773029327393 -8.663209915161133 13.50807476043701 -8.284751892089844 13.24245452880859 -7.953208923339844 C 12.76021289825439 -7.351291656494141 12.0806303024292 -6.92856502532959 11.32803726196289 -6.762109279632568 C 10.53050994873047 -6.584281444549561 9.709112167358398 -6.494119167327881 8.886564254760742 -6.494119167327881 Z"/></g></g></svg>