<svg xmlns="http://www.w3.org/2000/svg" width="43" height="40.999" viewBox="0 0 43 40.999"><defs><style>.a{fill:none;}.b{fill:#b2b2b2;}.c{fill:#2f58b8;}.d,.e{stroke:none;}.e{fill:#fff;}</style></defs><g transform="translate(2 0)"><rect class="a" width="40" height="40"/><g transform="translate(-730 -2199)"><g class="b" transform="translate(-3498 3775)"><path class="d" d="M 4251.46533203125 -1549.500854492188 L 4249.9970703125 -1549.500854492188 L 4229.00390625 -1549.500854492188 L 4227.55859375 -1549.500854492188 L 4227.5048828125 -1550.944946289063 C 4227.50146484375 -1551.04443359375 4227.49951171875 -1551.150024414063 4227.49951171875 -1551.277099609375 C 4227.49951171875 -1554.48291015625 4228.748046875 -1557.496704101563 4231.0146484375 -1559.76318359375 C 4232.68994140625 -1561.4384765625 4234.7734375 -1562.557373046875 4237.041015625 -1563.027099609375 C 4234.95556640625 -1563.968139648438 4233.50048828125 -1566.067138671875 4233.50048828125 -1568.499633789063 C 4233.50048828125 -1571.807983398438 4236.19189453125 -1574.499633789063 4239.50048828125 -1574.499633789063 C 4242.80908203125 -1574.499633789063 4245.50048828125 -1571.807983398438 4245.50048828125 -1568.499633789063 C 4245.50048828125 -1566.067016601563 4244.04541015625 -1563.967895507813 4241.9599609375 -1563.027099609375 C 4244.22705078125 -1562.557250976563 4246.31005859375 -1561.438354492188 4247.98486328125 -1559.76318359375 C 4250.251953125 -1557.49658203125 4251.5 -1554.482788085938 4251.5 -1551.277099609375 C 4251.5 -1551.173583984375 4251.4990234375 -1551.071166992188 4251.49658203125 -1550.968994140625 L 4251.46533203125 -1549.500854492188 Z"/><path class="e" d="M 4249.9970703125 -1551.000854492188 C 4249.9990234375 -1551.092529296875 4250 -1551.184326171875 4250 -1551.277099609375 C 4250 -1557.077270507813 4245.29833984375 -1561.77783203125 4239.50048828125 -1561.77783203125 C 4233.701171875 -1561.77783203125 4228.99951171875 -1557.077270507813 4228.99951171875 -1551.277099609375 C 4228.99951171875 -1551.184326171875 4229.00048828125 -1551.092529296875 4229.00390625 -1551.000854492188 L 4249.9970703125 -1551.000854492188 M 4239.50048828125 -1563.999633789063 C 4241.9853515625 -1563.999633789063 4244.00048828125 -1566.014404296875 4244.00048828125 -1568.499633789063 C 4244.00048828125 -1570.98486328125 4241.9853515625 -1572.999633789063 4239.50048828125 -1572.999633789063 C 4237.01513671875 -1572.999633789063 4235.00048828125 -1570.98486328125 4235.00048828125 -1568.499633789063 C 4235.00048828125 -1566.014404296875 4237.01513671875 -1563.999633789063 4239.50048828125 -1563.999633789063 M 4252.93408203125 -1548.000854492188 L 4249.9970703125 -1548.000854492188 L 4229.00390625 -1548.000854492188 L 4226.11376953125 -1548.000854492188 L 4226.005859375 -1550.889038085938 C 4226.00146484375 -1551.007568359375 4225.99951171875 -1551.130981445313 4225.99951171875 -1551.277099609375 C 4225.99951171875 -1554.883544921875 4227.40380859375 -1558.274047851563 4229.9541015625 -1560.823974609375 C 4231.10595703125 -1561.975708007813 4232.42919921875 -1562.893676757813 4233.86669921875 -1563.55419921875 C 4232.70556640625 -1564.875244140625 4232.00048828125 -1566.606811523438 4232.00048828125 -1568.499633789063 C 4232.00048828125 -1572.635131835938 4235.36474609375 -1575.999633789063 4239.50048828125 -1575.999633789063 C 4243.63623046875 -1575.999633789063 4247.00048828125 -1572.635131835938 4247.00048828125 -1568.499633789063 C 4247.00048828125 -1566.606567382813 4246.29541015625 -1564.875 4245.13427734375 -1563.553833007813 C 4246.5712890625 -1562.893432617188 4247.89404296875 -1561.975463867188 4249.0458984375 -1560.823852539063 C 4251.595703125 -1558.27392578125 4253 -1554.883422851563 4253 -1551.277099609375 C 4253 -1551.1640625 4252.9990234375 -1551.049560546875 4252.99658203125 -1550.93701171875 L 4252.93408203125 -1548.000854492188 Z"/></g><g class="b" transform="translate(-3482 3775)"><path class="d" d="M 4251.46533203125 -1549.500854492188 L 4249.9970703125 -1549.500854492188 L 4229.00390625 -1549.500854492188 L 4227.55859375 -1549.500854492188 L 4227.5048828125 -1550.944946289063 C 4227.50146484375 -1551.04443359375 4227.49951171875 -1551.150024414063 4227.49951171875 -1551.277099609375 C 4227.49951171875 -1554.48291015625 4228.748046875 -1557.496704101563 4231.0146484375 -1559.76318359375 C 4232.68994140625 -1561.4384765625 4234.7734375 -1562.557373046875 4237.041015625 -1563.027099609375 C 4234.95556640625 -1563.968139648438 4233.50048828125 -1566.067138671875 4233.50048828125 -1568.499633789063 C 4233.50048828125 -1571.807983398438 4236.19189453125 -1574.499633789063 4239.50048828125 -1574.499633789063 C 4242.80908203125 -1574.499633789063 4245.50048828125 -1571.807983398438 4245.50048828125 -1568.499633789063 C 4245.50048828125 -1566.067016601563 4244.04541015625 -1563.967895507813 4241.9599609375 -1563.027099609375 C 4244.22705078125 -1562.557250976563 4246.31005859375 -1561.438354492188 4247.98486328125 -1559.76318359375 C 4250.251953125 -1557.49658203125 4251.5 -1554.482788085938 4251.5 -1551.277099609375 C 4251.5 -1551.173583984375 4251.4990234375 -1551.071166992188 4251.49658203125 -1550.968994140625 L 4251.46533203125 -1549.500854492188 Z"/><path class="e" d="M 4249.9970703125 -1551.000854492188 C 4249.9990234375 -1551.092529296875 4250 -1551.184326171875 4250 -1551.277099609375 C 4250 -1557.077270507813 4245.29833984375 -1561.77783203125 4239.50048828125 -1561.77783203125 C 4233.701171875 -1561.77783203125 4228.99951171875 -1557.077270507813 4228.99951171875 -1551.277099609375 C 4228.99951171875 -1551.184326171875 4229.00048828125 -1551.092529296875 4229.00390625 -1551.000854492188 L 4249.9970703125 -1551.000854492188 M 4239.50048828125 -1563.999633789063 C 4241.9853515625 -1563.999633789063 4244.00048828125 -1566.014404296875 4244.00048828125 -1568.499633789063 C 4244.00048828125 -1570.98486328125 4241.9853515625 -1572.999633789063 4239.50048828125 -1572.999633789063 C 4237.01513671875 -1572.999633789063 4235.00048828125 -1570.98486328125 4235.00048828125 -1568.499633789063 C 4235.00048828125 -1566.014404296875 4237.01513671875 -1563.999633789063 4239.50048828125 -1563.999633789063 M 4252.93408203125 -1548.000854492188 L 4249.9970703125 -1548.000854492188 L 4229.00390625 -1548.000854492188 L 4226.11376953125 -1548.000854492188 L 4226.005859375 -1550.889038085938 C 4226.00146484375 -1551.007568359375 4225.99951171875 -1551.130981445313 4225.99951171875 -1551.277099609375 C 4225.99951171875 -1554.883544921875 4227.40380859375 -1558.274047851563 4229.9541015625 -1560.823974609375 C 4231.10595703125 -1561.975708007813 4232.42919921875 -1562.893676757813 4233.86669921875 -1563.55419921875 C 4232.70556640625 -1564.875244140625 4232.00048828125 -1566.606811523438 4232.00048828125 -1568.499633789063 C 4232.00048828125 -1572.635131835938 4235.36474609375 -1575.999633789063 4239.50048828125 -1575.999633789063 C 4243.63623046875 -1575.999633789063 4247.00048828125 -1572.635131835938 4247.00048828125 -1568.499633789063 C 4247.00048828125 -1566.606567382813 4246.29541015625 -1564.875 4245.13427734375 -1563.553833007813 C 4246.5712890625 -1562.893432617188 4247.89404296875 -1561.975463867188 4249.0458984375 -1560.823852539063 C 4251.595703125 -1558.27392578125 4253 -1554.883422851563 4253 -1551.277099609375 C 4253 -1551.1640625 4252.9990234375 -1551.049560546875 4252.99658203125 -1550.93701171875 L 4252.93408203125 -1548.000854492188 Z"/></g><g class="c" transform="translate(-3490 3788)"><path class="d" d="M 4251.46533203125 -1549.500854492188 L 4249.9970703125 -1549.500854492188 L 4229.00390625 -1549.500854492188 L 4227.55859375 -1549.500854492188 L 4227.5048828125 -1550.944946289063 C 4227.50146484375 -1551.04443359375 4227.49951171875 -1551.150024414063 4227.49951171875 -1551.277099609375 C 4227.49951171875 -1554.48291015625 4228.748046875 -1557.496704101563 4231.0146484375 -1559.76318359375 C 4232.68994140625 -1561.4384765625 4234.7734375 -1562.557373046875 4237.041015625 -1563.027099609375 C 4234.95556640625 -1563.968139648438 4233.50048828125 -1566.067138671875 4233.50048828125 -1568.499633789063 C 4233.50048828125 -1571.807983398438 4236.19189453125 -1574.499633789063 4239.50048828125 -1574.499633789063 C 4242.80908203125 -1574.499633789063 4245.50048828125 -1571.807983398438 4245.50048828125 -1568.499633789063 C 4245.50048828125 -1566.067016601563 4244.04541015625 -1563.967895507813 4241.9599609375 -1563.027099609375 C 4244.22705078125 -1562.557250976563 4246.31005859375 -1561.438354492188 4247.98486328125 -1559.76318359375 C 4250.251953125 -1557.49658203125 4251.5 -1554.482788085938 4251.5 -1551.277099609375 C 4251.5 -1551.173583984375 4251.4990234375 -1551.071166992188 4251.49658203125 -1550.968994140625 L 4251.46533203125 -1549.500854492188 Z"/><path class="e" d="M 4249.9970703125 -1551.000854492188 C 4249.9990234375 -1551.092529296875 4250 -1551.184326171875 4250 -1551.277099609375 C 4250 -1557.077270507813 4245.29833984375 -1561.77783203125 4239.50048828125 -1561.77783203125 C 4233.701171875 -1561.77783203125 4228.99951171875 -1557.077270507813 4228.99951171875 -1551.277099609375 C 4228.99951171875 -1551.184326171875 4229.00048828125 -1551.092529296875 4229.00390625 -1551.000854492188 L 4249.9970703125 -1551.000854492188 M 4239.50048828125 -1563.999633789063 C 4241.9853515625 -1563.999633789063 4244.00048828125 -1566.014404296875 4244.00048828125 -1568.499633789063 C 4244.00048828125 -1570.98486328125 4241.9853515625 -1572.999633789063 4239.50048828125 -1572.999633789063 C 4237.01513671875 -1572.999633789063 4235.00048828125 -1570.98486328125 4235.00048828125 -1568.499633789063 C 4235.00048828125 -1566.014404296875 4237.01513671875 -1563.999633789063 4239.50048828125 -1563.999633789063 M 4252.93408203125 -1548.000854492188 L 4249.9970703125 -1548.000854492188 L 4229.00390625 -1548.000854492188 L 4226.11376953125 -1548.000854492188 L 4226.005859375 -1550.889038085938 C 4226.00146484375 -1551.007568359375 4225.99951171875 -1551.130981445313 4225.99951171875 -1551.277099609375 C 4225.99951171875 -1554.883544921875 4227.40380859375 -1558.274047851563 4229.9541015625 -1560.823974609375 C 4231.10595703125 -1561.975708007813 4232.42919921875 -1562.893676757813 4233.86669921875 -1563.55419921875 C 4232.70556640625 -1564.875244140625 4232.00048828125 -1566.606811523438 4232.00048828125 -1568.499633789063 C 4232.00048828125 -1572.635131835938 4235.36474609375 -1575.999633789063 4239.50048828125 -1575.999633789063 C 4243.63623046875 -1575.999633789063 4247.00048828125 -1572.635131835938 4247.00048828125 -1568.499633789063 C 4247.00048828125 -1566.606567382813 4246.29541015625 -1564.875 4245.13427734375 -1563.553833007813 C 4246.5712890625 -1562.893432617188 4247.89404296875 -1561.975463867188 4249.0458984375 -1560.823852539063 C 4251.595703125 -1558.27392578125 4253 -1554.883422851563 4253 -1551.277099609375 C 4253 -1551.1640625 4252.9990234375 -1551.049560546875 4252.99658203125 -1550.93701171875 L 4252.93408203125 -1548.000854492188 Z"/></g></g></g></svg>