<svg xmlns="http://www.w3.org/2000/svg" xmlns:xlink="http://www.w3.org/1999/xlink" width="47.398" height="40.439" viewBox="0 0 47.398 40.439"><defs><style>.a{fill:none;}.b{fill:#b2b2b2;}.c,.f{fill:#fff;}.d{stroke-linecap:round;stroke-linejoin:round;fill:url(#a);}.e,.f{stroke:none;}</style><linearGradient id="a" x1="0.5" x2="0.5" y2="1" gradientUnits="objectBoundingBox"><stop offset="0" stop-color="#b3d5f2"/><stop offset="0" stop-color="#5492fe"/><stop offset="1" stop-color="#2e72e8"/></linearGradient></defs><g transform="translate(-1493 -1743)"><rect class="a" width="40" height="40" transform="translate(1493 1743)"/><rect class="b" width="28" height="28" rx="3" transform="translate(1495 1749)"/><path class="c" d="M0,0H4V4H0Z" transform="translate(1500 1755)"/><rect class="c" width="4" height="4" transform="translate(1500 1763)"/><g class="d" transform="translate(-2215.303 784)"><path class="e" d="M 3736.8017578125 997.6488037109375 L 3735.98291015625 997.1151123046875 L 3727.181640625 991.3795166015625 L 3722.951416015625 988.622802734375 L 3728.00048828125 988.622802734375 L 3731.819091796875 988.622802734375 L 3731.819091796875 983.1801147460938 L 3731.802978515625 983.1801147460938 L 3731.802978515625 981.6801147460938 L 3731.802978515625 977.8624267578125 L 3731.802978515625 976.3624267578125 L 3731.802978515625 975 L 3731.802978515625 973.5 L 3733.302978515625 973.5 L 3740.303466796875 973.5 L 3741.803466796875 973.5 L 3741.803466796875 975 L 3741.803466796875 976.9088745117188 L 3741.803466796875 978.4088745117188 L 3741.803466796875 981.6801147460938 L 3741.803466796875 983.1801147460938 L 3741.78369140625 983.1801147460938 L 3741.78369140625 988.622802734375 L 3745.603271484375 988.622802734375 L 3750.652587890625 988.622802734375 L 3746.422119140625 991.3795166015625 L 3737.62060546875 997.1151123046875 L 3736.8017578125 997.6488037109375 Z"/><path class="f" d="M 3736.8017578125 995.8583984375 L 3745.603271484375 990.122802734375 L 3740.28369140625 990.122802734375 L 3740.28369140625 982.7583618164063 L 3733.319091796875 982.7583618164063 L 3733.319091796875 990.122802734375 L 3728.00048828125 990.122802734375 L 3736.8017578125 995.8583984375 M 3740.303466796875 981.6801147460938 L 3740.303466796875 977.8624267578125 L 3733.302978515625 977.8624267578125 L 3733.302978515625 981.6801147460938 L 3740.303466796875 981.6801147460938 M 3740.303466796875 976.9088745117188 L 3740.303466796875 975 L 3733.302978515625 975 L 3733.302978515625 976.9088745117188 L 3740.303466796875 976.9088745117188 M 3736.8017578125 998.8583984375 C 3736.231689453125 998.8583984375 3735.66162109375 998.6962280273438 3735.163818359375 998.371826171875 L 3726.362548828125 992.6361694335938 C 3725.250244140625 991.9112548828125 3724.74658203125 990.541259765625 3725.124755859375 989.2684326171875 C 3725.5029296875 987.9956665039063 3726.672607421875 987.122802734375 3728.00048828125 987.122802734375 L 3730.319091796875 987.122802734375 L 3730.319091796875 982.7583618164063 C 3730.319091796875 982.5899047851563 3730.3330078125 982.4244995117188 3730.359619140625 982.2636108398438 C 3730.322509765625 982.0748901367188 3730.302978515625 981.8797607421875 3730.302978515625 981.6801147460938 L 3730.302978515625 977.8624267578125 C 3730.302978515625 977.7001953125 3730.31591796875 977.5408935546875 3730.340576171875 977.3856811523438 C 3730.31591796875 977.2304077148438 3730.302978515625 977.0711059570313 3730.302978515625 976.9088745117188 L 3730.302978515625 975 C 3730.302978515625 973.3431396484375 3731.646240234375 972 3733.302978515625 972 L 3740.303466796875 972 C 3741.960205078125 972 3743.303466796875 973.3431396484375 3743.303466796875 975 L 3743.303466796875 976.9088745117188 C 3743.303466796875 977.0711059570313 3743.29052734375 977.2304077148438 3743.265869140625 977.3856811523438 C 3743.29052734375 977.5408935546875 3743.303466796875 977.7001953125 3743.303466796875 977.8624267578125 L 3743.303466796875 981.6801147460938 C 3743.303466796875 981.8833618164063 3743.283203125 982.081787109375 3743.24462890625 982.2737426757813 C 3743.270263671875 982.4315185546875 3743.28369140625 982.5933227539063 3743.28369140625 982.7583618164063 L 3743.28369140625 987.122802734375 L 3745.603271484375 987.122802734375 C 3746.93115234375 987.122802734375 3748.100830078125 987.9956665039063 3748.47900390625 989.2684936523438 C 3748.857177734375 990.5413208007813 3748.353515625 991.9112548828125 3747.2412109375 992.63623046875 L 3738.439697265625 998.371826171875 C 3737.94189453125 998.6961669921875 3737.371826171875 998.8583984375 3736.8017578125 998.8583984375 Z"/></g></g></svg>