<svg xmlns="http://www.w3.org/2000/svg" xmlns:xlink="http://www.w3.org/1999/xlink" width="40" height="40" viewBox="0 0 40 40"><defs><style>.a{fill:#f3f3f3;}.b,.g{fill:none;}.c{fill:#dfdfdf;}.d{fill:#b2b2b2;}.e,.i{fill:#fff;}.f{fill:url(#a);}.g{stroke:#fff;stroke-linecap:round;stroke-linejoin:round;stroke-width:3px;}.h,.i{stroke:none;}</style><linearGradient id="a" x1="0.5" x2="0.5" y2="1" gradientUnits="objectBoundingBox"><stop offset="0" stop-color="#5492fe"/><stop offset="1" stop-color="#2e72e8"/></linearGradient></defs><g transform="translate(-609 -2189)"><rect class="a" width="28" height="28" rx="3" transform="translate(617 2189)"/><rect class="b" width="40" height="40" transform="translate(609 2189)"/><rect class="c" width="28" height="28" rx="3" transform="translate(613 2192)"/><rect class="d" width="28" height="28" rx="3" transform="translate(609 2195)"/><path class="e" d="M0,0H4V4H0Z" transform="translate(613 2201)"/><rect class="e" width="4" height="4" transform="translate(613 2209)"/><g class="f" transform="translate(624.445 2204)"><path class="h" d="M 12 22.5 C 6.210279941558838 22.5 1.5 17.78972053527832 1.5 12 C 1.5 6.210279941558838 6.210279941558838 1.5 12 1.5 C 17.78972053527832 1.5 22.5 6.210279941558838 22.5 12 C 22.5 17.78972053527832 17.78972053527832 22.5 12 22.5 Z"/><path class="i" d="M 12 3 C 7.037380218505859 3 3 7.037380218505859 3 12 C 3 16.96261978149414 7.037380218505859 21 12 21 C 16.96261978149414 21 21 16.96261978149414 21 12 C 21 7.037380218505859 16.96261978149414 3 12 3 M 12 0 C 18.62742042541504 0 24 5.372579574584961 24 12 C 24 18.62742042541504 18.62742042541504 24 12 24 C 5.372579574584961 24 0 18.62742042541504 0 12 C 0 5.372579574584961 5.372579574584961 0 12 0 Z"/></g><path class="g" d="M430.749,733.354l2.393,2.731,4.94-6.044" transform="translate(202 1482.909)"/></g></svg>