<svg xmlns="http://www.w3.org/2000/svg" xmlns:xlink="http://www.w3.org/1999/xlink" width="40.631" height="40" viewBox="0 0 40.631 40"><defs><style>.a{fill:#c2c2c2;}.b{fill:none;}.c{fill:#b2b2b2;}.d{clip-path:url(#a);}.e{fill:#2f58b8;}.f,.g{stroke:none;}.g{fill:#fff;}</style><clipPath id="a"><rect class="a" width="32" height="16" transform="translate(-1)"/></clipPath></defs><rect class="b" width="40" height="40"/><circle class="c" cx="7" cy="7" r="7" transform="translate(9 4)"/><g class="d" transform="translate(1 20)"><path class="c" d="M15,0A15,15,0,1,1,0,15,15,15,0,0,1,15,0Z" transform="translate(-0.438 0.715)"/></g><g class="e" transform="translate(5722.633 -5406.001)"><path class="f" d="M -5692.99755859375 5443.634765625 L -5693.59130859375 5443.38134765625 C -5697.28076171875 5441.8076171875 -5699.99365234375 5438.69970703125 -5701.4365234375 5434.39306640625 C -5702.4990234375 5431.2236328125 -5702.5029296875 5428.51025390625 -5702.50244140625 5428.39599609375 L -5702.49951171875 5427.4072265625 L -5701.5888671875 5427.0205078125 L -5693.58935546875 5423.62109375 L -5693.029296875 5423.3828125 L -5692.46142578125 5423.6025390625 C -5692.2431640625 5423.68701171875 -5687.083984375 5425.68798828125 -5684.33349609375 5427.05810546875 L -5683.50244140625 5427.47216796875 L -5683.50244140625 5428.40087890625 C -5683.50244140625 5433.0615234375 -5684.787109375 5436.8798828125 -5687.32080078125 5439.74951171875 C -5689.35400390625 5442.052734375 -5691.5537109375 5443.0078125 -5692.3818359375 5443.3671875 L -5692.4052734375 5443.37744140625 L -5692.99755859375 5443.634765625 Z"/><path class="g" d="M -5693.0029296875 5425.00146484375 L -5701.00244140625 5428.40087890625 C -5701.00244140625 5428.40087890625 -5701.0341796875 5438.57568359375 -5693.0029296875 5442.00146484375 C -5691.5966796875 5441.390625 -5685.00244140625 5438.583984375 -5685.00244140625 5428.40087890625 C -5687.72216796875 5427.0458984375 -5693.0029296875 5425.00146484375 -5693.0029296875 5425.00146484375 M -5693.0556640625 5421.76416015625 L -5691.919921875 5422.20361328125 C -5691.69873046875 5422.28955078125 -5686.4765625 5424.314453125 -5683.66455078125 5425.7158203125 L -5682.00244140625 5426.5439453125 L -5682.00244140625 5428.40087890625 C -5682.00244140625 5431.0927734375 -5682.41650390625 5433.5673828125 -5683.2333984375 5435.7568359375 C -5683.9326171875 5437.6298828125 -5684.92919921875 5439.30712890625 -5686.1962890625 5440.7421875 C -5688.45068359375 5443.29541015625 -5690.9599609375 5444.38525390625 -5691.78466796875 5444.7431640625 L -5691.8076171875 5444.7529296875 L -5692.9921875 5445.267578125 L -5694.18017578125 5444.7607421875 C -5698.2744140625 5443.01416015625 -5701.27587890625 5439.59423828125 -5702.85888671875 5434.86962890625 C -5703.9794921875 5431.52587890625 -5704.00341796875 5428.70263671875 -5704.00244140625 5428.3916015625 L -5703.99609375 5426.41357421875 L -5702.17578125 5425.6396484375 L -5694.17626953125 5422.240234375 L -5693.0556640625 5421.76416015625 Z"/></g></svg>