<svg xmlns="http://www.w3.org/2000/svg" width="40" height="40" viewBox="0 0 40 40"><defs><style>.a,.b{fill:none;}.b{stroke:#b2b2b2;}.b,.d{stroke-width:3px;}.c{fill:#b2b2b2;}.d{fill:#2f58b8;stroke:#fff;}.e{stroke:none;}</style></defs><rect class="a" width="40" height="40"/><g transform="translate(-1177 -2158)"><g class="b" transform="translate(1180 2158)"><circle class="e" cx="5.5" cy="5.5" r="5.5"/><circle class="a" cx="5.5" cy="5.5" r="4"/></g><g class="b" transform="translate(1206 2187)"><circle class="e" cx="5.5" cy="5.5" r="5.5"/><circle class="a" cx="5.5" cy="5.5" r="4"/></g><circle class="c" cx="5" cy="5" r="5" transform="translate(1177 2180)"/><circle class="c" cx="5" cy="5" r="5" transform="translate(1207 2160)"/><rect class="c" width="11.111" height="3.333" transform="translate(1189.966 2165.534) rotate(48)"/><rect class="c" width="11.111" height="3.333" transform="translate(1202.966 2180.534) rotate(48)"/><rect class="c" width="10" height="3.333" transform="translate(1201.845 2173.333) rotate(-45)"/><rect class="c" width="7.778" height="3.333" transform="matrix(0.966, -0.259, 0.259, 0.966, 1185.141, 2182.157)"/><g class="d" transform="translate(1194 2172)"><circle class="e" cx="6" cy="6" r="6"/><circle class="a" cx="6" cy="6" r="7.5"/></g></g></svg>