<svg xmlns="http://www.w3.org/2000/svg" xmlns:xlink="http://www.w3.org/1999/xlink" width="40" height="40" viewBox="0 0 40 40"><defs><style>.a{fill:none;}.b{fill:#b2b2b2;}.c,.f{fill:#fff;}.d{fill:url(#a);}.e,.f{stroke:none;}</style><linearGradient id="a" x1="0.5" x2="0.5" y2="1" gradientUnits="objectBoundingBox"><stop offset="0" stop-color="#b3d5f2"/><stop offset="0" stop-color="#5492fe"/><stop offset="1" stop-color="#2e72e8"/></linearGradient></defs><g transform="translate(-1493 -1743)"><rect class="a" width="40" height="40" transform="translate(1493 1743)"/><rect class="b" width="28" height="28" rx="3" transform="translate(1495 1749)"/><path class="c" d="M0,0H4V4H0Z" transform="translate(1500 1755)"/><rect class="c" width="4" height="4" transform="translate(1500 1763)"/><g class="d" transform="translate(-2535 787)"><path class="e" d="M 4066.030517578125 994.50048828125 L 4064.56103515625 994.50048828125 L 4045.564453125 994.50048828125 L 4044.094970703125 994.50048828125 L 4044.064697265625 993.0314331054688 C 4044.063232421875 992.9620361328125 4044.063232421875 992.8914184570313 4044.063232421875 992.8219604492188 C 4044.063232421875 989.913330078125 4045.209716796875 987.1798095703125 4047.291748046875 985.1249389648438 C 4048.6630859375 983.7713623046875 4050.332275390625 982.8193969726563 4052.15283203125 982.3289184570313 C 4050.502685546875 981.284423828125 4049.406494140625 979.4541625976563 4049.406494140625 977.3750610351563 C 4049.406494140625 974.135498046875 4052.068115234375 971.4999389648438 4055.339599609375 971.4999389648438 C 4058.611328125 971.4999389648438 4061.27294921875 974.135498046875 4061.27294921875 977.3750610351563 C 4061.27294921875 979.528076171875 4060.09716796875 981.4143676757813 4058.34814453125 982.4374389648438 C 4060.022705078125 982.9531860351563 4061.5576171875 983.8651123046875 4062.833984375 985.1248168945313 C 4064.91650390625 987.1796875 4066.063232421875 989.9132690429688 4066.063232421875 992.8219604492188 C 4066.063232421875 992.8914184570313 4066.062255859375 992.9620361328125 4066.060791015625 993.0314331054688 L 4066.030517578125 994.50048828125 Z"/><path class="f" d="M 4064.56103515625 993.00048828125 C 4064.562255859375 992.9413452148438 4064.563232421875 992.8811645507813 4064.563232421875 992.8219604492188 C 4064.563232421875 987.6441040039063 4060.3095703125 983.4464721679688 4055.062255859375 983.4464721679688 C 4049.81591796875 983.4464721679688 4045.563232421875 987.6441040039063 4045.563232421875 992.8219604492188 C 4045.563232421875 992.8811645507813 4045.563232421875 992.9413452148438 4045.564453125 993.00048828125 L 4064.56103515625 993.00048828125 M 4055.339599609375 981.7501220703125 C 4057.787841796875 981.7501220703125 4059.77294921875 979.7915649414063 4059.77294921875 977.3750610351563 C 4059.77294921875 974.95849609375 4057.787841796875 972.9999389648438 4055.339599609375 972.9999389648438 C 4052.8916015625 972.9999389648438 4050.906494140625 974.95849609375 4050.906494140625 977.3750610351563 C 4050.906494140625 979.7915649414063 4052.8916015625 981.7501220703125 4055.339599609375 981.7501220703125 M 4067.499755859375 996.00048828125 L 4064.56103515625 996.00048828125 L 4045.564453125 996.00048828125 L 4042.625732421875 996.00048828125 L 4042.565185546875 993.0623779296875 C 4042.5634765625 992.9827270507813 4042.563232421875 992.9016723632813 4042.563232421875 992.8219604492188 C 4042.563232421875 989.5089721679688 4043.8681640625 986.3963012695313 4046.238037109375 984.057373046875 C 4047.17724609375 983.1303100585938 4048.239501953125 982.3690185546875 4049.387939453125 981.7885131835938 C 4048.457763671875 980.5570068359375 4047.906494140625 979.0288696289063 4047.906494140625 977.3750610351563 C 4047.906494140625 973.3084106445313 4051.240966796875 969.9999389648438 4055.339599609375 969.9999389648438 C 4059.4384765625 969.9999389648438 4062.77294921875 973.3084106445313 4062.77294921875 977.3750610351563 C 4062.77294921875 979.1226806640625 4062.1572265625 980.7302856445313 4061.12939453125 981.9954223632813 C 4062.128173828125 982.5458374023438 4063.05615234375 983.236572265625 4063.8876953125 984.05712890625 C 4066.2578125 986.3961181640625 4067.563232421875 989.5088500976563 4067.563232421875 992.8219604492188 C 4067.563232421875 992.9016723632813 4067.56201171875 992.9827270507813 4067.560302734375 993.0623779296875 L 4067.499755859375 996.00048828125 Z"/></g></g></svg>