<svg xmlns="http://www.w3.org/2000/svg" xmlns:xlink="http://www.w3.org/1999/xlink" width="40" height="40" viewBox="0 0 40 40"><defs><style>.a{fill:#a2a2a2;}.b{fill:none;}.c{fill:#b2b2b2;}.d{clip-path:url(#a);}.e{fill:#2f58b8;stroke:#fff;stroke-width:3px;}.f{fill:#fff;font-size:10px;font-family:MalgunGothicBold, Malgun Gothic;letter-spacing:-0.045em;}.g{stroke:none;}</style><clipPath id="a"><path class="a" d="M0,1H9V5H0Z" transform="translate(0)"/></clipPath></defs><rect class="b" width="40" height="40"/><g transform="translate(-1278.489 -1946)"><path class="c" d="M4227-1549.778a1,1,0,0,1-.691-1.722l4-3.827v-6.836h0A10.575,10.575,0,0,1,4240.6-1573a10.574,10.574,0,0,1,10.292,10.836h0v6.674l4.167,3.989a1,1,0,0,1-.691,1.722Z" transform="translate(-2946.511 3526.444)"/><rect class="c" width="3.333" height="7.778" rx="1.667" transform="translate(1292.489 1949)"/><g class="d" transform="translate(1289.489 1978.889)"><circle class="c" cx="3.5" cy="3.5" r="3.5" transform="translate(1.125 -3)"/></g><g class="e" transform="translate(1295.489 1957.555)"><circle class="g" cx="11" cy="11" r="11"/><circle class="b" cx="11" cy="11" r="9.5"/></g><text class="f" transform="translate(1302.489 1972.555)"><tspan x="0" y="0">N</tspan></text></g></svg>