<svg xmlns="http://www.w3.org/2000/svg" width="48" height="48" viewBox="0 0 48 48"><defs><style>.a,.b,.c{fill:none;}.c{stroke:#c2c2c2;stroke-width:3px;}.d,.e{stroke:none;}.e{fill:#c2c2c2;}</style></defs><rect class="a" width="48" height="48"/><g transform="translate(-333 -93)"><g class="b" transform="translate(-5920 5479)"><path class="d" d="M6259-5344v-18h15v4h6v-4h15v18h-36Zm29-21v-11h-22v11h-3v-14h28v14Z"/><path class="e" d="M 6292.00048828125 -5347 L 6292.00048828125 -5358.9990234375 L 6282.99951171875 -5358.9990234375 L 6282.99951171875 -5357.9990234375 L 6282.99951171875 -5354.9990234375 L 6279.99951171875 -5354.9990234375 L 6273.99951171875 -5354.9990234375 L 6271.00048828125 -5354.9990234375 L 6270.99951171875 -5357.998046875 L 6270.9990234375 -5358.9990234375 L 6262.00048828125 -5358.9990234375 L 6262.00048828125 -5347 L 6292.00048828125 -5347 M 6295.00048828125 -5344 L 6259.00048828125 -5344 L 6259.00048828125 -5361.9990234375 L 6273.998046875 -5361.9990234375 L 6273.99951171875 -5357.9990234375 L 6279.99951171875 -5357.9990234375 L 6279.99951171875 -5361.9990234375 L 6295.00048828125 -5361.9990234375 L 6295.00048828125 -5344.00146484375 L 6295.00048828125 -5344 Z M 6291 -5365.00048828125 L 6288 -5365.00048828125 L 6288 -5376.0009765625 L 6266.0009765625 -5376.0009765625 L 6266.0009765625 -5365.00048828125 L 6262.9990234375 -5365.00048828125 L 6262.9990234375 -5376.99951171875 L 6262.9990234375 -5378.99951171875 L 6291 -5378.99951171875 L 6291 -5376.0009765625 L 6291 -5365.00048828125 Z"/></g><path class="c" d="M-1694,4304l8,5,8-5" transform="translate(2043.001 -4198)"/></g></svg>