<svg xmlns="http://www.w3.org/2000/svg" xmlns:xlink="http://www.w3.org/1999/xlink" width="48" height="48" viewBox="0 0 48 48"><defs><style>.a{fill:#fff;}.b,.e{fill:none;}.c,.h{fill:#c2c2c2;}.d{clip-path:url(#a);}.f{clip-path:url(#b);}.g,.h{stroke:none;}</style><clipPath id="a"><rect class="a" width="19" height="19" transform="translate(193 282)"/></clipPath><clipPath id="b"><path class="a" d="M-165-1534v-38h16v22h22v16Z" transform="translate(323 1871)"/></clipPath></defs><rect class="b" width="48" height="48"/><rect class="c" width="3" height="18" transform="translate(24 6)"/><rect class="c" width="3" height="18" transform="translate(42 21) rotate(90)"/><g class="d" transform="translate(-169 -277)"><g class="e" transform="translate(174 282)"><path class="g" d="M19,0A19,19,0,1,1,0,19,19,19,0,0,1,19,0Z"/><path class="h" d="M 19 3 C 14.72624969482422 3 10.70829010009766 4.664291381835938 7.686290740966797 7.686290740966797 C 4.664291381835938 10.70829010009766 3 14.72624969482422 3 19 C 3 23.27375030517578 4.664291381835938 27.29170989990234 7.686290740966797 30.3137092590332 C 10.70829010009766 33.33570861816406 14.72624969482422 35 19 35 C 23.27375030517578 35 27.29170989990234 33.33570861816406 30.3137092590332 30.3137092590332 C 33.33570861816406 27.29170989990234 35 23.27375030517578 35 19 C 35 14.72624969482422 33.33570861816406 10.70829010009766 30.3137092590332 7.686290740966797 C 27.29170989990234 4.664291381835938 23.27375030517578 3 19 3 M 19 0 C 29.49341011047363 0 38 8.506589889526367 38 19 C 38 29.49341011047363 29.49341011047363 38 19 38 C 8.506589889526367 38 0 29.49341011047363 0 19 C 0 8.506589889526367 8.506589889526367 0 19 0 Z"/></g></g><g class="f" transform="translate(-153 -294)"><g class="e" transform="translate(158 299)"><path class="g" d="M19,0A19,19,0,1,1,0,19,19,19,0,0,1,19,0Z"/><path class="h" d="M 19 3 C 14.72624969482422 3 10.70829010009766 4.664291381835938 7.686290740966797 7.686290740966797 C 4.664291381835938 10.70829010009766 3 14.72624969482422 3 19 C 3 23.27375030517578 4.664291381835938 27.29170989990234 7.686290740966797 30.3137092590332 C 10.70829010009766 33.33570861816406 14.72624969482422 35 19 35 C 23.27375030517578 35 27.29170989990234 33.33570861816406 30.3137092590332 30.3137092590332 C 33.33570861816406 27.29170989990234 35 23.27375030517578 35 19 C 35 14.72624969482422 33.33570861816406 10.70829010009766 30.3137092590332 7.686290740966797 C 27.29170989990234 4.664291381835938 23.27375030517578 3 19 3 M 19 0 C 29.49341011047363 0 38 8.506589889526367 38 19 C 38 29.49341011047363 29.49341011047363 38 19 38 C 8.506589889526367 38 0 29.49341011047363 0 19 C 0 8.506589889526367 8.506589889526367 0 19 0 Z"/></g></g></svg>