<svg xmlns="http://www.w3.org/2000/svg" xmlns:xlink="http://www.w3.org/1999/xlink" width="48" height="48" viewBox="0 0 48 48"><defs><style>.a{fill:none;}.b{clip-path:url(#a);}.c{fill:#2f58b8;}.d{fill:#002057;}</style><clipPath id="a"><rect class="a" width="48" height="48"/></clipPath></defs><g class="b"><rect class="a" width="48" height="48"/><g transform="translate(-333 -379)"><rect class="c" width="8" height="3" transform="translate(345 393)"/><rect class="c" width="8" height="3" transform="translate(345 411)"/><rect class="d" width="3" height="3" transform="translate(342 402)"/><rect class="d" width="3" height="3" transform="translate(369 402)"/><rect class="d" width="3" height="15" transform="translate(339 405)"/><rect class="d" width="3" height="15" transform="translate(339 387)"/><rect class="d" width="3" height="9" transform="translate(372 405)"/><rect class="d" width="3" height="9" transform="translate(372 387)"/><rect class="d" width="3" height="36" transform="translate(339 408) rotate(-90)"/><rect class="d" width="3" height="36" transform="translate(339 390) rotate(-90)"/><rect class="d" width="3" height="30" transform="translate(339 420) rotate(-90)"/><rect class="d" width="3" height="33" transform="translate(339 402) rotate(-90)"/></g></g></svg>