<svg xmlns="http://www.w3.org/2000/svg" xmlns:xlink="http://www.w3.org/1999/xlink" width="48" height="48" viewBox="0 0 48 48"><defs><style>.a{fill:#fff;}.b,.f{fill:none;}.c{clip-path:url(#a);}.d{fill:#2f58b8;}.e{clip-path:url(#b);}.f{stroke:#2f58b8;stroke-width:3px;}.g{fill:#002057;}.h{stroke:none;}</style><clipPath id="a"><rect class="b" width="48" height="48"/></clipPath><clipPath id="b"><rect class="a" width="14" height="7" transform="translate(824 3789)"/></clipPath></defs><g class="c"><g transform="translate(-213 -153)"><rect class="b" width="48" height="48" transform="translate(213 153)"/><g transform="translate(-370 -3993)"><circle class="d" cx="3" cy="3" r="3" transform="translate(593 4173)"/><g class="e" transform="translate(-235 391)"><g class="f" transform="translate(824 3789)"><circle class="h" cx="7" cy="7" r="7"/><circle class="b" cx="7" cy="7" r="5.5"/></g></g></g><g transform="translate(-359 -3993)"><circle class="d" cx="3" cy="3" r="3" transform="translate(593 4173)"/><g class="e" transform="translate(-235 391)"><g class="f" transform="translate(824 3789)"><circle class="h" cx="7" cy="7" r="7"/><circle class="b" cx="7" cy="7" r="5.5"/></g></g></g><g transform="translate(-348 -3993)"><circle class="d" cx="3" cy="3" r="3" transform="translate(593 4173)"/><g class="e" transform="translate(-235 391)"><g class="f" transform="translate(824 3789)"><circle class="h" cx="7" cy="7" r="7"/><circle class="b" cx="7" cy="7" r="5.5"/></g></g></g><rect class="g" width="3" height="18" transform="translate(219 159)"/><rect class="g" width="3" height="18" transform="translate(252 159)"/><rect class="g" width="3" height="30" transform="translate(222 162) rotate(-90)"/></g></g></svg>