<svg xmlns="http://www.w3.org/2000/svg" xmlns:xlink="http://www.w3.org/1999/xlink" width="218" height="232.002" viewBox="0 0 218 232.002"><defs><style>.a{fill:#002057;}.b{fill:url(#a);}.c,.f,.h,.l{fill:none;}.d,.e,.i,.k{fill:#fff;}.d{font-size:25px;font-family:ITCAvantGardeStd-Demi, ITC Avant Garde Gothic Std;font-weight:300;letter-spacing:-0.01em;}.f{stroke:#002057;}.f,.h,.i{stroke-width:4px;}.g{fill:url(#c);}.h{stroke:#fff;}.i{stroke:#2f58b8;}.j,.k{stroke:none;}</style><linearGradient id="a" x1="0.5" x2="0.5" y2="1" gradientUnits="objectBoundingBox"><stop offset="0" stop-color="#b3d5f2"/><stop offset="1" stop-color="#5492fe"/></linearGradient><linearGradient id="c" x1="0.5" x2="0.5" y2="1" gradientUnits="objectBoundingBox"><stop offset="0" stop-color="#e2b706"/><stop offset="1" stop-color="#e8890c"/></linearGradient></defs><g transform="translate(-178 -2896)"><rect class="a" width="16" height="4" transform="translate(336 3076.001)"/><rect class="a" width="46" height="4" transform="translate(350 3076.001)"/><rect class="a" width="24" height="4" transform="translate(352 3056) rotate(90)"/><rect class="a" width="24" height="4" transform="translate(380 3056) rotate(90)"/><rect class="a" width="52" height="4" transform="translate(396 3076.001) rotate(90)"/><rect class="a" width="32" height="4" transform="translate(348 3052)"/><path class="b" d="M18198-1478.895l0,0-64-30.316V-1594.9h64v116h0v0Z" transform="translate(-17945.998 4522.898)"/><path class="b" d="M18206-1446.881v-148h64V-1477l-64,30.117Z" transform="translate(-17945.996 4490.883)"/><g class="c" transform="translate(275.002 2971.625)"><path class="j" d="M18.5,13.126A9.922,9.922,0,0,1,9.791,18C4.386,18,0,13.971,0,9S4.386,0,9.791,0A9.923,9.923,0,0,1,18.5,4.872,9.924,9.924,0,0,1,27.2,0C32.614,0,37,4.029,37,9s-4.386,9-9.8,9A9.923,9.923,0,0,1,18.5,13.126Z"/><path class="k" d="M 27.20409965515137 14 C 30.39996910095215 14 33 11.75590991973877 33 8.997559547424316 C 33 6.241899967193604 30.39996910095215 4 27.20409965515137 4 C 26.06809997558594 4 24.96875 4.284999847412109 24.0249195098877 4.824190139770508 C 23.14831924438477 5.32496976852417 22.4430103302002 6.019780158996582 21.9852294921875 6.833509922027588 L 20.76719284057617 8.99868106842041 L 21.9855899810791 11.16541004180908 C 22.44342041015625 11.97959995269775 23.14878082275391 12.67473983764648 24.02540016174316 13.17568969726563 C 24.96907043457031 13.7149600982666 26.06825065612793 14 27.20409965515137 14 M 9.791020393371582 14 C 10.92879962921143 14 12.02923965454102 13.71488952636719 12.97338008880615 13.17547988891602 C 13.84971046447754 12.67481994628906 14.55463027954102 11.98005962371826 15.01194953918457 11.16631031036377 L 16.23011207580566 8.998689651489258 L 15.01229953765869 6.832620143890381 C 14.55504989624023 6.019320011138916 13.85017013549805 5.32489013671875 12.97385025024414 4.824399948120117 C 12.02954959869385 4.285069942474365 10.92895030975342 4 9.791020393371582 4 C 6.597839832305908 4 4 6.241899967193604 4 8.997559547424316 C 4 11.75590991973877 6.597839832305908 14 9.791020393371582 14 M 27.20409965515137 18 C 23.41406059265137 18 20.12694931030273 16.02099990844727 18.49901962280273 13.12598037719727 C 16.8720703125 16.02099990844727 13.58495998382568 18 9.791020393371582 18 C 4.385739803314209 18 0 13.97070026397705 0 8.997559547424316 C 0 4.028810024261475 4.385739803314209 0 9.791020393371582 0 C 13.58495998382568 0 16.8720703125 1.978520035743713 18.49901962280273 4.872310161590576 C 20.12694931030273 1.978520035743713 23.41406059265137 0 27.20409965515137 0 C 32.61426162719727 0 37 4.028810024261475 37 8.997559547424316 C 37 13.97070026397705 32.61426162719727 18 27.20409965515137 18 Z"/></g><text class="d" transform="translate(202 2992.001)"><tspan x="0" y="0">GB</tspan></text><rect class="e" width="5" height="18" transform="translate(180 3010.001)"/><rect class="a" width="4" height="108" transform="translate(332 3008.001)"/><path class="f" d="M-17742,4617l-68,32-76-36v114h216" transform="translate(18066 -1600.999)"/><g transform="translate(31 48.001)"><circle class="g" cx="20" cy="20" r="20" transform="translate(281 2855.999)"/><path class="h" d="M-5393.223,6312.682l8,8,16-16" transform="translate(5682.223 -3436.683)"/></g><g class="i" transform="translate(358 3092)"><rect class="j" width="12" height="20" rx="6"/><rect class="l" x="2" y="2" width="8" height="16" rx="4"/></g></g></svg>