<svg xmlns="http://www.w3.org/2000/svg" xmlns:xlink="http://www.w3.org/1999/xlink" width="230" height="208.004" viewBox="0 0 230 208.004"><defs><style>.a{fill:#002057;}.b{fill:url(#a);}.c{fill:url(#b);}.d,.f,.g,.j{fill:none;}.e,.i{fill:#fff;}.f{stroke:#002057;}.f,.g{stroke-width:4px;}.g{stroke:#2f58b8;}.h,.i{stroke:none;}</style><linearGradient id="a" x1="0.5" x2="0.5" y2="1" gradientUnits="objectBoundingBox"><stop offset="0" stop-color="#b3d5f2"/><stop offset="1" stop-color="#5492fe"/></linearGradient><linearGradient id="b" x1="0.5" x2="0.5" y2="1" gradientUnits="objectBoundingBox"><stop offset="0" stop-color="#e2b706"/><stop offset="0.51" stop-color="#e4ab08"/><stop offset="1" stop-color="#e8890c"/></linearGradient></defs><g transform="translate(-752 -2920)"><rect class="a" width="18" height="4" transform="translate(912 3092) rotate(90)"/><path class="b" d="M-8-3H108V161H-8Z" transform="translate(836 2923)"/><rect class="a" width="28" height="4" transform="translate(800 2964)"/><rect class="a" width="40" height="4" transform="translate(752 3020)"/><rect class="a" width="142" height="4" transform="translate(804 2968) rotate(90)"/><rect class="a" width="86" height="4" transform="translate(756 3024) rotate(90)"/><g transform="translate(386 42)"><circle class="c" cx="29" cy="29" r="29" transform="translate(538 2968)"/><g class="d" transform="translate(549 2988)"><path class="h" d="M18.5,13.126A9.922,9.922,0,0,1,9.791,18C4.386,18,0,13.971,0,9S4.386,0,9.791,0A9.923,9.923,0,0,1,18.5,4.872,9.924,9.924,0,0,1,27.2,0C32.614,0,37,4.029,37,9s-4.386,9-9.8,9A9.923,9.923,0,0,1,18.5,13.126Z"/><path class="i" d="M 27.20409965515137 14 C 30.39996910095215 14 33 11.75590991973877 33 8.997559547424316 C 33 6.241899967193604 30.39996910095215 4 27.20409965515137 4 C 26.06809997558594 4 24.96875 4.284999847412109 24.0249195098877 4.824190139770508 C 23.14831924438477 5.32496976852417 22.4430103302002 6.019780158996582 21.9852294921875 6.833509922027588 L 20.76719284057617 8.99868106842041 L 21.9855899810791 11.16541004180908 C 22.44342041015625 11.97959995269775 23.14878082275391 12.67473983764648 24.02540016174316 13.17568969726563 C 24.96907043457031 13.7149600982666 26.06825065612793 14 27.20409965515137 14 M 9.791020393371582 14 C 10.92879962921143 14 12.02923965454102 13.71488952636719 12.97338008880615 13.17547988891602 C 13.84971046447754 12.67481994628906 14.55463027954102 11.98005962371826 15.01194953918457 11.16631031036377 L 16.23011207580566 8.998689651489258 L 15.01229953765869 6.832620143890381 C 14.55504989624023 6.019320011138916 13.85017013549805 5.32489013671875 12.97385025024414 4.824399948120117 C 12.02954959869385 4.285069942474365 10.92895030975342 4 9.791020393371582 4 C 6.597839832305908 4 4 6.241899967193604 4 8.997559547424316 C 4 11.75590991973877 6.597839832305908 14 9.791020393371582 14 M 27.20409965515137 18 C 23.41406059265137 18 20.12694931030273 16.02099990844727 18.49901962280273 13.12598037719727 C 16.8720703125 16.02099990844727 13.58495998382568 18 9.791020393371582 18 C 4.385739803314209 18 0 13.97070026397705 0 8.997559547424316 C 0 4.028810024261475 4.385739803314209 0 9.791020393371582 0 C 13.58495998382568 0 16.8720703125 1.978520035743713 18.49901962280273 4.872310161590576 C 20.12694931030273 1.978520035743713 23.41406059265137 0 27.20409965515137 0 C 32.61426162719727 0 37 4.028810024261475 37 8.997559547424316 C 37 13.97070026397705 32.61426162719727 18 27.20409965515137 18 Z"/></g></g><g transform="translate(144 -564)"><g class="d" transform="translate(760 3500)"><path class="h" d="M0,4H20V32H0Z"/><path class="i" d="M 4 8 L 4 28 L 16 28 L 16 8 L 4 8 M 0 4 L 20 4 L 20 32 L 0 32 L 0 4 Z"/></g><g class="d" transform="translate(744 3500)"><path class="h" d="M0,4H20V32H0Z"/><path class="i" d="M 4 8 L 4 28 L 16 28 L 16 8 L 4 8 M 0 4 L 20 4 L 20 32 L 0 32 L 0 4 Z"/></g><g class="d" transform="translate(728 3500)"><path class="h" d="M0,4H20V32H0Z"/><path class="i" d="M 4 8 L 4 28 L 16 28 L 16 8 L 4 8 M 0 4 L 20 4 L 20 32 L 0 32 L 0 4 Z"/></g><rect class="e" width="52" height="4" transform="translate(728 3520)"/></g><rect class="e" width="76" height="4" transform="translate(848 2984)"/><rect class="e" width="76" height="4" transform="translate(848 3000)"/><path class="f" d="M-17128,4689s.043,16-16,16h-124s-16,.347-16-16" transform="translate(18038 -1579)"/><path class="f" d="M-17128,4689s.043,16-16,16" transform="translate(17930 -1579)"/><g class="g" transform="translate(768 3036)"><rect class="h" width="20" height="12"/><rect class="j" x="2" y="2" width="16" height="8"/></g><g class="g" transform="translate(768 3056)"><rect class="h" width="20" height="12"/><rect class="j" x="2" y="2" width="16" height="8"/></g><g class="g" transform="translate(768 3076)"><rect class="h" width="20" height="12"/><rect class="j" x="2" y="2" width="16" height="8"/></g></g></svg>