<svg xmlns="http://www.w3.org/2000/svg" xmlns:xlink="http://www.w3.org/1999/xlink" width="423" height="464" viewBox="0 0 423 464"><defs><style>.a{fill:url(#a);}.b{fill:#333;font-size:28px;}.b,.c{font-family:NanumSquareEB, NanumSquare;letter-spacing:-0.03em;}.c{fill:#fff;font-size:60px;}.d{fill:#002057;}.e,.g,.i{fill:none;}.e{stroke:#2f58b8;}.e,.g{stroke-width:4px;}.f{fill:url(#d);}.g{stroke:#fff;}.h{stroke:none;}.j{filter:url(#b);}</style><linearGradient id="a" x1="0.5" x2="0.5" y2="1" gradientUnits="objectBoundingBox"><stop offset="0" stop-color="#b3d5f2"/><stop offset="1" stop-color="#e8f2f8"/></linearGradient><filter id="b" x="156" y="174.765" width="126" height="102" filterUnits="userSpaceOnUse"><feOffset input="SourceAlpha"/><feGaussianBlur stdDeviation="6" result="c"/><feFlood flood-color="#b3d5f2"/><feComposite operator="in" in2="c"/><feComposite in="SourceGraphic"/></filter><linearGradient id="d" x1="0.5" x2="0.5" y2="1" gradientUnits="objectBoundingBox"><stop offset="0" stop-color="#e2b706"/><stop offset="1" stop-color="#e8890c"/></linearGradient></defs><g transform="translate(-1155 -4688)"><path class="a" d="M-12296.051,6778V6446.834H-12356L-12157.166,6314l198.833,132.834h-64.683V6778Z" transform="translate(13532 -1626)"/><text class="b" transform="translate(1312 4843.765)"><tspan x="0" y="0">시장점유율</tspan></text><g class="j" transform="matrix(1, 0, 0, 1, 1155, 4688)"><text class="c" transform="translate(174 243.76)"><tspan x="0" y="0">1위</tspan></text></g><g transform="translate(5)"><rect class="d" width="4" height="92" transform="translate(1201 5060)"/><rect class="d" width="5" height="92" transform="translate(1313 5060)"/><rect class="d" width="4" height="88" transform="translate(1381 5064)"/><rect class="d" width="4" height="136" transform="translate(1433 5016)"/><rect class="d" width="4" height="36" transform="translate(1485 5116)"/><rect class="d" width="4" height="36" transform="translate(1465 5116)"/><rect class="d" width="4" height="136" transform="translate(1517 5016)"/><rect class="d" width="4" height="51" transform="translate(1150 5152) rotate(-90)"/><rect class="d" width="4" height="72" transform="translate(1313 5152) rotate(-90)"/><rect class="d" width="4" height="112" transform="translate(1201 5064) rotate(-90)"/><rect class="d" width="4" height="56" transform="translate(1381 5068) rotate(-90)"/><rect class="d" width="4" height="88" transform="translate(1433 5016) rotate(-90)"/><rect class="d" width="4" height="52" transform="translate(1521 5152) rotate(-90)"/><rect class="d" width="4" height="20" transform="translate(1467 5120) rotate(-90)"/><path class="e" d="M-16605,6092l48,28,44-28" transform="translate(17818 -1020)"/><g class="e" transform="translate(1455 5032)"><rect class="h" width="16" height="16"/><rect class="i" x="2" y="2" width="12" height="12"/></g><g class="e" transform="translate(1395 5078)"><rect class="h" width="16" height="16"/><rect class="i" x="2" y="2" width="12" height="12"/></g><g class="e" transform="translate(1395 5102)"><rect class="h" width="16" height="16"/><rect class="i" x="2" y="2" width="12" height="12"/></g><g class="e" transform="translate(1455 5056)"><rect class="h" width="16" height="16"/><rect class="i" x="2" y="2" width="12" height="12"/></g><g class="e" transform="translate(1455 5080)"><rect class="h" width="16" height="16"/><rect class="i" x="2" y="2" width="12" height="12"/></g><g class="e" transform="translate(1483 5032)"><rect class="h" width="16" height="16"/><rect class="i" x="2" y="2" width="12" height="12"/></g><g class="e" transform="translate(1483 5056)"><rect class="h" width="16" height="16"/><rect class="i" x="2" y="2" width="12" height="12"/></g><g class="e" transform="translate(1483 5080)"><rect class="h" width="16" height="16"/><rect class="i" x="2" y="2" width="12" height="12"/></g></g><g transform="translate(966 2142.001)"><circle class="f" cx="20" cy="20" r="20" transform="translate(281 2855.999)"/><path class="g" d="M-5393.223,6312.682l8,8,16-16" transform="translate(5682.223 -3436.683)"/></g><g transform="translate(1186 2095.001)"><circle class="f" cx="20" cy="20" r="20" transform="translate(281 2855.999)"/><path class="g" d="M-5393.223,6312.682l8,8,16-16" transform="translate(5682.223 -3436.683)"/></g></g></svg>