<svg xmlns="http://www.w3.org/2000/svg" width="59" height="64" viewBox="0 0 59 64"><defs><style>.a,.b{fill:#fff;}.a{font-size:16px;font-family:NanumSquareR, NanumSquare;}.b{opacity:0.7;}</style></defs><text class="a" transform="translate(0 14)"><tspan x="0" y="0">SCROLL</tspan></text><path class="b" d="M-311-1538a7.008,7.008,0,0,1-7-7v-20a7.008,7.008,0,0,1,7-7,7.008,7.008,0,0,1,7,7v20A7.008,7.008,0,0,1-311-1538Zm-4-10,4.02,5.02,4.02-5.02H-315Zm0-9,4.02,5.02,4.02-5.02H-315Zm0-9,4.02,5.02,4.02-5.02Z" transform="translate(340 1602)"/></svg>