<svg xmlns="http://www.w3.org/2000/svg" xmlns:xlink="http://www.w3.org/1999/xlink" width="38" height="38" viewBox="0 0 38 38"><defs><style>.a{fill:url(#a);}.b{fill:none;}</style><linearGradient id="a" x1="0.5" x2="0.5" y2="1" gradientUnits="objectBoundingBox"><stop offset="0" stop-color="#b3d5f2"/><stop offset="1" stop-color="#8ebbf7"/></linearGradient></defs><g transform="translate(-583 -671)"><path class="a" d="M23.172,57.256a.719.719,0,0,1,.059.823,1.647,1.647,0,0,1-.46.541,1.209,1.209,0,0,1-1.506.007c-.386-.245-.408-.326-.942-.252-.378.052-.527-.334-.393-.653s.7-.571,1.394-.163c.312.185.8.571,1.231.23a3.67,3.67,0,0,0,.534-.519.05.05,0,0,1,.082-.015M18.989,29.7a19.005,19.005,0,0,0-18,25.049h1.32a6.915,6.915,0,0,0,3.175-.757,1.673,1.673,0,0,1,.771-.193c1.417,0,1.357,1.135,2.248,1.7a2.289,2.289,0,0,0,1.172.289c.252-.015.63-.074.727-.334.1-.3-.022-.519-.393-.675-.719-.3-.7-.816-1.172-1.35a2.059,2.059,0,0,1-.7-1.32,1.572,1.572,0,0,1,1.09-1.684,1.833,1.833,0,0,1,1.595.371,5.141,5.141,0,0,1,1.209,1.573.628.628,0,0,0,.942.156c.363-.334.7-.334.972.089.23.363,1.943,2.641,3.79,2.7a31.385,31.385,0,0,0,3.7-.393c.571.022.853.312,1.179.363.579.089.987-.43,1.624-.4.512.022,1.076.371,1.654.371s1.788-.7,1.773-.408a14.629,14.629,0,0,1-.512,1.817,11.015,11.015,0,0,1-.178,1.543,5.852,5.852,0,0,1-.823,1.491,15.559,15.559,0,0,0-1.187,1.639,11.427,11.427,0,0,1-1.305,1.817c-.03.037-.03.067-.007.089a2.818,2.818,0,0,0,1.877-.616c.467-.438,1.283-1.78,2.574-2.062.653-.148.912-.371.964-.6.037-.2-.045-.215-.045-.356a.305.305,0,0,1,.171-.274A9.847,9.847,0,0,1,34.951,59,18.982,18.982,0,0,0,18.989,29.7ZM34.432,48.3c-.912,5-9.086,6.676-17.038,4.272C9.813,50.284,3.16,45.714,3.924,43.037c.445-1.558,2.923-2.225,6.216-1.869-.5,1.016-.46,2.218,1.721,3.546,2.67,1.513,7.173,2.8,8.389,2.678.452-.045.86-.274.452-.541-1.84-1.231.519-2.7-4.132-3.59-6.149-1.172-5.9-2.908-5.726-3.909,0,0,.549-2.455.771-3.316s.816-2.841,4.769-1.951a6.857,6.857,0,0,0,4.146-.289,4.936,4.936,0,0,1,4.651.942c1.083,1.113,2.574,4.547,3.286,7.113a3.457,3.457,0,0,1,.082,2.374,9.473,9.473,0,0,1-.66,1.254c-.082.134-.015.282.163.193a2.953,2.953,0,0,0,1.639-2.047c3.241.734,5.148,2.411,4.74,4.68Zm-17.4-10.793c-1.951,0-2.552.519-3.4-.527-.171-.215-.712-.415-1.009.267a1.172,1.172,0,0,0,.712,1.521s.764,1.417,1.343.8c.408-.438.638-.675,2.833-.831C19.582,38.586,18.507,37.511,17.031,37.511Zm4.532-2.982A5.184,5.184,0,0,0,19.775,35c-.052.022-.052.111.037.111,2.537-.4,3.627.6,1.357,1.12a.083.083,0,0,0,0,.163,4.379,4.379,0,0,0,1.083.156c1.216.022,2.218-.415,2.233-.979C24.5,35.1,23.565,34.321,21.563,34.529Z" transform="translate(583 643.3)"/><rect class="b" width="38" height="38" transform="translate(583 671)"/></g></svg>