<svg xmlns="http://www.w3.org/2000/svg" xmlns:xlink="http://www.w3.org/1999/xlink" width="38" height="38" viewBox="0 0 38 38"><defs><style>.a{fill:url(#a);}.b{fill:none;}</style><linearGradient id="a" x1="0.5" x2="0.5" y2="1" gradientUnits="objectBoundingBox"><stop offset="0" stop-color="#e2b706"/><stop offset="1" stop-color="#e8890c"/></linearGradient></defs><g transform="translate(-1069 -622)"><path class="a" d="M32.143,32H3.857A3.858,3.858,0,0,0,0,35.857V64.143A3.858,3.858,0,0,0,3.857,68H32.143A3.858,3.858,0,0,0,36,64.143V35.857A3.858,3.858,0,0,0,32.143,32ZM10.205,60.326a1.606,1.606,0,0,1-2.78-1.607l1.149-1.985a2.758,2.758,0,0,1,3.182.916Zm11.162-4.331H6.75a1.607,1.607,0,0,1,0-3.214h4.1l5.255-9.1-1.647-2.845a1.606,1.606,0,1,1,2.78-1.607l.715,1.237.715-1.237a1.606,1.606,0,1,1,2.78,1.607L14.553,52.78h4.99a2.2,2.2,0,0,1,1.824,3.214Zm7.883,0H26.92l1.575,2.724a1.606,1.606,0,0,1-2.78,1.607q-3.966-6.858-5.946-10.294a4.446,4.446,0,0,1,.571-5.448q1.579,2.736,4.733,8.2H29.25a1.607,1.607,0,1,1,0,3.214Z" transform="translate(1070 591)"/><rect class="b" width="38" height="38" transform="translate(1069 622)"/></g></svg>