<svg xmlns="http://www.w3.org/2000/svg" xmlns:xlink="http://www.w3.org/1999/xlink" width="38" height="38" viewBox="0 0 38 38"><defs><style>.a{fill:url(#a);}.b{fill:none;}</style><linearGradient id="a" x1="0.5" x2="0.5" y2="1" gradientUnits="objectBoundingBox"><stop offset="0" stop-color="#b3d5f2"/><stop offset="1" stop-color="#8ebbf7"/></linearGradient></defs><g transform="translate(-598 -594)"><path class="a" d="M26.7,52.081a7.92,7.92,0,0,1,4.242-7.194A9.115,9.115,0,0,0,23.754,41.1c-3.012-.238-6.3,1.756-7.508,1.756-1.273,0-4.191-1.671-6.482-1.671C5.031,41.264,0,44.963,0,52.488a21.132,21.132,0,0,0,1.222,6.889C2.308,62.49,6.227,70.126,10.316,70c2.138-.051,3.648-1.519,6.431-1.519,2.7,0,4.1,1.519,6.482,1.519,4.123-.059,7.669-7,8.7-10.121a8.41,8.41,0,0,1-5.234-7.8Zm-4.8-13.93A7.99,7.99,0,0,0,23.932,32a9,9,0,0,0-5.76,2.961A8.116,8.116,0,0,0,16,41.061C18.214,41.23,20.234,40.093,21.9,38.151Z" transform="translate(601 562)"/><rect class="b" width="38" height="38" transform="translate(598 594)"/></g></svg>