<svg xmlns="http://www.w3.org/2000/svg" xmlns:xlink="http://www.w3.org/1999/xlink" width="38" height="38" viewBox="0 0 38 38"><defs><style>.a{fill:url(#a);}.b{fill:none;}</style><linearGradient id="a" x1="0.5" x2="0.5" y2="1" gradientUnits="objectBoundingBox"><stop offset="0" stop-color="#e2b706"/><stop offset="1" stop-color="#e8890c"/></linearGradient></defs><g transform="translate(-956 -621)"><path class="a" d="M47.4,17.263,31.143.958,51.832,12.835ZM26.9,0a2.864,2.864,0,0,0-1.6,2.6V35.116a2.864,2.864,0,0,0,1.6,2.6L45.805,18.855ZM58.228,16.622l-4.34-2.512-4.841,4.752,4.841,4.752L58.316,21.1A2.956,2.956,0,0,0,58.228,16.622ZM31.143,36.766,51.832,24.889,47.4,20.461Z" transform="translate(932.7 621)"/><rect class="b" width="38" height="38" transform="translate(956 621)"/></g></svg>