<svg xmlns="http://www.w3.org/2000/svg" width="120" height="30" viewBox="0 0 120 30">
  <g id="그룹_4080" data-name="그룹 4080" transform="translate(-240 -25)">
    <rect id="사각형_344" data-name="사각형 344" width="120" height="30" transform="translate(240 25)" fill="none"/>
    <rect id="사각형_3" data-name="사각형 3" width="120" height="29.032" transform="translate(240 25)" fill="none"/>
    <path id="패스_1" data-name="패스 1" d="M325.174,238.439a3.22,3.22,0,1,1,3.22,3.226A3.224,3.224,0,0,1,325.174,238.439Z" transform="translate(-67.125 -205.402)" fill="#fff" fill-rule="evenodd"/>
    <path id="패스_2" data-name="패스 2" d="M474.146,248.61a7.477,7.477,0,0,0-4.963-2.452h-.01l-.015,0a6.988,6.988,0,0,0-5.36,2.892v-2.537h-3.546V263.93H463.8v-9.172a6.214,6.214,0,0,1,1.193-3.91,3.712,3.712,0,0,1,3.054-1.49,6.2,6.2,0,0,1,3.942,1.827Z" transform="translate(-144.963 -212.243)" fill="#fff" fill-rule="evenodd"/>
    <path id="패스_3" data-name="패스 3" d="M284.594,251.873h3.546V239.954a9.378,9.378,0,0,1,2.119-1.894,3.984,3.984,0,0,1,2.056-.571,2.9,2.9,0,0,1,2.364,1.115,4.554,4.554,0,0,1,.9,2.944v10.324h3.544v-9.567a11.32,11.32,0,0,0-.659-4.394,5.159,5.159,0,0,0-2.015-2.323,5.721,5.721,0,0,0-3.064-.842,6.481,6.481,0,0,0-5.249,2.627v-11.19h-3.546Z" transform="translate(-44.594 -200.185)" fill="#fff" fill-rule="evenodd"/>
    <rect id="사각형_2" data-name="사각형 2" width="3.546" height="13.965" transform="translate(259.495 37.722)" fill="#fff"/>
    <path id="패스_4" data-name="패스 4" d="M363.346,257.557,359,246.959h-2.619L352,257.557l-4.609-10.6h-3.722l7.726,17.772h1.253l5.023-12.169,4.991,12.169h1.282l7.726-17.772h-3.72Z" transform="translate(-78.491 -212.687)" fill="#fff" fill-rule="evenodd"/>
    <path id="패스_5" data-name="패스 5" d="M412.509,248.762a9.172,9.172,0,0,0-.035,12.951,9.134,9.134,0,0,0,6.629,2.577,9.534,9.534,0,0,0,6.8-2.536,8.421,8.421,0,0,0,2.7-6.395,8.836,8.836,0,0,0-2.665-6.573,9.137,9.137,0,0,0-6.678-2.623A9.324,9.324,0,0,0,412.509,248.762Zm10.847,2.271a5.658,5.658,0,0,1,1.7,4.211,5.966,5.966,0,0,1-10.054,4.226,5.621,5.621,0,0,1-1.643-4.188,5.856,5.856,0,0,1,1.607-4.249,5.447,5.447,0,0,1,4.107-1.673A5.872,5.872,0,0,1,423.356,251.032Z" transform="translate(-116.239 -212.245)" fill="#fff" fill-rule="evenodd"/>
    <path id="패스_6" data-name="패스 6" d="M500,243.482l8.782,8.391h4.686l-8.916-8.526,7.5-8.258H507.61Zm-3.546,8.391H500V226.185h-3.546Z" transform="translate(-166.224 -200.185)" fill="#fff" fill-rule="evenodd"/>
    <path id="패스_7" data-name="패스 7" d="M540.121,263.956a10.492,10.492,0,0,0,2.743.333,6.453,6.453,0,0,0,4.27-1.377,4.378,4.378,0,0,0,1.659-3.527q0-3-4.289-5.475l-1.241-.7a9.756,9.756,0,0,1-2.023-1.354,1.692,1.692,0,0,1-.6-1.211,1.39,1.39,0,0,1,.632-1.184,2.815,2.815,0,0,1,1.663-.448q2,0,5.15,2.132v-3.5a11.2,11.2,0,0,0-5.322-1.475,6.335,6.335,0,0,0-4.084,1.272,4.022,4.022,0,0,0-1.58,3.288,4.508,4.508,0,0,0,1.04,2.881,15.634,15.634,0,0,0,4.412,3.182,11.232,11.232,0,0,1,2.188,1.474,1.808,1.808,0,0,1,.512,1.31,1.607,1.607,0,0,1-.776,1.326,3.1,3.1,0,0,1-1.851.551,6.437,6.437,0,0,1-2.56-.688,14.8,14.8,0,0,1-2.965-1.8v3.757A17.927,17.927,0,0,0,540.121,263.956Z" transform="translate(-188.793 -212.245)" fill="#fff" fill-rule="evenodd"/>
  </g>
</svg>
