<svg xmlns="http://www.w3.org/2000/svg" width="15" height="11.25" viewBox="0 0 15 11.25"><defs><style>.a{fill:#fff;}</style></defs><path class="a" d="M4.02,65.356l.642-.642a.706.706,0,0,1,.993,0l4.45,4.415a.7.7,0,0,1,0,1l-4.45,4.412a.7.7,0,0,1-.993,0l-.642-.642a.7.7,0,0,1,.023-1.017l2.273-2.083H.7a.7.7,0,0,1-.7-.7v-.937a.7.7,0,0,1,.7-.7h5.61L4.04,66.367A.7.7,0,0,1,4.02,65.356ZM15,72.438V66.812A2.813,2.813,0,0,0,12.188,64H9.727a.353.353,0,0,0-.352.352v1.172a.353.353,0,0,0,.352.352h2.461a.936.936,0,0,1,.938.937v5.625a.936.936,0,0,1-.937.938H9.727a.353.353,0,0,0-.352.352V74.9a.353.353,0,0,0,.352.352h2.461A2.813,2.813,0,0,0,15,72.438Z" transform="translate(0 -64)"/></svg>