<svg id="상담" xmlns="http://www.w3.org/2000/svg" width="48" height="48" viewBox="0 0 48 48">
  <rect id="사각형_2509" data-name="사각형 2509" width="48" height="48" fill="none"/>
  <g id="그룹_2793" data-name="그룹 2793" transform="translate(-153 -379)">
    <rect id="사각형_2383" data-name="사각형 2383" width="3" height="18" transform="translate(169 421) rotate(-90)" fill="#002057"/>
    <rect id="사각형_2526" data-name="사각형 2526" width="3" height="5" transform="translate(175 413)" fill="#002057"/>
    <rect id="사각형_2690" data-name="사각형 2690" width="3" height="28" transform="translate(159 385)" fill="#002057"/>
    <rect id="사각형_2691" data-name="사각형 2691" width="3" height="28" transform="translate(193 385)" fill="#002057"/>
    <rect id="사각형_2692" data-name="사각형 2692" width="3" height="34" transform="translate(162 388) rotate(-90)" fill="#002057"/>
    <rect id="사각형_2693" data-name="사각형 2693" width="3" height="19" transform="translate(159 413) rotate(-90)" fill="#002057"/>
    <rect id="사각형_2694" data-name="사각형 2694" width="3" height="15" transform="translate(181 413) rotate(-90)" fill="#002057"/>
    <g id="그룹_3879" data-name="그룹 3879" transform="translate(-812 -128)">
      <rect id="사각형_3785" data-name="사각형 3785" width="3" height="3" transform="translate(988 530.92)" fill="#2f58b8"/>
      <path id="패스_2999" data-name="패스 2999" d="M991,520h-6v5h3v-2h3v.879l-3,3h0v3h3v-1.757l3-3V520Z" fill="#2f58b8"/>
    </g>
  </g>
</svg>
