<svg xmlns="http://www.w3.org/2000/svg" xmlns:xlink="http://www.w3.org/1999/xlink" width="44" height="43" viewBox="0 0 44 43">
  <defs>
    <linearGradient id="linear-gradient" x1="0.5" x2="0.5" y2="1" gradientUnits="objectBoundingBox">
      <stop offset="0" stop-color="#5492fe"/>
      <stop offset="1" stop-color="#2e72e8"/>
    </linearGradient>
  </defs>
  <g id="그룹_4170" data-name="그룹 4170" transform="translate(-1369 -1234)">
    <rect id="사각형_2908" data-name="사각형 2908" width="40" height="40" transform="translate(1373 1237)" fill="none"/>
    <g id="그룹_4167" data-name="그룹 4167" transform="translate(84.999 4)">
      <path id="합치기_499" data-name="합치기 499" d="M0,0V12H.01A11.5,11.5,0,1,0,12,.011V0Z" transform="translate(1328 1273) rotate(180)" fill="#b2b2b2"/>
      <g id="합치기_498" data-name="합치기 498" transform="translate(-1589 2801)" fill="url(#linear-gradient)">
        <path d="M 2891 -1542.00048828125 L 2889 -1542.00048828125 L 2877.00048828125 -1542.00048828125 L 2875.00048828125 -1542.00048828125 L 2875.00048828125 -1544.00048828125 L 2875.00048828125 -1555.499755859375 L 2875.00048828125 -1556.000122070313 L 2875.00048828125 -1558.000122070313 L 2875.231201171875 -1558.000122070313 C 2875.74462890625 -1560.747802734375 2877.099365234375 -1563.267578125 2879.1494140625 -1565.236938476563 C 2881.675537109375 -1567.663452148438 2884.99609375 -1568.999877929688 2888.499755859375 -1568.999877929688 C 2892.105712890625 -1568.999877929688 2895.495849609375 -1567.595581054688 2898.045654296875 -1565.045776367188 C 2900.595458984375 -1562.495971679688 2901.999755859375 -1559.105712890625 2901.999755859375 -1555.499755859375 C 2901.999755859375 -1551.996215820313 2900.663330078125 -1548.675537109375 2898.23681640625 -1546.1494140625 C 2896.267578125 -1544.099487304688 2893.74755859375 -1542.744750976563 2891 -1542.231323242188 L 2891 -1542.00048828125 Z" stroke="none"/>
        <path d="M 2889 -1544.00048828125 L 2889 -1544.011108398438 C 2895.118896484375 -1544.2734375 2899.999755859375 -1549.316284179688 2899.999755859375 -1555.499755859375 C 2899.999755859375 -1561.85107421875 2894.85107421875 -1566.999877929688 2888.499755859375 -1566.999877929688 C 2882.316162109375 -1566.999877929688 2877.2734375 -1562.119018554688 2877.010986328125 -1556.000122070313 L 2877.00048828125 -1556.000122070313 L 2877.00048828125 -1555.499755859375 L 2877.00048828125 -1544.00048828125 L 2889 -1544.00048828125 M 2893 -1540.00048828125 L 2889 -1540.00048828125 L 2877.00048828125 -1540.00048828125 L 2873.00048828125 -1540.00048828125 L 2873.00048828125 -1544.00048828125 L 2873.00048828125 -1555.499755859375 L 2873.00048828125 -1556.000122070313 L 2873.00048828125 -1560.000122070313 L 2873.662841796875 -1560.000122070313 C 2874.423828125 -1562.518188476563 2875.822265625 -1564.81396484375 2877.763916015625 -1566.67919921875 C 2880.664306640625 -1569.465454101563 2884.47705078125 -1570.999877929688 2888.499755859375 -1570.999877929688 C 2890.590576171875 -1570.999877929688 2892.620849609375 -1570.589477539063 2894.534423828125 -1569.780151367188 C 2896.380615234375 -1568.999267578125 2898.037841796875 -1567.882202148438 2899.4599609375 -1566.4599609375 C 2900.882080078125 -1565.037719726563 2901.999267578125 -1563.380493164063 2902.780029296875 -1561.534301757813 C 2903.58935546875 -1559.620849609375 2903.999755859375 -1557.590454101563 2903.999755859375 -1555.499755859375 C 2903.999755859375 -1551.47705078125 2902.46533203125 -1547.664306640625 2899.67919921875 -1544.763916015625 C 2897.813720703125 -1542.822143554688 2895.51806640625 -1541.423828125 2893 -1540.662841796875 L 2893 -1540.00048828125 Z" stroke="none" fill="#f6f6f6"/>
      </g>
      <g id="그룹_4166" data-name="그룹 4166" transform="translate(-42 173)">
        <rect id="사각형_3973" data-name="사각형 3973" width="3" height="3" transform="translate(1340 1067)" fill="#fff"/>
        <rect id="사각형_3974" data-name="사각형 3974" width="3" height="6" transform="translate(1340 1072)" fill="#fff"/>
      </g>
    </g>
  </g>
</svg>
