<svg xmlns="http://www.w3.org/2000/svg" width="48" height="48" viewBox="0 0 48 48"><defs><style>.a{fill:none;}.b{fill:#002057;}.c{fill:#2f58b8;}</style></defs><rect class="a" width="48" height="48"/><g transform="translate(-898.592 -455.114)"><path class="b" d="M914.785,466.62H903.593v18h11.192L918,486.529V492a4,4,0,0,1-8,0v-4h-3v4a7,7,0,0,0,14,0v-3.69l6.407,3.8h3v-33h-3Zm12.622,22.006-11.814-7v0h-9v-12h9v0l11.814-7.015Z"/><rect class="c" width="8" height="3" transform="translate(933 474)"/><rect class="c" width="8" height="3" transform="translate(933 468.268) rotate(-45)"/><rect class="c" width="3" height="8" transform="translate(933 482.732) rotate(-45)"/></g></svg>